G75*
G70*
%OFA0B0*%
%FSLAX24Y24*%
%IPPOS*%
%LPD*%
%AMOC8*
5,1,8,0,0,1.08239X$1,22.5*
%
%ADD10C,0.0000*%
%ADD11C,0.0680*%
%ADD12C,0.0560*%
%ADD13OC8,0.0560*%
%ADD14C,0.0560*%
%ADD15C,0.0820*%
%ADD16C,0.2180*%
%ADD17R,0.0820X0.0820*%
%ADD18OC8,0.0620*%
%ADD19R,0.1380X0.0680*%
%ADD20R,0.1600X0.2900*%
%ADD21C,0.0620*%
%ADD22C,0.0350*%
D10*
X003500Y012477D02*
X003500Y031473D01*
X023000Y031477D01*
X022992Y012477D01*
X003500Y012477D01*
D11*
X004200Y016477D02*
X004800Y016477D01*
X004800Y017477D02*
X004200Y017477D01*
X004200Y018477D02*
X004800Y018477D01*
X004800Y019477D02*
X004200Y019477D01*
X004200Y020477D02*
X004800Y020477D01*
X004800Y021477D02*
X004200Y021477D01*
X007250Y029677D02*
X007250Y030277D01*
X008250Y030277D02*
X008250Y029677D01*
X009250Y029677D02*
X009250Y030277D01*
X010250Y030277D02*
X010250Y029677D01*
X012250Y029677D02*
X012250Y030277D01*
X013250Y030277D02*
X013250Y029677D01*
X014250Y029677D02*
X014250Y030277D01*
X015250Y030277D02*
X015250Y029677D01*
D12*
X015500Y026717D02*
X015500Y026237D01*
X014500Y026237D02*
X014500Y026717D01*
X013500Y026717D02*
X013500Y026237D01*
X012500Y026237D02*
X012500Y026717D01*
X011500Y026717D02*
X011500Y026237D01*
X010500Y026237D02*
X010500Y026717D01*
X009500Y026717D02*
X009500Y026237D01*
X008500Y026237D02*
X008500Y026717D01*
X004740Y026477D02*
X004260Y026477D01*
X004260Y027477D02*
X004740Y027477D01*
X004740Y028477D02*
X004260Y028477D01*
X008500Y022217D02*
X008500Y021737D01*
X009500Y021737D02*
X009500Y022217D01*
X010500Y022217D02*
X010500Y021737D01*
X011500Y021737D02*
X011500Y022217D01*
X012500Y022217D02*
X012500Y021737D01*
X013500Y021737D02*
X013500Y022217D01*
X014500Y022217D02*
X014500Y021737D01*
X015500Y021737D02*
X015500Y022217D01*
X016500Y022217D02*
X016500Y021737D01*
X016553Y018110D02*
X016553Y017630D01*
X015553Y017630D02*
X015553Y018110D01*
X014553Y018110D02*
X014553Y017630D01*
X013553Y017630D02*
X013553Y018110D01*
X012553Y018110D02*
X012553Y017630D01*
X011553Y017630D02*
X011553Y018110D01*
X010553Y018110D02*
X010553Y017630D01*
X009553Y017630D02*
X009553Y018110D01*
X008553Y018110D02*
X008553Y017630D01*
X007553Y017630D02*
X007553Y018110D01*
X007553Y015110D02*
X007553Y014630D01*
X008553Y014630D02*
X008553Y015110D01*
X009553Y015110D02*
X009553Y014630D01*
X010553Y014630D02*
X010553Y015110D01*
X011553Y015110D02*
X011553Y014630D01*
X012553Y014630D02*
X012553Y015110D01*
X013553Y015110D02*
X013553Y014630D01*
X014553Y014630D02*
X014553Y015110D01*
X015553Y015110D02*
X015553Y014630D01*
X016553Y014630D02*
X016553Y015110D01*
X017553Y015110D02*
X017553Y014630D01*
X018553Y014630D02*
X018553Y015110D01*
X019553Y015110D02*
X019553Y014630D01*
X020553Y014630D02*
X020553Y015110D01*
X020553Y017630D02*
X020553Y018110D01*
X019553Y018110D02*
X019553Y017630D01*
X018553Y017630D02*
X018553Y018110D01*
X017553Y018110D02*
X017553Y017630D01*
X016500Y026237D02*
X016500Y026717D01*
D13*
X016785Y028636D03*
X017785Y028636D03*
X018803Y028616D03*
X019803Y028616D03*
X019951Y030317D03*
X016951Y030317D03*
X011598Y028181D03*
X008598Y028181D03*
X005020Y025612D03*
X004142Y025612D03*
X004142Y022612D03*
X005020Y022612D03*
X007043Y019012D03*
X006167Y016506D03*
X006167Y015506D03*
X010043Y019012D03*
X012222Y019272D03*
X012222Y020272D03*
X017823Y020323D03*
X017823Y019323D03*
X022157Y017258D03*
X022157Y014258D03*
D14*
X015950Y020227D03*
X014050Y020227D03*
D15*
X019610Y021506D03*
X019610Y023286D03*
X022170Y023286D03*
X022170Y021506D03*
X020972Y026370D03*
X020972Y027370D03*
X021152Y013329D03*
X022152Y013329D03*
X020152Y013329D03*
X019152Y013329D03*
X018152Y013329D03*
X017152Y013329D03*
X016152Y013329D03*
X015152Y013329D03*
X014152Y013329D03*
X013152Y013329D03*
X012152Y013329D03*
X011152Y013329D03*
X010152Y013329D03*
X009152Y013329D03*
X008152Y013329D03*
D16*
X005000Y013977D03*
X004921Y030065D03*
X021500Y029977D03*
D17*
X020972Y025370D03*
X007152Y013329D03*
D18*
X007549Y023711D03*
X007549Y024711D03*
X008549Y024711D03*
X008549Y023711D03*
X009549Y023711D03*
X009549Y024711D03*
X010549Y024711D03*
X010549Y023711D03*
X011549Y023711D03*
X011549Y024711D03*
X012549Y024711D03*
X012549Y023711D03*
X013549Y023711D03*
X013549Y024711D03*
X014549Y024711D03*
X014549Y023711D03*
X015549Y023711D03*
X015549Y024711D03*
X016549Y024711D03*
X016549Y023711D03*
D19*
X022181Y020156D03*
X022181Y019156D03*
X022181Y018156D03*
D20*
X022181Y019156D03*
D21*
X007506Y026605D02*
X006966Y026605D01*
X006966Y027605D02*
X007506Y027605D01*
X007506Y028605D02*
X006966Y028605D01*
D22*
X005941Y023776D03*
X006610Y023067D03*
X006217Y019445D03*
X011217Y016414D03*
X014917Y019091D03*
X018461Y020587D03*
X018933Y019721D03*
X017161Y022870D03*
M02*
