%
M48
M72
T01C0.0130
T02C0.0320
T03C0.0360
T04C0.0400
T05C0.1102
%
T01
X5941Y23776
X14917Y19091
X18461Y20587
X18933Y19721
X6217Y19445
X6610Y23067
X11217Y16414
X17161Y22870
T02
X7553Y14870
X8553Y14870
X9553Y14870
X10553Y14870
X11553Y14870
X12553Y14870
X13553Y14870
X14553Y14870
X15553Y14870
X16553Y14870
X17553Y14870
X18553Y14870
X19553Y14870
X20553Y14870
X20553Y17870
X19553Y17870
X18553Y17870
X17553Y17870
X16553Y17870
X15553Y17870
X14553Y17870
X13553Y17870
X12553Y17870
X11553Y17870
X10553Y17870
X9553Y17870
X8553Y17870
X7553Y17870
X17785Y28636
X16785Y28636
X14050Y20227
X15950Y20227
X12222Y20272
X12222Y19272
X17823Y19323
X17823Y20323
X18803Y28616
X19803Y28616
X19951Y30317
X16951Y30317
X22157Y17258
X22157Y14258
X8500Y21977
X9500Y21977
X10500Y21977
X11500Y21977
X12500Y21977
X13500Y21977
X14500Y21977
X15500Y21977
X16500Y21977
X10043Y19012
X7043Y19012
X8500Y26477
X9500Y26477
X10500Y26477
X11500Y26477
X12500Y26477
X13500Y26477
X14500Y26477
X15500Y26477
X16500Y26477
X8598Y28181
X11598Y28181
X4500Y26477
X4500Y27477
X4500Y28477
X4142Y25612
X4142Y22612
X5020Y22612
X5020Y25612
X6167Y15506
X6167Y16506
T03
X7549Y23711
X7549Y24711
X8549Y23711
X8549Y24711
X9549Y23711
X9549Y24711
X10549Y23711
X10549Y24711
X11549Y23711
X11549Y24711
X12549Y23711
X12549Y24711
X13549Y23711
X13549Y24711
X14549Y23711
X14549Y24711
X15549Y23711
X15549Y24711
X16549Y23711
X16549Y24711
X7236Y26605
X7236Y27605
X7236Y28605
T04
X7250Y29977
X8250Y29977
X9250Y29977
X10250Y29977
X22170Y21506
X19610Y21506
X22170Y23286
X19610Y23286
X4500Y16477
X4500Y17477
X4500Y18477
X4500Y19477
X4500Y20477
X4500Y21477
X12250Y29977
X13250Y29977
X14250Y29977
X15250Y29977
X7152Y13329
X8152Y13329
X9152Y13329
X10152Y13329
X11152Y13329
X12152Y13329
X13152Y13329
X14152Y13329
X15152Y13329
X16152Y13329
X17152Y13329
X18152Y13329
X19152Y13329
X20152Y13329
X21152Y13329
X22152Y13329
X20972Y25370
X20972Y26370
X20972Y27370
T05
X4921Y30065
X21500Y29977
X5000Y13977
M30
