  0
SECTION
  2
HEADER
  9
$ACADVER
  1
AC1009
  9
$MEASUREMENT
 70
     1
  0
ENDSEC
  0
SECTION
  2
ENTITIES
  0
LWPOLYLINE
  8
0
 62
7
 90
5
 70
1
 10
22.870000
 20
7.165838
 10
22.592163
 20
7.165838
 10
22.592163
 20
5.898962
 10
23.147838
 20
5.898962
 10
23.147838
 20
7.165838
  0
LWPOLYLINE
  8
0
 62
7
 90
5
 70
1
 10
23.670000
 20
7.165838
 10
23.392163
 20
7.165838
 10
23.392163
 20
5.898962
 10
23.947838
 20
5.898962
 10
23.947838
 20
7.165838
  0
LWPOLYLINE
  8
0
 62
7
 90
5
 70
1
 10
24.470000
 20
7.165838
 10
24.192162
 20
7.165838
 10
24.192162
 20
5.898962
 10
24.747837
 20
5.898962
 10
24.747837
 20
7.165838
  0
LWPOLYLINE
  8
0
 62
7
 90
5
 70
1
 10
25.270000
 20
7.165838
 10
24.992162
 20
7.165838
 10
24.992162
 20
5.898962
 10
25.547837
 20
5.898962
 10
25.547837
 20
7.165838
  0
LWPOLYLINE
  8
0
 62
7
 90
5
 70
1
 10
26.070000
 20
7.165838
 10
25.792162
 20
7.165838
 10
25.792162
 20
5.898962
 10
26.347838
 20
5.898962
 10
26.347838
 20
7.165838
  0
LWPOLYLINE
  8
0
 62
7
 90
5
 70
1
 10
26.870000
 20
7.165838
 10
26.592163
 20
7.165838
 10
26.592163
 20
5.898962
 10
27.147838
 20
5.898962
 10
27.147838
 20
7.165838
  0
LWPOLYLINE
  8
0
 62
7
 90
5
 70
1
 10
27.670000
 20
7.165838
 10
27.392163
 20
7.165838
 10
27.392163
 20
5.898962
 10
27.947838
 20
5.898962
 10
27.947838
 20
7.165838
  0
LWPOLYLINE
  8
0
 62
7
 90
5
 70
1
 10
28.470000
 20
7.165838
 10
28.192162
 20
7.165838
 10
28.192162
 20
5.898962
 10
28.747837
 20
5.898962
 10
28.747837
 20
7.165838
  0
LWPOLYLINE
  8
0
 62
7
 90
5
 70
1
 10
29.962600
 20
8.302838
 10
29.329162
 20
8.302838
 10
29.329162
 20
7.747162
 10
30.596037
 20
7.747162
 10
30.596037
 20
8.302838
  0
LWPOLYLINE
  8
0
 62
7
 90
5
 70
1
 10
29.962600
 20
9.102837
 10
29.329162
 20
9.102837
 10
29.329162
 20
8.547162
 10
30.596037
 20
8.547162
 10
30.596037
 20
9.102837
  0
LWPOLYLINE
  8
0
 62
7
 90
5
 70
1
 10
29.962600
 20
9.902838
 10
29.329162
 20
9.902838
 10
29.329162
 20
9.347162
 10
30.596037
 20
9.347162
 10
30.596037
 20
9.902838
  0
LWPOLYLINE
  8
0
 62
7
 90
5
 70
1
 10
29.962600
 20
10.702838
 10
29.329162
 20
10.702838
 10
29.329162
 20
10.147163
 10
30.596037
 20
10.147163
 10
30.596037
 20
10.702838
  0
LWPOLYLINE
  8
0
 62
7
 90
5
 70
1
 10
29.962600
 20
11.502838
 10
29.329162
 20
11.502838
 10
29.329162
 20
10.947162
 10
30.596037
 20
10.947162
 10
30.596037
 20
11.502838
  0
LWPOLYLINE
  8
0
 62
7
 90
5
 70
1
 10
29.962600
 20
12.302838
 10
29.329162
 20
12.302838
 10
29.329162
 20
11.747162
 10
30.596037
 20
11.747162
 10
30.596037
 20
12.302838
  0
LWPOLYLINE
  8
0
 62
7
 90
5
 70
1
 10
29.962600
 20
13.102837
 10
29.329162
 20
13.102837
 10
29.329162
 20
12.547162
 10
30.596037
 20
12.547162
 10
30.596037
 20
13.102837
  0
LWPOLYLINE
  8
0
 62
7
 90
5
 70
1
 10
29.962600
 20
13.902838
 10
29.329162
 20
13.902838
 10
29.329162
 20
13.347162
 10
30.596037
 20
13.347162
 10
30.596037
 20
13.902838
  0
LWPOLYLINE
  8
0
 62
7
 90
5
 70
1
 10
28.470000
 20
15.751037
 10
28.192162
 20
15.751037
 10
28.192162
 20
14.484163
 10
28.747837
 20
14.484163
 10
28.747837
 20
15.751037
  0
LWPOLYLINE
  8
0
 62
7
 90
5
 70
1
 10
27.670000
 20
15.751037
 10
27.392163
 20
15.751037
 10
27.392163
 20
14.484163
 10
27.947838
 20
14.484163
 10
27.947838
 20
15.751037
  0
LWPOLYLINE
  8
0
 62
7
 90
5
 70
1
 10
26.870000
 20
15.751037
 10
26.592163
 20
15.751037
 10
26.592163
 20
14.484163
 10
27.147838
 20
14.484163
 10
27.147838
 20
15.751037
  0
LWPOLYLINE
  8
0
 62
7
 90
5
 70
1
 10
26.070000
 20
15.751037
 10
25.792162
 20
15.751037
 10
25.792162
 20
14.484163
 10
26.347838
 20
14.484163
 10
26.347838
 20
15.751037
  0
LWPOLYLINE
  8
0
 62
7
 90
5
 70
1
 10
25.270000
 20
15.751037
 10
24.992162
 20
15.751037
 10
24.992162
 20
14.484163
 10
25.547837
 20
14.484163
 10
25.547837
 20
15.751037
  0
LWPOLYLINE
  8
0
 62
7
 90
5
 70
1
 10
24.470000
 20
15.751037
 10
24.192162
 20
15.751037
 10
24.192162
 20
14.484163
 10
24.747837
 20
14.484163
 10
24.747837
 20
15.751037
  0
LWPOLYLINE
  8
0
 62
7
 90
5
 70
1
 10
23.670000
 20
15.751037
 10
23.392163
 20
15.751037
 10
23.392163
 20
14.484163
 10
23.947838
 20
14.484163
 10
23.947838
 20
15.751037
  0
LWPOLYLINE
  8
0
 62
7
 90
5
 70
1
 10
22.870000
 20
15.751037
 10
22.592163
 20
15.751037
 10
22.592163
 20
14.484163
 10
23.147838
 20
14.484163
 10
23.147838
 20
15.751037
  0
LWPOLYLINE
  8
0
 62
7
 90
5
 70
1
 10
21.377400
 20
13.902838
 10
20.743963
 20
13.902838
 10
20.743963
 20
13.347162
 10
22.010838
 20
13.347162
 10
22.010838
 20
13.902838
  0
LWPOLYLINE
  8
0
 62
7
 90
5
 70
1
 10
21.377400
 20
13.102837
 10
20.743963
 20
13.102837
 10
20.743963
 20
12.547162
 10
22.010838
 20
12.547162
 10
22.010838
 20
13.102837
  0
LWPOLYLINE
  8
0
 62
7
 90
5
 70
1
 10
21.377400
 20
12.302838
 10
20.743963
 20
12.302838
 10
20.743963
 20
11.747162
 10
22.010838
 20
11.747162
 10
22.010838
 20
12.302838
  0
LWPOLYLINE
  8
0
 62
7
 90
5
 70
1
 10
21.377400
 20
11.502838
 10
20.743963
 20
11.502838
 10
20.743963
 20
10.947162
 10
22.010838
 20
10.947162
 10
22.010838
 20
11.502838
  0
LWPOLYLINE
  8
0
 62
7
 90
5
 70
1
 10
21.377400
 20
10.702838
 10
20.743963
 20
10.702838
 10
20.743963
 20
10.147163
 10
22.010838
 20
10.147163
 10
22.010838
 20
10.702838
  0
LWPOLYLINE
  8
0
 62
7
 90
5
 70
1
 10
21.377400
 20
9.902838
 10
20.743963
 20
9.902838
 10
20.743963
 20
9.347162
 10
22.010838
 20
9.347162
 10
22.010838
 20
9.902838
  0
LWPOLYLINE
  8
0
 62
7
 90
5
 70
1
 10
21.377400
 20
9.102837
 10
20.743963
 20
9.102837
 10
20.743963
 20
8.547162
 10
22.010838
 20
8.547162
 10
22.010838
 20
9.102837
  0
LWPOLYLINE
  8
0
 62
7
 90
5
 70
1
 10
21.377400
 20
8.302838
 10
20.743963
 20
8.302838
 10
20.743963
 20
7.747162
 10
22.010838
 20
7.747162
 10
22.010838
 20
8.302838
  0
LWPOLYLINE
  8
0
 62
7
 90
5
 70
1
 10
46.366437
 20
12.700000
 10
46.366437
 20
13.599937
 10
44.769562
 20
13.599937
 10
44.769562
 20
11.800062
 10
46.366437
 20
11.800062
  0
LWPOLYLINE
  8
0
 62
7
 90
5
 70
1
 10
49.210437
 20
12.700000
 10
49.210437
 20
13.599937
 10
47.613563
 20
13.599937
 10
47.613563
 20
11.800062
 10
49.210437
 20
11.800062
  0
LWPOLYLINE
  8
0
 62
7
 90
5
 70
1
 10
44.056438
 20
10.140000
 10
44.056438
 20
11.039938
 10
42.459563
 20
11.039938
 10
42.459563
 20
9.240063
 10
44.056438
 20
9.240063
  0
LWPOLYLINE
  8
0
 62
7
 90
5
 70
1
 10
46.900437
 20
10.140000
 10
46.900437
 20
11.039938
 10
45.303562
 20
11.039938
 10
45.303562
 20
9.240063
 10
46.900437
 20
9.240063
  0
ENDSEC
  0
EOF
