G75*
G70*
%OFA0B0*%
%FSLAX24Y24*%
%IPPOS*%
%LPD*%
%AMOC8*
5,1,8,0,0,1.08239X$1,22.5*
%
%ADD10C,0.0000*%
%ADD11C,0.0600*%
%ADD12C,0.0480*%
%ADD13OC8,0.0480*%
%ADD14C,0.0480*%
%ADD15C,0.0740*%
%ADD16C,0.2100*%
%ADD17R,0.0740X0.0740*%
%ADD18OC8,0.0540*%
%ADD19R,0.1300X0.0600*%
%ADD20C,0.0540*%
%ADD21C,0.0160*%
%ADD22C,0.0100*%
%ADD23C,0.0270*%
D10*
X003500Y012477D02*
X003500Y031473D01*
X023000Y031477D01*
X022992Y012477D01*
X003500Y012477D01*
D11*
X004200Y016477D02*
X004800Y016477D01*
X004800Y017477D02*
X004200Y017477D01*
X004200Y018477D02*
X004800Y018477D01*
X004800Y019477D02*
X004200Y019477D01*
X004200Y020477D02*
X004800Y020477D01*
X004800Y021477D02*
X004200Y021477D01*
X007250Y029677D02*
X007250Y030277D01*
X008250Y030277D02*
X008250Y029677D01*
X009250Y029677D02*
X009250Y030277D01*
X010250Y030277D02*
X010250Y029677D01*
X012250Y029677D02*
X012250Y030277D01*
X013250Y030277D02*
X013250Y029677D01*
X014250Y029677D02*
X014250Y030277D01*
X015250Y030277D02*
X015250Y029677D01*
D12*
X015500Y026717D02*
X015500Y026237D01*
X014500Y026237D02*
X014500Y026717D01*
X013500Y026717D02*
X013500Y026237D01*
X012500Y026237D02*
X012500Y026717D01*
X011500Y026717D02*
X011500Y026237D01*
X010500Y026237D02*
X010500Y026717D01*
X009500Y026717D02*
X009500Y026237D01*
X008500Y026237D02*
X008500Y026717D01*
X004740Y026477D02*
X004260Y026477D01*
X004260Y027477D02*
X004740Y027477D01*
X004740Y028477D02*
X004260Y028477D01*
X008500Y022217D02*
X008500Y021737D01*
X009500Y021737D02*
X009500Y022217D01*
X010500Y022217D02*
X010500Y021737D01*
X011500Y021737D02*
X011500Y022217D01*
X012500Y022217D02*
X012500Y021737D01*
X013500Y021737D02*
X013500Y022217D01*
X014500Y022217D02*
X014500Y021737D01*
X015500Y021737D02*
X015500Y022217D01*
X016500Y022217D02*
X016500Y021737D01*
X016553Y018110D02*
X016553Y017630D01*
X015553Y017630D02*
X015553Y018110D01*
X014553Y018110D02*
X014553Y017630D01*
X013553Y017630D02*
X013553Y018110D01*
X012553Y018110D02*
X012553Y017630D01*
X011553Y017630D02*
X011553Y018110D01*
X010553Y018110D02*
X010553Y017630D01*
X009553Y017630D02*
X009553Y018110D01*
X008553Y018110D02*
X008553Y017630D01*
X007553Y017630D02*
X007553Y018110D01*
X007553Y015110D02*
X007553Y014630D01*
X008553Y014630D02*
X008553Y015110D01*
X009553Y015110D02*
X009553Y014630D01*
X010553Y014630D02*
X010553Y015110D01*
X011553Y015110D02*
X011553Y014630D01*
X012553Y014630D02*
X012553Y015110D01*
X013553Y015110D02*
X013553Y014630D01*
X014553Y014630D02*
X014553Y015110D01*
X015553Y015110D02*
X015553Y014630D01*
X016553Y014630D02*
X016553Y015110D01*
X017553Y015110D02*
X017553Y014630D01*
X018553Y014630D02*
X018553Y015110D01*
X019553Y015110D02*
X019553Y014630D01*
X020553Y014630D02*
X020553Y015110D01*
X020553Y017630D02*
X020553Y018110D01*
X019553Y018110D02*
X019553Y017630D01*
X018553Y017630D02*
X018553Y018110D01*
X017553Y018110D02*
X017553Y017630D01*
X016500Y026237D02*
X016500Y026717D01*
D13*
X016785Y028636D03*
X017785Y028636D03*
X018803Y028616D03*
X019803Y028616D03*
X019951Y030317D03*
X016951Y030317D03*
X011598Y028181D03*
X008598Y028181D03*
X005020Y025612D03*
X004142Y025612D03*
X004142Y022612D03*
X005020Y022612D03*
X007043Y019012D03*
X006167Y016506D03*
X006167Y015506D03*
X010043Y019012D03*
X012222Y019272D03*
X012222Y020272D03*
X017823Y020323D03*
X017823Y019323D03*
X022157Y017258D03*
X022157Y014258D03*
D14*
X015950Y020227D03*
X014050Y020227D03*
D15*
X019610Y021506D03*
X019610Y023286D03*
X022170Y023286D03*
X022170Y021506D03*
X020972Y026370D03*
X020972Y027370D03*
X021152Y013329D03*
X022152Y013329D03*
X020152Y013329D03*
X019152Y013329D03*
X018152Y013329D03*
X017152Y013329D03*
X016152Y013329D03*
X015152Y013329D03*
X014152Y013329D03*
X013152Y013329D03*
X012152Y013329D03*
X011152Y013329D03*
X010152Y013329D03*
X009152Y013329D03*
X008152Y013329D03*
D16*
X005000Y013977D03*
X004921Y030065D03*
X021500Y029977D03*
D17*
X020972Y025370D03*
X007152Y013329D03*
D18*
X007549Y023711D03*
X007549Y024711D03*
X008549Y024711D03*
X008549Y023711D03*
X009549Y023711D03*
X009549Y024711D03*
X010549Y024711D03*
X010549Y023711D03*
X011549Y023711D03*
X011549Y024711D03*
X012549Y024711D03*
X012549Y023711D03*
X013549Y023711D03*
X013549Y024711D03*
X014549Y024711D03*
X014549Y023711D03*
X015549Y023711D03*
X015549Y024711D03*
X016549Y024711D03*
X016549Y023711D03*
D19*
X022181Y020156D03*
X022181Y019156D03*
X022181Y018156D03*
D20*
X007506Y026605D02*
X006966Y026605D01*
X006966Y027605D02*
X007506Y027605D01*
X007506Y028605D02*
X006966Y028605D01*
D21*
X006583Y028802D02*
X004980Y028802D01*
X004967Y028816D02*
X004841Y028868D01*
X004841Y029985D01*
X005001Y029985D01*
X005001Y028836D01*
X005128Y028851D01*
X005262Y028881D01*
X005393Y028927D01*
X005517Y028987D01*
X005634Y029060D01*
X005742Y029147D01*
X005840Y029244D01*
X005926Y029352D01*
X005999Y029469D01*
X006059Y029594D01*
X006105Y029724D01*
X006136Y029859D01*
X006150Y029985D01*
X005001Y029985D01*
X005001Y030145D01*
X006150Y030145D01*
X006136Y030272D01*
X006105Y030406D01*
X006059Y030537D01*
X005999Y030661D01*
X005926Y030778D01*
X005840Y030886D01*
X005742Y030984D01*
X005634Y031070D01*
X005517Y031143D01*
X005393Y031203D01*
X005279Y031243D01*
X022770Y031247D01*
X022766Y020636D01*
X022251Y020636D01*
X022251Y020226D01*
X022111Y020226D01*
X022111Y020636D01*
X021507Y020636D01*
X021462Y020623D01*
X021421Y020600D01*
X021387Y020566D01*
X021363Y020525D01*
X021351Y020479D01*
X021351Y020226D01*
X022111Y020226D01*
X022111Y020086D01*
X021351Y020086D01*
X021351Y019832D01*
X021363Y019786D01*
X021387Y019745D01*
X021421Y019712D01*
X021462Y019688D01*
X021507Y019676D01*
X022111Y019676D01*
X022111Y020086D01*
X022251Y020086D01*
X022251Y019676D01*
X022765Y019676D01*
X022765Y019616D01*
X021465Y019616D01*
X021371Y019522D01*
X021371Y018834D01*
X021125Y018587D01*
X021125Y017957D01*
X021007Y017839D01*
X021007Y017214D01*
X019335Y017214D01*
X018953Y017596D01*
X018953Y018190D01*
X018892Y018337D01*
X018780Y018449D01*
X018633Y018510D01*
X018474Y018510D01*
X018327Y018449D01*
X018214Y018337D01*
X018153Y018190D01*
X018153Y017551D01*
X018214Y017404D01*
X018327Y017291D01*
X018474Y017230D01*
X018633Y017230D01*
X018698Y017257D01*
X019038Y016917D01*
X019161Y016794D01*
X021304Y016794D01*
X021427Y016917D01*
X021427Y017665D01*
X021433Y017671D01*
X021448Y017656D01*
X021933Y017656D01*
X021717Y017440D01*
X021717Y017076D01*
X021975Y016818D01*
X022340Y016818D01*
X022597Y017076D01*
X022597Y017440D01*
X022520Y017518D01*
X022520Y017656D01*
X022764Y017656D01*
X022762Y012707D01*
X003730Y012707D01*
X003730Y016376D01*
X003732Y016364D01*
X003755Y016292D01*
X003789Y016225D01*
X003834Y016164D01*
X003887Y016110D01*
X003948Y016066D01*
X004016Y016032D01*
X004088Y016008D01*
X004162Y015997D01*
X004480Y015997D01*
X004480Y016457D01*
X004520Y016457D01*
X004520Y016497D01*
X004480Y016497D01*
X004480Y016957D01*
X004162Y016957D01*
X004088Y016945D01*
X004016Y016921D01*
X003948Y016887D01*
X003887Y016843D01*
X003834Y016789D01*
X003789Y016728D01*
X003755Y016661D01*
X003732Y016589D01*
X003730Y016578D01*
X003730Y017376D01*
X003732Y017364D01*
X003755Y017292D01*
X003789Y017225D01*
X003834Y017164D01*
X003887Y017110D01*
X003948Y017066D01*
X004016Y017032D01*
X004088Y017008D01*
X004162Y016997D01*
X004480Y016997D01*
X004480Y017457D01*
X004520Y017457D01*
X004520Y017497D01*
X004480Y017497D01*
X004480Y017957D01*
X004162Y017957D01*
X004088Y017945D01*
X004016Y017921D01*
X003948Y017887D01*
X003887Y017843D01*
X003834Y017789D01*
X003789Y017728D01*
X003755Y017661D01*
X003732Y017589D01*
X003730Y017578D01*
X003730Y029757D01*
X003737Y029724D01*
X003783Y029594D01*
X003843Y029469D01*
X003917Y029352D01*
X004003Y029244D01*
X004100Y029147D01*
X004208Y029060D01*
X004325Y028987D01*
X004450Y028927D01*
X004580Y028881D01*
X004601Y028877D01*
X004180Y028877D01*
X004033Y028816D01*
X003921Y028703D01*
X003860Y028556D01*
X003860Y028397D01*
X003921Y028250D01*
X004033Y028138D01*
X004180Y028077D01*
X004820Y028077D01*
X004839Y028085D01*
X005455Y027468D01*
X005455Y023351D01*
X005206Y023102D01*
X005206Y025233D01*
X005420Y025447D01*
X005420Y025778D01*
X005185Y026012D01*
X004854Y026012D01*
X004734Y025892D01*
X004734Y026077D01*
X004820Y026077D01*
X004967Y026138D01*
X005079Y026250D01*
X005140Y026397D01*
X005140Y026556D01*
X005079Y026703D01*
X004967Y026816D01*
X004820Y026877D01*
X004180Y026877D01*
X004033Y026816D01*
X003921Y026703D01*
X003860Y026556D01*
X003860Y026397D01*
X003921Y026250D01*
X004033Y026138D01*
X004180Y026077D01*
X004314Y026077D01*
X004314Y026006D01*
X004307Y026012D01*
X003976Y026012D01*
X003742Y025778D01*
X003742Y025447D01*
X003976Y025212D01*
X004307Y025212D01*
X004314Y025219D01*
X004314Y023075D01*
X004251Y023012D01*
X003976Y023012D01*
X003742Y022778D01*
X003742Y022447D01*
X003976Y022212D01*
X004307Y022212D01*
X004432Y022337D01*
X004432Y022153D01*
X004555Y022030D01*
X004909Y022030D01*
X005495Y021445D01*
X005495Y021054D01*
X005232Y021317D01*
X005260Y021385D01*
X005260Y021568D01*
X005190Y021737D01*
X005061Y021867D01*
X004891Y021937D01*
X004108Y021937D01*
X003939Y021867D01*
X003810Y021737D01*
X003740Y021568D01*
X003740Y021385D01*
X003810Y021216D01*
X003939Y021087D01*
X004108Y021017D01*
X004891Y021017D01*
X004925Y021030D01*
X005298Y020657D01*
X005298Y016051D01*
X005421Y015928D01*
X005767Y015582D01*
X005767Y015340D01*
X006002Y015106D01*
X006333Y015106D01*
X006567Y015340D01*
X006567Y015672D01*
X006333Y015906D01*
X006037Y015906D01*
X005718Y016225D01*
X005718Y017560D01*
X008153Y015125D01*
X008153Y014551D01*
X008214Y014404D01*
X008327Y014291D01*
X008474Y014230D01*
X008633Y014230D01*
X008780Y014291D01*
X008892Y014404D01*
X008953Y014551D01*
X008953Y015190D01*
X008892Y015337D01*
X008780Y015449D01*
X008633Y015510D01*
X008474Y015510D01*
X008394Y015478D01*
X007117Y016755D01*
X007547Y016755D01*
X009153Y015149D01*
X009153Y014551D01*
X009214Y014404D01*
X009327Y014291D01*
X009474Y014230D01*
X009633Y014230D01*
X009780Y014291D01*
X009892Y014404D01*
X009953Y014551D01*
X009953Y015190D01*
X009892Y015337D01*
X009780Y015449D01*
X009633Y015510D01*
X009474Y015510D01*
X009411Y015484D01*
X007844Y017052D01*
X007721Y017175D01*
X007096Y017175D01*
X007096Y018312D01*
X006973Y018435D01*
X006257Y019150D01*
X006275Y019150D01*
X006384Y019195D01*
X006467Y019278D01*
X006512Y019386D01*
X006512Y019504D01*
X006467Y019612D01*
X006427Y019652D01*
X006427Y020395D01*
X006523Y020298D01*
X007503Y019319D01*
X007503Y018823D01*
X007463Y018784D01*
X007463Y018506D01*
X007327Y018449D01*
X007214Y018337D01*
X007153Y018190D01*
X007153Y017551D01*
X007214Y017404D01*
X007327Y017291D01*
X007474Y017230D01*
X007633Y017230D01*
X007780Y017291D01*
X007892Y017404D01*
X007953Y017551D01*
X007953Y018190D01*
X007892Y018337D01*
X007883Y018346D01*
X007883Y018466D01*
X008155Y018194D01*
X008153Y018190D01*
X008153Y017551D01*
X008214Y017404D01*
X008327Y017291D01*
X008474Y017230D01*
X008633Y017230D01*
X008780Y017291D01*
X008892Y017404D01*
X008953Y017551D01*
X008953Y018190D01*
X008892Y018337D01*
X008780Y018449D01*
X008633Y018510D01*
X008474Y018510D01*
X008445Y018498D01*
X008119Y018823D01*
X008119Y019253D01*
X009156Y018216D01*
X009156Y018197D01*
X009153Y018190D01*
X009153Y017551D01*
X009214Y017404D01*
X009327Y017291D01*
X009474Y017230D01*
X009633Y017230D01*
X009780Y017291D01*
X009892Y017404D01*
X009953Y017551D01*
X009953Y018167D01*
X010153Y017967D01*
X010153Y017551D01*
X010214Y017404D01*
X010327Y017291D01*
X010474Y017230D01*
X010633Y017230D01*
X010731Y017271D01*
X010731Y015595D01*
X010642Y015506D01*
X010633Y015510D01*
X010474Y015510D01*
X010327Y015449D01*
X010214Y015337D01*
X010153Y015190D01*
X010153Y014551D01*
X010214Y014404D01*
X010327Y014291D01*
X010474Y014230D01*
X010633Y014230D01*
X010780Y014291D01*
X010892Y014404D01*
X010953Y014551D01*
X010953Y015190D01*
X010943Y015214D01*
X011028Y015298D01*
X011151Y015421D01*
X011151Y016121D01*
X011158Y016119D01*
X011275Y016119D01*
X011384Y016164D01*
X011467Y016247D01*
X011512Y016355D01*
X011512Y016412D01*
X012248Y017149D01*
X012371Y017272D01*
X012371Y017273D01*
X012474Y017230D01*
X012633Y017230D01*
X012780Y017291D01*
X012892Y017404D01*
X012953Y017551D01*
X012953Y018190D01*
X012892Y018337D01*
X012780Y018449D01*
X012684Y018489D01*
X013508Y019314D01*
X013631Y019437D01*
X013631Y020382D01*
X014138Y020889D01*
X015434Y020889D01*
X015101Y020556D01*
X015101Y019571D01*
X014915Y019386D01*
X014859Y019386D01*
X014750Y019341D01*
X014667Y019258D01*
X014663Y019248D01*
X014261Y019650D01*
X014261Y019881D01*
X014277Y019888D01*
X014389Y020000D01*
X014450Y020147D01*
X014450Y020306D01*
X014389Y020453D01*
X014277Y020566D01*
X014130Y020627D01*
X013970Y020627D01*
X013823Y020566D01*
X013711Y020453D01*
X013650Y020306D01*
X013650Y020147D01*
X013711Y020000D01*
X013823Y019888D01*
X013841Y019880D01*
X013841Y019476D01*
X013964Y019353D01*
X014904Y018413D01*
X014904Y018382D01*
X014802Y018483D01*
X014641Y018550D01*
X014466Y018550D01*
X014304Y018483D01*
X014180Y018360D01*
X014113Y018198D01*
X014113Y017543D01*
X014180Y017381D01*
X014304Y017257D01*
X014466Y017190D01*
X014641Y017190D01*
X014802Y017257D01*
X014904Y017359D01*
X014904Y015460D01*
X015027Y015337D01*
X015159Y015205D01*
X015153Y015190D01*
X015153Y014551D01*
X015214Y014404D01*
X015327Y014291D01*
X015474Y014230D01*
X015633Y014230D01*
X015780Y014291D01*
X015892Y014404D01*
X015953Y014551D01*
X015953Y015190D01*
X015892Y015337D01*
X015780Y015449D01*
X015633Y015510D01*
X015474Y015510D01*
X015456Y015503D01*
X015324Y015634D01*
X015324Y017249D01*
X015466Y017190D01*
X015641Y017190D01*
X015802Y017257D01*
X015926Y017381D01*
X015993Y017543D01*
X015993Y018198D01*
X015926Y018360D01*
X015802Y018483D01*
X015641Y018550D01*
X015466Y018550D01*
X015324Y018492D01*
X015324Y018587D01*
X015075Y018837D01*
X015084Y018841D01*
X015167Y018924D01*
X015212Y019032D01*
X015212Y019089D01*
X015521Y019398D01*
X015521Y020382D01*
X015831Y020692D01*
X017598Y020692D01*
X017403Y020497D01*
X017403Y020323D01*
X017403Y020149D01*
X017649Y019903D01*
X017823Y019903D01*
X017997Y019903D01*
X018243Y020149D01*
X018243Y020323D01*
X017823Y020323D01*
X017823Y020323D01*
X018243Y020323D01*
X018243Y020387D01*
X018251Y020380D01*
X018251Y019122D01*
X018374Y018999D01*
X019156Y018216D01*
X019156Y018197D01*
X019153Y018190D01*
X019153Y017551D01*
X019214Y017404D01*
X019327Y017291D01*
X019474Y017230D01*
X019633Y017230D01*
X019780Y017291D01*
X019892Y017404D01*
X019953Y017551D01*
X019953Y018190D01*
X019892Y018337D01*
X019780Y018449D01*
X019633Y018510D01*
X019474Y018510D01*
X019461Y018505D01*
X018671Y019296D01*
X018671Y019583D01*
X018683Y019554D01*
X018766Y019471D01*
X018874Y019426D01*
X018931Y019426D01*
X020157Y018200D01*
X020153Y018190D01*
X020153Y017551D01*
X020214Y017404D01*
X020327Y017291D01*
X020474Y017230D01*
X020633Y017230D01*
X020780Y017291D01*
X020892Y017404D01*
X020953Y017551D01*
X020953Y018190D01*
X020892Y018337D01*
X020780Y018449D01*
X020633Y018510D01*
X020474Y018510D01*
X020450Y018501D01*
X019228Y019723D01*
X019228Y019779D01*
X019183Y019888D01*
X019100Y019971D01*
X018992Y020016D01*
X018874Y020016D01*
X018766Y019971D01*
X018683Y019888D01*
X018671Y019858D01*
X018671Y020380D01*
X018711Y020420D01*
X018756Y020528D01*
X018756Y020646D01*
X018711Y020754D01*
X018628Y020837D01*
X018519Y020882D01*
X018402Y020882D01*
X018294Y020837D01*
X018211Y020754D01*
X018166Y020646D01*
X018166Y020574D01*
X017997Y020743D01*
X017823Y020743D01*
X017823Y020323D01*
X017823Y019903D01*
X017823Y020323D01*
X017823Y020323D01*
X017823Y020323D01*
X017403Y020323D01*
X017823Y020323D01*
X017823Y020323D01*
X017823Y020743D01*
X017654Y020743D01*
X017726Y020815D01*
X017726Y021012D01*
X019480Y022766D01*
X019504Y022756D01*
X019715Y022756D01*
X019910Y022837D01*
X020059Y022986D01*
X020140Y023180D01*
X020140Y023391D01*
X020059Y023586D01*
X019910Y023735D01*
X019852Y023759D01*
X019852Y028216D01*
X019969Y028216D01*
X020203Y028451D01*
X020203Y028782D01*
X020127Y028858D01*
X020127Y029928D01*
X020273Y030074D01*
X020271Y030057D01*
X021420Y030057D01*
X021420Y031205D01*
X021294Y031191D01*
X021159Y031160D01*
X021029Y031115D01*
X020904Y031055D01*
X020787Y030981D01*
X020679Y030895D01*
X020581Y030798D01*
X020495Y030690D01*
X020422Y030573D01*
X020362Y030448D01*
X020351Y030416D01*
X020351Y030483D01*
X020116Y030717D01*
X019785Y030717D01*
X019551Y030483D01*
X019551Y030151D01*
X019707Y029995D01*
X019707Y029016D01*
X019637Y029016D01*
X019403Y028782D01*
X019403Y028451D01*
X019432Y028422D01*
X019432Y023786D01*
X019310Y023735D01*
X019160Y023586D01*
X019080Y023391D01*
X019080Y023180D01*
X019144Y023024D01*
X017371Y021251D01*
X017371Y022663D01*
X017412Y022703D01*
X017456Y022812D01*
X017456Y022929D01*
X017412Y023037D01*
X017329Y023120D01*
X017220Y023165D01*
X017103Y023165D01*
X016994Y023120D01*
X016911Y023037D01*
X016866Y022929D01*
X016866Y022812D01*
X016911Y022703D01*
X016951Y022663D01*
X016951Y021309D01*
X013964Y021309D01*
X013841Y021186D01*
X013211Y020556D01*
X013211Y019611D01*
X011951Y018351D01*
X011951Y018194D01*
X011892Y018337D01*
X011780Y018449D01*
X011633Y018510D01*
X011474Y018510D01*
X011467Y018508D01*
X011072Y018902D01*
X011072Y020556D01*
X010088Y021540D01*
X010088Y022324D01*
X010101Y022311D01*
X010101Y022299D01*
X010100Y022296D01*
X010100Y021657D01*
X010161Y021510D01*
X010273Y021398D01*
X010420Y021337D01*
X010580Y021337D01*
X010727Y021398D01*
X010839Y021510D01*
X010900Y021657D01*
X010900Y022296D01*
X010898Y022302D01*
X011100Y022099D01*
X011100Y021657D01*
X011161Y021510D01*
X011273Y021398D01*
X011420Y021337D01*
X011580Y021337D01*
X011727Y021398D01*
X011839Y021510D01*
X011900Y021657D01*
X011900Y022284D01*
X012100Y022084D01*
X012100Y021657D01*
X012161Y021510D01*
X012273Y021398D01*
X012420Y021337D01*
X012580Y021337D01*
X012727Y021398D01*
X012839Y021510D01*
X012900Y021657D01*
X012900Y022296D01*
X012839Y022443D01*
X012727Y022556D01*
X012580Y022617D01*
X012420Y022617D01*
X012273Y022556D01*
X012248Y022530D01*
X012175Y022603D01*
X012175Y023115D01*
X011868Y023421D01*
X011979Y023533D01*
X011979Y023889D01*
X011727Y024141D01*
X011371Y024141D01*
X011119Y023889D01*
X011119Y023533D01*
X011371Y023281D01*
X011415Y023281D01*
X011484Y023211D01*
X011755Y022941D01*
X011755Y022528D01*
X011727Y022556D01*
X011580Y022617D01*
X011420Y022617D01*
X011273Y022556D01*
X011255Y022538D01*
X011151Y022642D01*
X011151Y023194D01*
X010895Y023449D01*
X010979Y023533D01*
X010979Y023889D01*
X010727Y024141D01*
X010371Y024141D01*
X010119Y023889D01*
X010119Y023533D01*
X010371Y023281D01*
X010470Y023281D01*
X010731Y023020D01*
X010731Y022551D01*
X010727Y022556D01*
X010580Y022617D01*
X010420Y022617D01*
X010398Y022607D01*
X010285Y022721D01*
X010285Y022997D01*
X009864Y023418D01*
X009979Y023533D01*
X009979Y023889D01*
X009727Y024141D01*
X009371Y024141D01*
X009182Y023952D01*
X009182Y024470D01*
X009371Y024281D01*
X009727Y024281D01*
X009979Y024533D01*
X009979Y024889D01*
X009727Y025141D01*
X009694Y025141D01*
X009694Y025884D01*
X009727Y025898D01*
X009839Y026010D01*
X009900Y026157D01*
X009900Y026796D01*
X009839Y026943D01*
X009727Y027056D01*
X009580Y027117D01*
X009420Y027117D01*
X009273Y027056D01*
X009161Y026943D01*
X009100Y026796D01*
X009100Y026157D01*
X009161Y026010D01*
X009273Y025898D01*
X009274Y025897D01*
X009274Y025044D01*
X009182Y024952D01*
X009182Y025871D01*
X008899Y026154D01*
X008900Y026157D01*
X008900Y026796D01*
X008839Y026943D01*
X008727Y027056D01*
X008710Y027063D01*
X008710Y027781D01*
X008764Y027781D01*
X008998Y028016D01*
X008998Y028347D01*
X008764Y028581D01*
X008760Y028581D01*
X008902Y028723D01*
X013311Y028723D01*
X013434Y028846D01*
X013434Y029255D01*
X013511Y029287D01*
X013640Y029416D01*
X013710Y029585D01*
X013710Y030368D01*
X013640Y030537D01*
X013511Y030667D01*
X013341Y030737D01*
X013158Y030737D01*
X012989Y030667D01*
X012860Y030537D01*
X012790Y030368D01*
X012790Y029585D01*
X012860Y029416D01*
X012989Y029287D01*
X013014Y029276D01*
X013014Y029143D01*
X008728Y029143D01*
X008605Y029020D01*
X008014Y028430D01*
X008014Y027445D01*
X007896Y027327D01*
X007896Y026786D01*
X007871Y026848D01*
X007750Y026969D01*
X007592Y027035D01*
X006881Y027035D01*
X006723Y026969D01*
X006602Y026848D01*
X006536Y026690D01*
X006536Y026519D01*
X006602Y026361D01*
X006648Y026315D01*
X006130Y025797D01*
X006130Y025797D01*
X006007Y025674D01*
X006007Y024068D01*
X006000Y024071D01*
X005882Y024071D01*
X005875Y024068D01*
X005875Y027642D01*
X005134Y028383D01*
X005140Y028397D01*
X005140Y028556D01*
X005079Y028703D01*
X004967Y028816D01*
X005001Y028961D02*
X004841Y028961D01*
X004841Y029119D02*
X005001Y029119D01*
X005001Y029278D02*
X004841Y029278D01*
X004841Y029436D02*
X005001Y029436D01*
X005001Y029595D02*
X004841Y029595D01*
X004841Y029753D02*
X005001Y029753D01*
X005001Y029912D02*
X004841Y029912D01*
X005001Y030070D02*
X006790Y030070D01*
X006790Y029912D02*
X006142Y029912D01*
X006112Y029753D02*
X006790Y029753D01*
X006790Y029595D02*
X006060Y029595D01*
X005979Y029436D02*
X006852Y029436D01*
X006860Y029416D02*
X006989Y029287D01*
X007030Y029270D01*
X007030Y029035D01*
X006881Y029035D01*
X006723Y028969D01*
X006602Y028848D01*
X006536Y028690D01*
X006536Y028519D01*
X006602Y028361D01*
X006723Y028240D01*
X006881Y028175D01*
X007592Y028175D01*
X007750Y028240D01*
X007871Y028361D01*
X007936Y028519D01*
X007936Y028690D01*
X007871Y028848D01*
X007750Y028969D01*
X007592Y029035D01*
X007450Y029035D01*
X007450Y029262D01*
X007511Y029287D01*
X007640Y029416D01*
X007710Y029585D01*
X007710Y030368D01*
X007640Y030537D01*
X007511Y030667D01*
X007341Y030737D01*
X007158Y030737D01*
X006989Y030667D01*
X006860Y030537D01*
X006790Y030368D01*
X006790Y029585D01*
X006860Y029416D01*
X007011Y029278D02*
X005866Y029278D01*
X005708Y029119D02*
X007030Y029119D01*
X006714Y028961D02*
X005462Y028961D01*
X005104Y028644D02*
X006536Y028644D01*
X006550Y028485D02*
X005140Y028485D01*
X005191Y028327D02*
X006636Y028327D01*
X006716Y028010D02*
X005508Y028010D01*
X005350Y028168D02*
X008014Y028168D01*
X008014Y028010D02*
X007756Y028010D01*
X007772Y028003D02*
X007600Y028075D01*
X006873Y028075D01*
X006700Y028003D01*
X006568Y027871D01*
X006496Y027698D01*
X006496Y027511D01*
X006568Y027338D01*
X006700Y027206D01*
X006873Y027135D01*
X007600Y027135D01*
X007772Y027206D01*
X007905Y027338D01*
X007976Y027511D01*
X007976Y027698D01*
X007905Y027871D01*
X007772Y028003D01*
X007913Y027851D02*
X008014Y027851D01*
X008014Y027693D02*
X007976Y027693D01*
X007976Y027534D02*
X008014Y027534D01*
X007945Y027376D02*
X007920Y027376D01*
X007896Y027217D02*
X007783Y027217D01*
X007896Y027059D02*
X005875Y027059D01*
X005875Y027217D02*
X006689Y027217D01*
X006552Y027376D02*
X005875Y027376D01*
X005875Y027534D02*
X006496Y027534D01*
X006496Y027693D02*
X005825Y027693D01*
X005667Y027851D02*
X006560Y027851D01*
X006654Y026900D02*
X005875Y026900D01*
X005875Y026742D02*
X006558Y026742D01*
X006536Y026583D02*
X005875Y026583D01*
X005875Y026425D02*
X006575Y026425D01*
X006599Y026266D02*
X005875Y026266D01*
X005875Y026108D02*
X006440Y026108D01*
X006282Y025949D02*
X005875Y025949D01*
X005875Y025791D02*
X006123Y025791D01*
X006007Y025632D02*
X005875Y025632D01*
X005875Y025474D02*
X006007Y025474D01*
X006007Y025315D02*
X005875Y025315D01*
X005875Y025157D02*
X006007Y025157D01*
X006007Y024998D02*
X005875Y024998D01*
X005875Y024840D02*
X006007Y024840D01*
X006007Y024681D02*
X005875Y024681D01*
X005875Y024523D02*
X006007Y024523D01*
X006007Y024364D02*
X005875Y024364D01*
X005875Y024206D02*
X006007Y024206D01*
X005455Y024206D02*
X005206Y024206D01*
X005206Y024364D02*
X005455Y024364D01*
X005455Y024523D02*
X005206Y024523D01*
X005206Y024681D02*
X005455Y024681D01*
X005455Y024840D02*
X005206Y024840D01*
X005206Y024998D02*
X005455Y024998D01*
X005455Y025157D02*
X005206Y025157D01*
X005288Y025315D02*
X005455Y025315D01*
X005455Y025474D02*
X005420Y025474D01*
X005420Y025632D02*
X005455Y025632D01*
X005455Y025791D02*
X005407Y025791D01*
X005455Y025949D02*
X005249Y025949D01*
X005455Y026108D02*
X004894Y026108D01*
X004791Y025949D02*
X004734Y025949D01*
X005086Y026266D02*
X005455Y026266D01*
X005455Y026425D02*
X005140Y026425D01*
X005129Y026583D02*
X005455Y026583D01*
X005455Y026742D02*
X005041Y026742D01*
X004901Y027087D02*
X004960Y027117D01*
X005014Y027156D01*
X005060Y027203D01*
X005099Y027256D01*
X005129Y027315D01*
X005150Y027378D01*
X005160Y027444D01*
X005160Y027477D01*
X005160Y027510D01*
X005150Y027575D01*
X005129Y027638D01*
X005099Y027697D01*
X005060Y027750D01*
X005014Y027797D01*
X004960Y027836D01*
X004901Y027866D01*
X004838Y027886D01*
X004773Y027897D01*
X004500Y027897D01*
X004227Y027897D01*
X004162Y027886D01*
X004099Y027866D01*
X004040Y027836D01*
X003986Y027797D01*
X003940Y027750D01*
X003901Y027697D01*
X003871Y027638D01*
X003850Y027575D01*
X003840Y027510D01*
X003840Y027477D01*
X004500Y027477D01*
X004500Y027897D01*
X004500Y027477D01*
X004500Y027477D01*
X005160Y027477D01*
X004500Y027477D01*
X004500Y027477D01*
X004500Y027477D01*
X003840Y027477D01*
X003840Y027444D01*
X003850Y027378D01*
X003871Y027315D01*
X003901Y027256D01*
X003940Y027203D01*
X003986Y027156D01*
X004040Y027117D01*
X004099Y027087D01*
X004162Y027067D01*
X004227Y027057D01*
X004500Y027057D01*
X004773Y027057D01*
X004838Y027067D01*
X004901Y027087D01*
X004786Y027059D02*
X005455Y027059D01*
X005455Y027217D02*
X005071Y027217D01*
X005149Y027376D02*
X005455Y027376D01*
X005390Y027534D02*
X005156Y027534D01*
X005101Y027693D02*
X005231Y027693D01*
X005073Y027851D02*
X004930Y027851D01*
X004914Y028010D02*
X003730Y028010D01*
X003730Y028168D02*
X004003Y028168D01*
X003889Y028327D02*
X003730Y028327D01*
X003730Y028485D02*
X003860Y028485D01*
X003896Y028644D02*
X003730Y028644D01*
X003730Y028802D02*
X004020Y028802D01*
X003730Y028961D02*
X004380Y028961D01*
X004135Y029119D02*
X003730Y029119D01*
X003730Y029278D02*
X003976Y029278D01*
X003864Y029436D02*
X003730Y029436D01*
X003730Y029595D02*
X003783Y029595D01*
X003730Y029753D02*
X003731Y029753D01*
X003730Y027851D02*
X004070Y027851D01*
X003899Y027693D02*
X003730Y027693D01*
X003730Y027534D02*
X003844Y027534D01*
X003851Y027376D02*
X003730Y027376D01*
X003730Y027217D02*
X003929Y027217D01*
X003730Y027059D02*
X004214Y027059D01*
X004500Y027059D02*
X004500Y027059D01*
X004500Y027057D02*
X004500Y027477D01*
X004500Y027477D01*
X004500Y027057D01*
X004500Y027217D02*
X004500Y027217D01*
X004500Y027376D02*
X004500Y027376D01*
X004500Y027534D02*
X004500Y027534D01*
X004500Y027693D02*
X004500Y027693D01*
X004500Y027851D02*
X004500Y027851D01*
X003730Y026900D02*
X005455Y026900D01*
X003959Y026742D02*
X003730Y026742D01*
X003730Y026583D02*
X003871Y026583D01*
X003860Y026425D02*
X003730Y026425D01*
X003730Y026266D02*
X003914Y026266D01*
X003730Y026108D02*
X004106Y026108D01*
X003913Y025949D02*
X003730Y025949D01*
X003730Y025791D02*
X003754Y025791D01*
X003742Y025632D02*
X003730Y025632D01*
X003730Y025474D02*
X003742Y025474D01*
X003730Y025315D02*
X003873Y025315D01*
X003730Y025157D02*
X004314Y025157D01*
X004314Y024998D02*
X003730Y024998D01*
X003730Y024840D02*
X004314Y024840D01*
X004314Y024681D02*
X003730Y024681D01*
X003730Y024523D02*
X004314Y024523D01*
X004314Y024364D02*
X003730Y024364D01*
X003730Y024206D02*
X004314Y024206D01*
X004314Y024047D02*
X003730Y024047D01*
X003730Y023889D02*
X004314Y023889D01*
X004314Y023730D02*
X003730Y023730D01*
X003730Y023572D02*
X004314Y023572D01*
X004314Y023413D02*
X003730Y023413D01*
X003730Y023255D02*
X004314Y023255D01*
X004314Y023096D02*
X003730Y023096D01*
X003730Y022938D02*
X003901Y022938D01*
X003743Y022779D02*
X003730Y022779D01*
X003730Y022621D02*
X003742Y022621D01*
X003730Y022462D02*
X003742Y022462D01*
X003730Y022304D02*
X003885Y022304D01*
X003730Y022145D02*
X004440Y022145D01*
X004432Y022304D02*
X004399Y022304D01*
X004953Y021987D02*
X003730Y021987D01*
X003730Y021828D02*
X003901Y021828D01*
X003782Y021670D02*
X003730Y021670D01*
X003730Y021511D02*
X003740Y021511D01*
X003730Y021353D02*
X003753Y021353D01*
X003730Y021194D02*
X003832Y021194D01*
X003730Y021036D02*
X004063Y021036D01*
X004108Y020937D02*
X003939Y020867D01*
X003810Y020737D01*
X003740Y020568D01*
X003740Y020385D01*
X003810Y020216D01*
X003939Y020087D01*
X004108Y020017D01*
X004891Y020017D01*
X005061Y020087D01*
X005190Y020216D01*
X005260Y020385D01*
X005260Y020568D01*
X005190Y020737D01*
X005061Y020867D01*
X004891Y020937D01*
X004108Y020937D01*
X003965Y020877D02*
X003730Y020877D01*
X003730Y020719D02*
X003802Y020719D01*
X003740Y020560D02*
X003730Y020560D01*
X003730Y020402D02*
X003740Y020402D01*
X003730Y020243D02*
X003799Y020243D01*
X003730Y020085D02*
X003944Y020085D01*
X004083Y019926D02*
X003730Y019926D01*
X003730Y019768D02*
X003840Y019768D01*
X003810Y019737D02*
X003740Y019568D01*
X003740Y019385D01*
X003810Y019216D01*
X003939Y019087D01*
X004108Y019017D01*
X004891Y019017D01*
X005061Y019087D01*
X005190Y019216D01*
X005260Y019385D01*
X005260Y019568D01*
X005190Y019737D01*
X005061Y019867D01*
X004891Y019937D01*
X004108Y019937D01*
X003939Y019867D01*
X003810Y019737D01*
X003757Y019609D02*
X003730Y019609D01*
X003730Y019451D02*
X003740Y019451D01*
X003730Y019292D02*
X003779Y019292D01*
X003730Y019134D02*
X003892Y019134D01*
X003730Y018975D02*
X005298Y018975D01*
X005298Y018817D02*
X005111Y018817D01*
X005061Y018867D02*
X004891Y018937D01*
X004108Y018937D01*
X003939Y018867D01*
X003810Y018737D01*
X003740Y018568D01*
X003740Y018385D01*
X003810Y018216D01*
X003939Y018087D01*
X004108Y018017D01*
X004891Y018017D01*
X005061Y018087D01*
X005190Y018216D01*
X005260Y018385D01*
X005260Y018568D01*
X005190Y018737D01*
X005061Y018867D01*
X005223Y018658D02*
X005298Y018658D01*
X005298Y018500D02*
X005260Y018500D01*
X005242Y018341D02*
X005298Y018341D01*
X005298Y018183D02*
X005157Y018183D01*
X005298Y018024D02*
X004910Y018024D01*
X004912Y017945D02*
X004838Y017957D01*
X004520Y017957D01*
X004520Y017497D01*
X005280Y017497D01*
X005280Y017514D01*
X005268Y017589D01*
X005245Y017661D01*
X005211Y017728D01*
X005166Y017789D01*
X005113Y017843D01*
X005052Y017887D01*
X004984Y017921D01*
X004912Y017945D01*
X005081Y017866D02*
X005298Y017866D01*
X005298Y017707D02*
X005221Y017707D01*
X005275Y017549D02*
X005298Y017549D01*
X005280Y017457D02*
X004520Y017457D01*
X004520Y016997D01*
X004838Y016997D01*
X004912Y017008D01*
X004984Y017032D01*
X005052Y017066D01*
X005113Y017110D01*
X005166Y017164D01*
X005211Y017225D01*
X005245Y017292D01*
X005268Y017364D01*
X005280Y017439D01*
X005280Y017457D01*
X005272Y017390D02*
X005298Y017390D01*
X005298Y017232D02*
X005214Y017232D01*
X005298Y017073D02*
X005061Y017073D01*
X004984Y016921D02*
X004912Y016945D01*
X004838Y016957D01*
X004520Y016957D01*
X004520Y016497D01*
X005280Y016497D01*
X005280Y016514D01*
X005268Y016589D01*
X005245Y016661D01*
X005211Y016728D01*
X005166Y016789D01*
X005113Y016843D01*
X005052Y016887D01*
X004984Y016921D01*
X004998Y016915D02*
X005298Y016915D01*
X005298Y016756D02*
X005190Y016756D01*
X005265Y016598D02*
X005298Y016598D01*
X005280Y016457D02*
X004520Y016457D01*
X004520Y015997D01*
X004838Y015997D01*
X004912Y016008D01*
X004984Y016032D01*
X005052Y016066D01*
X005113Y016110D01*
X005166Y016164D01*
X005211Y016225D01*
X005245Y016292D01*
X005268Y016364D01*
X005280Y016439D01*
X005298Y016439D01*
X005280Y016439D02*
X005280Y016457D01*
X005298Y016281D02*
X005239Y016281D01*
X005298Y016122D02*
X005124Y016122D01*
X005385Y015964D02*
X003730Y015964D01*
X003730Y016122D02*
X003876Y016122D01*
X003761Y016281D02*
X003730Y016281D01*
X003730Y016598D02*
X003735Y016598D01*
X003730Y016756D02*
X003810Y016756D01*
X003730Y016915D02*
X004002Y016915D01*
X003939Y017073D02*
X003730Y017073D01*
X003730Y017232D02*
X003786Y017232D01*
X003779Y017707D02*
X003730Y017707D01*
X003730Y017866D02*
X003919Y017866D01*
X004090Y018024D02*
X003730Y018024D01*
X003730Y018183D02*
X003843Y018183D01*
X003758Y018341D02*
X003730Y018341D01*
X003730Y018500D02*
X003740Y018500D01*
X003730Y018658D02*
X003777Y018658D01*
X003730Y018817D02*
X003889Y018817D01*
X004480Y017866D02*
X004520Y017866D01*
X004520Y017707D02*
X004480Y017707D01*
X004480Y017549D02*
X004520Y017549D01*
X004520Y017390D02*
X004480Y017390D01*
X004480Y017232D02*
X004520Y017232D01*
X004520Y017073D02*
X004480Y017073D01*
X004480Y016915D02*
X004520Y016915D01*
X004520Y016756D02*
X004480Y016756D01*
X004480Y016598D02*
X004520Y016598D01*
X004520Y016439D02*
X004480Y016439D01*
X004480Y016281D02*
X004520Y016281D01*
X004520Y016122D02*
X004480Y016122D01*
X003730Y015805D02*
X005544Y015805D01*
X005702Y015647D02*
X003730Y015647D01*
X003730Y015488D02*
X005767Y015488D01*
X005778Y015330D02*
X003730Y015330D01*
X003730Y015171D02*
X004706Y015171D01*
X004659Y015160D02*
X004529Y015115D01*
X004404Y015055D01*
X004287Y014981D01*
X004179Y014895D01*
X004081Y014798D01*
X003995Y014690D01*
X003922Y014573D01*
X003862Y014448D01*
X003816Y014318D01*
X003785Y014183D01*
X003771Y014057D01*
X004920Y014057D01*
X004920Y015205D01*
X004794Y015191D01*
X004659Y015160D01*
X004920Y015171D02*
X005080Y015171D01*
X005080Y015205D02*
X005206Y015191D01*
X005341Y015160D01*
X005471Y015115D01*
X005596Y015055D01*
X005713Y014981D01*
X005821Y014895D01*
X005919Y014798D01*
X006005Y014690D01*
X006078Y014573D01*
X006138Y014448D01*
X006184Y014318D01*
X006215Y014183D01*
X006229Y014057D01*
X005080Y014057D01*
X004920Y014057D01*
X004920Y013897D01*
X003771Y013897D01*
X003785Y013770D01*
X003816Y013636D01*
X003862Y013505D01*
X003922Y013381D01*
X003995Y013264D01*
X004081Y013156D01*
X004179Y013058D01*
X004287Y012972D01*
X004404Y012898D01*
X004529Y012838D01*
X004659Y012793D01*
X004794Y012762D01*
X004920Y012748D01*
X004920Y013897D01*
X005080Y013897D01*
X005080Y014057D01*
X005080Y015205D01*
X005080Y015013D02*
X004920Y015013D01*
X004920Y014854D02*
X005080Y014854D01*
X005080Y014696D02*
X004920Y014696D01*
X004920Y014537D02*
X005080Y014537D01*
X005080Y014379D02*
X004920Y014379D01*
X004920Y014220D02*
X005080Y014220D01*
X005080Y014062D02*
X004920Y014062D01*
X004920Y013903D02*
X003730Y013903D01*
X003730Y013745D02*
X003791Y013745D01*
X003834Y013586D02*
X003730Y013586D01*
X003730Y013428D02*
X003899Y013428D01*
X003992Y013269D02*
X003730Y013269D01*
X003730Y013111D02*
X004127Y013111D01*
X004319Y012952D02*
X003730Y012952D01*
X003730Y012794D02*
X004657Y012794D01*
X004920Y012794D02*
X005080Y012794D01*
X005080Y012748D02*
X005206Y012762D01*
X005341Y012793D01*
X005471Y012838D01*
X005596Y012898D01*
X005713Y012972D01*
X005821Y013058D01*
X005919Y013156D01*
X006005Y013264D01*
X006078Y013381D01*
X006138Y013505D01*
X006184Y013636D01*
X006215Y013770D01*
X006229Y013897D01*
X005080Y013897D01*
X005080Y012748D01*
X005080Y012952D02*
X004920Y012952D01*
X004920Y013111D02*
X005080Y013111D01*
X005080Y013269D02*
X004920Y013269D01*
X004920Y013428D02*
X005080Y013428D01*
X005080Y013586D02*
X004920Y013586D01*
X004920Y013745D02*
X005080Y013745D01*
X005080Y013903D02*
X017936Y013903D01*
X017936Y013964D02*
X017936Y013813D01*
X017851Y013778D01*
X017702Y013629D01*
X017652Y013507D01*
X017601Y013629D01*
X017452Y013778D01*
X017257Y013859D01*
X017046Y013859D01*
X016851Y013778D01*
X016702Y013629D01*
X016652Y013507D01*
X016601Y013629D01*
X016452Y013778D01*
X016257Y013859D01*
X016046Y013859D01*
X015851Y013778D01*
X015702Y013629D01*
X015652Y013507D01*
X015601Y013629D01*
X015452Y013778D01*
X015257Y013859D01*
X015046Y013859D01*
X014851Y013778D01*
X014702Y013629D01*
X014652Y013507D01*
X014601Y013629D01*
X014452Y013778D01*
X014257Y013859D01*
X014046Y013859D01*
X013851Y013778D01*
X013702Y013629D01*
X013652Y013507D01*
X013601Y013629D01*
X013452Y013778D01*
X013257Y013859D01*
X013046Y013859D01*
X012851Y013778D01*
X012702Y013629D01*
X012652Y013507D01*
X012601Y013629D01*
X012452Y013778D01*
X012257Y013859D01*
X012046Y013859D01*
X011851Y013778D01*
X011702Y013629D01*
X011663Y013535D01*
X011661Y013540D01*
X011622Y013617D01*
X011571Y013687D01*
X011510Y013748D01*
X011440Y013799D01*
X011363Y013839D01*
X011280Y013865D01*
X011195Y013879D01*
X011172Y013879D01*
X011172Y013349D01*
X011132Y013349D01*
X011132Y013879D01*
X011108Y013879D01*
X011023Y013865D01*
X010940Y013839D01*
X010863Y013799D01*
X010793Y013748D01*
X010732Y013687D01*
X010681Y013617D01*
X010642Y013540D01*
X010640Y013535D01*
X010601Y013629D01*
X010452Y013778D01*
X010257Y013859D01*
X010046Y013859D01*
X009851Y013778D01*
X009702Y013629D01*
X009652Y013507D01*
X009601Y013629D01*
X009452Y013778D01*
X009257Y013859D01*
X009046Y013859D01*
X008851Y013778D01*
X008702Y013629D01*
X008673Y013559D01*
X008635Y013652D01*
X008474Y013812D01*
X008265Y013899D01*
X008038Y013899D01*
X007829Y013812D01*
X007702Y013685D01*
X007702Y013723D01*
X007689Y013768D01*
X007666Y013809D01*
X007632Y013843D01*
X007591Y013867D01*
X007545Y013879D01*
X007172Y013879D01*
X007172Y013349D01*
X007132Y013349D01*
X007132Y013879D01*
X006758Y013879D01*
X006712Y013867D01*
X006671Y013843D01*
X006638Y013809D01*
X006614Y013768D01*
X006602Y013723D01*
X006602Y013349D01*
X007132Y013349D01*
X007132Y013309D01*
X007172Y013309D01*
X007172Y012779D01*
X007545Y012779D01*
X007591Y012791D01*
X007632Y012815D01*
X007666Y012848D01*
X007689Y012889D01*
X007702Y012935D01*
X007702Y012973D01*
X007829Y012846D01*
X008038Y012759D01*
X008265Y012759D01*
X008474Y012846D01*
X008635Y013006D01*
X008673Y013099D01*
X008702Y013029D01*
X008851Y012880D01*
X009046Y012799D01*
X009257Y012799D01*
X009452Y012880D01*
X009601Y013029D01*
X009652Y013151D01*
X009702Y013029D01*
X009851Y012880D01*
X010046Y012799D01*
X010257Y012799D01*
X010452Y012880D01*
X010601Y013029D01*
X010640Y013123D01*
X010642Y013118D01*
X010681Y013041D01*
X010732Y012971D01*
X010793Y012909D01*
X010863Y012859D01*
X010940Y012819D01*
X011023Y012793D01*
X011108Y012779D01*
X011132Y012779D01*
X011132Y013309D01*
X011172Y013309D01*
X011172Y012779D01*
X011195Y012779D01*
X011280Y012793D01*
X011363Y012819D01*
X011440Y012859D01*
X011510Y012909D01*
X011571Y012971D01*
X011622Y013041D01*
X011661Y013118D01*
X011663Y013123D01*
X011702Y013029D01*
X011851Y012880D01*
X012046Y012799D01*
X012257Y012799D01*
X012452Y012880D01*
X012601Y013029D01*
X012652Y013151D01*
X012702Y013029D01*
X012851Y012880D01*
X013046Y012799D01*
X013257Y012799D01*
X013452Y012880D01*
X013601Y013029D01*
X013652Y013151D01*
X013702Y013029D01*
X013851Y012880D01*
X014046Y012799D01*
X014257Y012799D01*
X014452Y012880D01*
X014601Y013029D01*
X014652Y013151D01*
X014702Y013029D01*
X014851Y012880D01*
X015046Y012799D01*
X015257Y012799D01*
X015452Y012880D01*
X015601Y013029D01*
X015652Y013151D01*
X015702Y013029D01*
X015851Y012880D01*
X016046Y012799D01*
X016257Y012799D01*
X016452Y012880D01*
X016601Y013029D01*
X016652Y013151D01*
X016702Y013029D01*
X016851Y012880D01*
X017046Y012799D01*
X017257Y012799D01*
X017452Y012880D01*
X017601Y013029D01*
X017652Y013151D01*
X017702Y013029D01*
X017851Y012880D01*
X018046Y012799D01*
X018257Y012799D01*
X018452Y012880D01*
X018601Y013029D01*
X018652Y013151D01*
X018702Y013029D01*
X018851Y012880D01*
X019046Y012799D01*
X019257Y012799D01*
X019452Y012880D01*
X019601Y013029D01*
X019652Y013151D01*
X019702Y013029D01*
X019851Y012880D01*
X020046Y012799D01*
X020257Y012799D01*
X020452Y012880D01*
X020601Y013029D01*
X020652Y013151D01*
X020702Y013029D01*
X020851Y012880D01*
X021046Y012799D01*
X021257Y012799D01*
X021452Y012880D01*
X021601Y013029D01*
X021640Y013123D01*
X021642Y013118D01*
X021681Y013041D01*
X021732Y012971D01*
X021793Y012909D01*
X021863Y012859D01*
X021940Y012819D01*
X022023Y012793D01*
X022108Y012779D01*
X022132Y012779D01*
X022132Y013309D01*
X022172Y013309D01*
X022172Y013349D01*
X022702Y013349D01*
X022702Y013372D01*
X022688Y013458D01*
X022661Y013540D01*
X022622Y013617D01*
X022571Y013687D01*
X022510Y013748D01*
X022440Y013799D01*
X022363Y013839D01*
X022303Y013858D01*
X022323Y013858D01*
X022557Y014092D01*
X022557Y014424D01*
X022323Y014658D01*
X021992Y014658D01*
X021757Y014424D01*
X021757Y014092D01*
X021992Y013858D01*
X022000Y013858D01*
X021940Y013839D01*
X021863Y013799D01*
X021793Y013748D01*
X021732Y013687D01*
X021681Y013617D01*
X021642Y013540D01*
X021640Y013535D01*
X021601Y013629D01*
X021452Y013778D01*
X021257Y013859D01*
X021046Y013859D01*
X020851Y013778D01*
X020702Y013629D01*
X020652Y013507D01*
X020601Y013629D01*
X020452Y013778D01*
X020285Y013847D01*
X020285Y014333D01*
X020327Y014291D01*
X020474Y014230D01*
X020633Y014230D01*
X020780Y014291D01*
X020892Y014404D01*
X020953Y014551D01*
X020953Y015190D01*
X020892Y015337D01*
X020780Y015449D01*
X020633Y015510D01*
X020474Y015510D01*
X020327Y015449D01*
X020214Y015337D01*
X020153Y015190D01*
X020153Y014551D01*
X020157Y014542D01*
X019953Y014746D01*
X019953Y015190D01*
X019892Y015337D01*
X019780Y015449D01*
X019633Y015510D01*
X019474Y015510D01*
X019327Y015449D01*
X019214Y015337D01*
X019153Y015190D01*
X019153Y014551D01*
X019214Y014404D01*
X019327Y014291D01*
X019474Y014230D01*
X019633Y014230D01*
X019780Y014291D01*
X019797Y014308D01*
X019865Y014240D01*
X019865Y013784D01*
X019851Y013778D01*
X019702Y013629D01*
X019652Y013507D01*
X019601Y013629D01*
X019452Y013778D01*
X019340Y013825D01*
X019340Y014138D01*
X019217Y014261D01*
X018946Y014532D01*
X018946Y014534D01*
X018953Y014551D01*
X018953Y015190D01*
X018892Y015337D01*
X018780Y015449D01*
X018633Y015510D01*
X018474Y015510D01*
X018327Y015449D01*
X018214Y015337D01*
X018153Y015190D01*
X018153Y014551D01*
X018214Y014404D01*
X018327Y014291D01*
X018474Y014230D01*
X018633Y014230D01*
X018648Y014237D01*
X018920Y013964D01*
X018920Y013807D01*
X018851Y013778D01*
X018702Y013629D01*
X018652Y013507D01*
X018601Y013629D01*
X018452Y013778D01*
X018356Y013818D01*
X018356Y014138D01*
X018233Y014261D01*
X017950Y014544D01*
X017953Y014551D01*
X017953Y015190D01*
X017892Y015337D01*
X017780Y015449D01*
X017633Y015510D01*
X017474Y015510D01*
X017327Y015449D01*
X017214Y015337D01*
X017153Y015190D01*
X017153Y014551D01*
X017214Y014404D01*
X017327Y014291D01*
X017474Y014230D01*
X017633Y014230D01*
X017659Y014241D01*
X017936Y013964D01*
X017838Y014062D02*
X006228Y014062D01*
X006206Y014220D02*
X013394Y014220D01*
X013466Y014190D02*
X013641Y014190D01*
X013802Y014257D01*
X013926Y014381D01*
X013993Y014543D01*
X013993Y015198D01*
X013926Y015360D01*
X013802Y015483D01*
X013641Y015550D01*
X013466Y015550D01*
X013304Y015483D01*
X013180Y015360D01*
X013113Y015198D01*
X013113Y014543D01*
X013180Y014381D01*
X013304Y014257D01*
X013466Y014190D01*
X013713Y014220D02*
X014458Y014220D01*
X014455Y014221D02*
X014520Y014210D01*
X014553Y014210D01*
X014553Y014870D01*
X014553Y014870D01*
X014133Y014870D01*
X014133Y014597D01*
X014143Y014532D01*
X014164Y014469D01*
X014194Y014410D01*
X014233Y014357D01*
X014280Y014310D01*
X014333Y014271D01*
X014392Y014241D01*
X014455Y014221D01*
X014553Y014220D02*
X014553Y014220D01*
X014553Y014210D02*
X014586Y014210D01*
X014651Y014221D01*
X014714Y014241D01*
X014773Y014271D01*
X014827Y014310D01*
X014874Y014357D01*
X014912Y014410D01*
X014942Y014469D01*
X014963Y014532D01*
X014973Y014597D01*
X014973Y014870D01*
X014553Y014870D01*
X014553Y014870D01*
X014553Y014210D01*
X014648Y014220D02*
X017680Y014220D01*
X017957Y014537D02*
X018159Y014537D01*
X018153Y014696D02*
X017953Y014696D01*
X017953Y014854D02*
X018153Y014854D01*
X018153Y015013D02*
X017953Y015013D01*
X017953Y015171D02*
X018153Y015171D01*
X018211Y015330D02*
X017895Y015330D01*
X017686Y015488D02*
X018420Y015488D01*
X018686Y015488D02*
X019420Y015488D01*
X019211Y015330D02*
X018895Y015330D01*
X018953Y015171D02*
X019153Y015171D01*
X019153Y015013D02*
X018953Y015013D01*
X018953Y014854D02*
X019153Y014854D01*
X019153Y014696D02*
X018953Y014696D01*
X018948Y014537D02*
X019159Y014537D01*
X019100Y014379D02*
X019239Y014379D01*
X019258Y014220D02*
X019865Y014220D01*
X019865Y014062D02*
X019340Y014062D01*
X019340Y013903D02*
X019865Y013903D01*
X019818Y013745D02*
X019485Y013745D01*
X019619Y013586D02*
X019684Y013586D01*
X020285Y013903D02*
X021947Y013903D01*
X021789Y013745D02*
X021485Y013745D01*
X021619Y013586D02*
X021665Y013586D01*
X021788Y014062D02*
X020285Y014062D01*
X020285Y014220D02*
X021757Y014220D01*
X021757Y014379D02*
X020867Y014379D01*
X020948Y014537D02*
X021871Y014537D01*
X022444Y014537D02*
X022763Y014537D01*
X022763Y014379D02*
X022557Y014379D01*
X022557Y014220D02*
X022763Y014220D01*
X022763Y014062D02*
X022527Y014062D01*
X022368Y013903D02*
X022763Y013903D01*
X022763Y013745D02*
X022514Y013745D01*
X022638Y013586D02*
X022763Y013586D01*
X022763Y013428D02*
X022693Y013428D01*
X022702Y013309D02*
X022172Y013309D01*
X022172Y012779D01*
X022195Y012779D01*
X022280Y012793D01*
X022363Y012819D01*
X022440Y012859D01*
X022510Y012909D01*
X022571Y012971D01*
X022622Y013041D01*
X022661Y013118D01*
X022688Y013200D01*
X022702Y013286D01*
X022702Y013309D01*
X022699Y013269D02*
X022762Y013269D01*
X022762Y013111D02*
X022658Y013111D01*
X022762Y012952D02*
X022553Y012952D01*
X022762Y012794D02*
X022284Y012794D01*
X022172Y012794D02*
X022132Y012794D01*
X022019Y012794D02*
X011284Y012794D01*
X011172Y012794D02*
X011132Y012794D01*
X011019Y012794D02*
X008349Y012794D01*
X008581Y012952D02*
X008779Y012952D01*
X008684Y013586D02*
X008662Y013586D01*
X008542Y013745D02*
X008818Y013745D01*
X008867Y014379D02*
X009239Y014379D01*
X009159Y014537D02*
X008948Y014537D01*
X008953Y014696D02*
X009153Y014696D01*
X009153Y014854D02*
X008953Y014854D01*
X008953Y015013D02*
X009153Y015013D01*
X009131Y015171D02*
X008953Y015171D01*
X008972Y015330D02*
X008895Y015330D01*
X008814Y015488D02*
X008686Y015488D01*
X008655Y015647D02*
X008225Y015647D01*
X008067Y015805D02*
X008497Y015805D01*
X008338Y015964D02*
X007908Y015964D01*
X007750Y016122D02*
X008180Y016122D01*
X008021Y016281D02*
X007591Y016281D01*
X007433Y016439D02*
X007863Y016439D01*
X007704Y016598D02*
X007274Y016598D01*
X006997Y016281D02*
X006686Y016281D01*
X006567Y016399D02*
X006567Y016672D01*
X006333Y016906D01*
X006002Y016906D01*
X005767Y016672D01*
X005767Y016340D01*
X006002Y016106D01*
X006266Y016106D01*
X007162Y015211D01*
X007153Y015190D01*
X007153Y014551D01*
X007214Y014404D01*
X007327Y014291D01*
X007474Y014230D01*
X007633Y014230D01*
X007780Y014291D01*
X007892Y014404D01*
X007953Y014551D01*
X007953Y015190D01*
X007892Y015337D01*
X007780Y015449D01*
X007633Y015510D01*
X007474Y015510D01*
X007461Y015505D01*
X006567Y016399D01*
X006567Y016439D02*
X006839Y016439D01*
X006680Y016598D02*
X006567Y016598D01*
X006522Y016756D02*
X006483Y016756D01*
X006363Y016915D02*
X005718Y016915D01*
X005718Y017073D02*
X006205Y017073D01*
X006046Y017232D02*
X005718Y017232D01*
X005718Y017390D02*
X005888Y017390D01*
X005729Y017549D02*
X005718Y017549D01*
X005718Y016756D02*
X005852Y016756D01*
X005767Y016598D02*
X005718Y016598D01*
X005718Y016439D02*
X005767Y016439D01*
X005718Y016281D02*
X005827Y016281D01*
X005821Y016122D02*
X005986Y016122D01*
X005979Y015964D02*
X006409Y015964D01*
X006434Y015805D02*
X006567Y015805D01*
X006567Y015647D02*
X006726Y015647D01*
X006567Y015488D02*
X006884Y015488D01*
X007043Y015330D02*
X006556Y015330D01*
X006398Y015171D02*
X007153Y015171D01*
X007153Y015013D02*
X005663Y015013D01*
X005862Y014854D02*
X007153Y014854D01*
X007153Y014696D02*
X006000Y014696D01*
X006095Y014537D02*
X007159Y014537D01*
X007239Y014379D02*
X006162Y014379D01*
X006209Y013745D02*
X006607Y013745D01*
X006602Y013586D02*
X006166Y013586D01*
X006101Y013428D02*
X006602Y013428D01*
X006602Y013309D02*
X006602Y012935D01*
X006614Y012889D01*
X006638Y012848D01*
X006671Y012815D01*
X006712Y012791D01*
X006758Y012779D01*
X007132Y012779D01*
X007132Y013309D01*
X006602Y013309D01*
X006602Y013269D02*
X006008Y013269D01*
X005873Y013111D02*
X006602Y013111D01*
X006602Y012952D02*
X005681Y012952D01*
X005343Y012794D02*
X006708Y012794D01*
X007132Y012794D02*
X007172Y012794D01*
X007172Y012952D02*
X007132Y012952D01*
X007132Y013111D02*
X007172Y013111D01*
X007172Y013269D02*
X007132Y013269D01*
X007132Y013428D02*
X007172Y013428D01*
X007172Y013586D02*
X007132Y013586D01*
X007132Y013745D02*
X007172Y013745D01*
X007696Y013745D02*
X007761Y013745D01*
X007867Y014379D02*
X008239Y014379D01*
X008159Y014537D02*
X007948Y014537D01*
X007953Y014696D02*
X008153Y014696D01*
X008153Y014854D02*
X007953Y014854D01*
X007953Y015013D02*
X008153Y015013D01*
X008107Y015171D02*
X007953Y015171D01*
X007948Y015330D02*
X007895Y015330D01*
X007790Y015488D02*
X007686Y015488D01*
X007631Y015647D02*
X007320Y015647D01*
X007473Y015805D02*
X007161Y015805D01*
X007314Y015964D02*
X007003Y015964D01*
X007156Y016122D02*
X006844Y016122D01*
X007096Y017232D02*
X007470Y017232D01*
X007636Y017232D02*
X008470Y017232D01*
X008636Y017232D02*
X009470Y017232D01*
X009636Y017232D02*
X010470Y017232D01*
X010636Y017232D02*
X010731Y017232D01*
X010731Y017073D02*
X007823Y017073D01*
X007981Y016915D02*
X010731Y016915D01*
X010731Y016756D02*
X008140Y016756D01*
X008298Y016598D02*
X010731Y016598D01*
X010731Y016439D02*
X008457Y016439D01*
X008615Y016281D02*
X010731Y016281D01*
X010731Y016122D02*
X008774Y016122D01*
X008932Y015964D02*
X010731Y015964D01*
X010731Y015805D02*
X009091Y015805D01*
X009249Y015647D02*
X010731Y015647D01*
X010420Y015488D02*
X009686Y015488D01*
X009895Y015330D02*
X010211Y015330D01*
X010153Y015171D02*
X009953Y015171D01*
X009953Y015013D02*
X010153Y015013D01*
X010153Y014854D02*
X009953Y014854D01*
X009953Y014696D02*
X010153Y014696D01*
X010159Y014537D02*
X009948Y014537D01*
X009867Y014379D02*
X010239Y014379D01*
X010867Y014379D02*
X011239Y014379D01*
X011214Y014404D02*
X011327Y014291D01*
X011474Y014230D01*
X011633Y014230D01*
X011780Y014291D01*
X011892Y014404D01*
X011953Y014551D01*
X011953Y015190D01*
X011892Y015337D01*
X011780Y015449D01*
X011633Y015510D01*
X011474Y015510D01*
X011327Y015449D01*
X011214Y015337D01*
X011153Y015190D01*
X011153Y014551D01*
X011214Y014404D01*
X011159Y014537D02*
X010948Y014537D01*
X010953Y014696D02*
X011153Y014696D01*
X011153Y014854D02*
X010953Y014854D01*
X010953Y015013D02*
X011153Y015013D01*
X011153Y015171D02*
X010953Y015171D01*
X011059Y015330D02*
X011211Y015330D01*
X011151Y015488D02*
X011420Y015488D01*
X011686Y015488D02*
X012420Y015488D01*
X012474Y015510D02*
X012327Y015449D01*
X012214Y015337D01*
X012153Y015190D01*
X012153Y014551D01*
X012214Y014404D01*
X012327Y014291D01*
X012474Y014230D01*
X012633Y014230D01*
X012780Y014291D01*
X012892Y014404D01*
X012953Y014551D01*
X012953Y015190D01*
X012892Y015337D01*
X012780Y015449D01*
X012633Y015510D01*
X012474Y015510D01*
X012686Y015488D02*
X013315Y015488D01*
X013168Y015330D02*
X012895Y015330D01*
X012953Y015171D02*
X013113Y015171D01*
X013113Y015013D02*
X012953Y015013D01*
X012953Y014854D02*
X013113Y014854D01*
X013113Y014696D02*
X012953Y014696D01*
X012948Y014537D02*
X013115Y014537D01*
X013183Y014379D02*
X012867Y014379D01*
X012239Y014379D02*
X011867Y014379D01*
X011948Y014537D02*
X012159Y014537D01*
X012153Y014696D02*
X011953Y014696D01*
X011953Y014854D02*
X012153Y014854D01*
X012153Y015013D02*
X011953Y015013D01*
X011953Y015171D02*
X012153Y015171D01*
X012211Y015330D02*
X011895Y015330D01*
X011151Y015647D02*
X014904Y015647D01*
X014904Y015805D02*
X011151Y015805D01*
X011151Y015964D02*
X014904Y015964D01*
X014904Y016122D02*
X011284Y016122D01*
X011481Y016281D02*
X014904Y016281D01*
X014904Y016439D02*
X011539Y016439D01*
X011698Y016598D02*
X014904Y016598D01*
X014904Y016756D02*
X011856Y016756D01*
X012015Y016915D02*
X014904Y016915D01*
X014904Y017073D02*
X012173Y017073D01*
X012332Y017232D02*
X012470Y017232D01*
X012636Y017232D02*
X013421Y017232D01*
X013392Y017241D02*
X013455Y017221D01*
X013520Y017210D01*
X013553Y017210D01*
X013553Y017870D01*
X013553Y017870D01*
X013133Y017870D01*
X013133Y017597D01*
X013143Y017532D01*
X013164Y017469D01*
X013194Y017410D01*
X013233Y017357D01*
X013280Y017310D01*
X013333Y017271D01*
X013392Y017241D01*
X013553Y017232D02*
X013553Y017232D01*
X013553Y017210D02*
X013586Y017210D01*
X013651Y017221D01*
X013714Y017241D01*
X013773Y017271D01*
X013827Y017310D01*
X013874Y017357D01*
X013912Y017410D01*
X013942Y017469D01*
X013963Y017532D01*
X013973Y017597D01*
X013973Y017870D01*
X013553Y017870D01*
X013553Y017870D01*
X013553Y017210D01*
X013685Y017232D02*
X014366Y017232D01*
X014176Y017390D02*
X013898Y017390D01*
X013965Y017549D02*
X014113Y017549D01*
X014113Y017707D02*
X013973Y017707D01*
X013973Y017866D02*
X014113Y017866D01*
X013973Y017870D02*
X013973Y018143D01*
X013963Y018209D01*
X013942Y018272D01*
X013912Y018330D01*
X013874Y018384D01*
X013827Y018431D01*
X013773Y018470D01*
X013714Y018500D01*
X014343Y018500D01*
X014173Y018341D02*
X013905Y018341D01*
X013967Y018183D02*
X014113Y018183D01*
X014113Y018024D02*
X013973Y018024D01*
X013973Y017870D02*
X013553Y017870D01*
X013553Y017870D01*
X013133Y017870D01*
X013133Y018143D01*
X013143Y018209D01*
X013164Y018272D01*
X013194Y018330D01*
X013233Y018384D01*
X013280Y018431D01*
X013333Y018470D01*
X013392Y018500D01*
X012694Y018500D01*
X012853Y018658D02*
X014659Y018658D01*
X014763Y018500D02*
X014818Y018500D01*
X015095Y018817D02*
X017060Y018817D01*
X017120Y018756D02*
X016797Y018432D01*
X016780Y018449D01*
X016633Y018510D01*
X016474Y018510D01*
X016327Y018449D01*
X016214Y018337D01*
X016153Y018190D01*
X016153Y017551D01*
X016214Y017404D01*
X016327Y017291D01*
X016474Y017230D01*
X016633Y017230D01*
X016715Y017264D01*
X016715Y015556D01*
X016659Y015499D01*
X016633Y015510D01*
X016474Y015510D01*
X016327Y015449D01*
X016214Y015337D01*
X016153Y015190D01*
X016153Y014551D01*
X016214Y014404D01*
X016327Y014291D01*
X016474Y014230D01*
X016633Y014230D01*
X016780Y014291D01*
X016892Y014404D01*
X016953Y014551D01*
X016953Y015190D01*
X016950Y015197D01*
X017012Y015259D01*
X017135Y015382D01*
X017135Y018177D01*
X017157Y018199D01*
X017153Y018190D01*
X017153Y017551D01*
X017214Y017404D01*
X017327Y017291D01*
X017474Y017230D01*
X017633Y017230D01*
X017780Y017291D01*
X017892Y017404D01*
X017953Y017551D01*
X017953Y018190D01*
X017892Y018337D01*
X017780Y018449D01*
X017633Y018510D01*
X017474Y018510D01*
X017465Y018507D01*
X017504Y018546D01*
X017627Y018669D01*
X017878Y018920D01*
X017881Y018923D01*
X017989Y018923D01*
X018223Y019157D01*
X018223Y019489D01*
X017989Y019723D01*
X017657Y019723D01*
X017423Y019489D01*
X017423Y019157D01*
X017472Y019108D01*
X017417Y019053D01*
X016342Y020128D01*
X016350Y020147D01*
X016350Y020306D01*
X016289Y020453D01*
X016177Y020566D01*
X016030Y020627D01*
X015870Y020627D01*
X015723Y020566D01*
X015611Y020453D01*
X015550Y020306D01*
X015550Y020147D01*
X015611Y020000D01*
X015723Y019888D01*
X015870Y019827D01*
X016030Y019827D01*
X016044Y019833D01*
X017120Y018756D01*
X017022Y018658D02*
X015253Y018658D01*
X015324Y018500D02*
X015343Y018500D01*
X015763Y018500D02*
X016448Y018500D01*
X016659Y018500D02*
X016864Y018500D01*
X017141Y018183D02*
X017153Y018183D01*
X017153Y018024D02*
X017135Y018024D01*
X017135Y017866D02*
X017153Y017866D01*
X017153Y017707D02*
X017135Y017707D01*
X017135Y017549D02*
X017154Y017549D01*
X017135Y017390D02*
X017228Y017390D01*
X017135Y017232D02*
X017470Y017232D01*
X017636Y017232D02*
X018470Y017232D01*
X018636Y017232D02*
X018724Y017232D01*
X018882Y017073D02*
X017135Y017073D01*
X017135Y016915D02*
X019041Y016915D01*
X019318Y017232D02*
X019470Y017232D01*
X019636Y017232D02*
X020470Y017232D01*
X020636Y017232D02*
X021007Y017232D01*
X021007Y017390D02*
X020879Y017390D01*
X020952Y017549D02*
X021007Y017549D01*
X021007Y017707D02*
X020953Y017707D01*
X020953Y017866D02*
X021033Y017866D01*
X020953Y018024D02*
X021125Y018024D01*
X021125Y018183D02*
X020953Y018183D01*
X020888Y018341D02*
X021125Y018341D01*
X021125Y018500D02*
X020659Y018500D01*
X020293Y018658D02*
X021196Y018658D01*
X021354Y018817D02*
X020134Y018817D01*
X019976Y018975D02*
X021371Y018975D01*
X021371Y019134D02*
X019817Y019134D01*
X019659Y019292D02*
X021371Y019292D01*
X021371Y019451D02*
X019500Y019451D01*
X019342Y019609D02*
X021458Y019609D01*
X021374Y019768D02*
X019228Y019768D01*
X019145Y019926D02*
X021351Y019926D01*
X021351Y020085D02*
X018671Y020085D01*
X018671Y020243D02*
X021351Y020243D01*
X021351Y020402D02*
X018693Y020402D01*
X018756Y020560D02*
X021384Y020560D01*
X021811Y021086D02*
X021881Y021036D01*
X019898Y021036D01*
X019968Y021086D01*
X020029Y021148D01*
X020080Y021218D01*
X020119Y021295D01*
X020146Y021377D01*
X020160Y021463D01*
X020160Y021486D01*
X019630Y021486D01*
X019630Y021526D01*
X020160Y021526D01*
X020160Y021549D01*
X020146Y021635D01*
X020119Y021717D01*
X020080Y021794D01*
X020029Y021864D01*
X019968Y021925D01*
X019898Y021976D01*
X019821Y022016D01*
X019739Y022042D01*
X019653Y022056D01*
X019630Y022056D01*
X019630Y021526D01*
X019590Y021526D01*
X019590Y022056D01*
X019566Y022056D01*
X019481Y022042D01*
X019399Y022016D01*
X019321Y021976D01*
X019251Y021925D01*
X019190Y021864D01*
X019139Y021794D01*
X019100Y021717D01*
X019073Y021635D01*
X019060Y021549D01*
X019060Y021526D01*
X019590Y021526D01*
X019590Y021486D01*
X019630Y021486D01*
X019630Y020956D01*
X019653Y020956D01*
X019739Y020969D01*
X019821Y020996D01*
X019898Y021036D01*
X020063Y021194D02*
X021716Y021194D01*
X021699Y021218D02*
X021750Y021148D01*
X021811Y021086D01*
X021881Y021036D02*
X021959Y020996D01*
X022041Y020969D01*
X022126Y020956D01*
X022150Y020956D01*
X022150Y021486D01*
X022190Y021486D01*
X022190Y021526D01*
X022720Y021526D01*
X022720Y021549D01*
X022706Y021635D01*
X022679Y021717D01*
X022640Y021794D01*
X022589Y021864D01*
X022528Y021925D01*
X022458Y021976D01*
X022381Y022016D01*
X022299Y022042D01*
X022213Y022056D01*
X022190Y022056D01*
X022190Y021526D01*
X022150Y021526D01*
X022150Y022056D01*
X022126Y022056D01*
X022041Y022042D01*
X021959Y022016D01*
X021881Y021976D01*
X021811Y021925D01*
X021750Y021864D01*
X021699Y021794D01*
X021660Y021717D01*
X021633Y021635D01*
X021620Y021549D01*
X021620Y021526D01*
X022150Y021526D01*
X022150Y021486D01*
X021620Y021486D01*
X021620Y021463D01*
X021633Y021377D01*
X021660Y021295D01*
X021699Y021218D01*
X021641Y021353D02*
X020138Y021353D01*
X020135Y021670D02*
X021645Y021670D01*
X021724Y021828D02*
X020055Y021828D01*
X019878Y021987D02*
X021902Y021987D01*
X022150Y021987D02*
X022190Y021987D01*
X022190Y021828D02*
X022150Y021828D01*
X022150Y021670D02*
X022190Y021670D01*
X022190Y021511D02*
X022766Y021511D01*
X022720Y021486D02*
X022190Y021486D01*
X022190Y020956D01*
X022213Y020956D01*
X022299Y020969D01*
X022381Y020996D01*
X022458Y021036D01*
X022766Y021036D01*
X022766Y021194D02*
X022623Y021194D01*
X022640Y021218D02*
X022679Y021295D01*
X022706Y021377D01*
X022720Y021463D01*
X022720Y021486D01*
X022698Y021353D02*
X022766Y021353D01*
X022640Y021218D02*
X022589Y021148D01*
X022528Y021086D01*
X022458Y021036D01*
X022190Y021036D02*
X022150Y021036D01*
X022150Y021194D02*
X022190Y021194D01*
X022190Y021353D02*
X022150Y021353D01*
X022150Y021511D02*
X019630Y021511D01*
X019590Y021511D02*
X018225Y021511D01*
X018067Y021353D02*
X019081Y021353D01*
X019073Y021377D02*
X019100Y021295D01*
X019139Y021218D01*
X019190Y021148D01*
X019251Y021086D01*
X019321Y021036D01*
X017750Y021036D01*
X017726Y020877D02*
X018391Y020877D01*
X018531Y020877D02*
X022766Y020877D01*
X022766Y020719D02*
X018725Y020719D01*
X018196Y020719D02*
X018021Y020719D01*
X017823Y020719D02*
X017823Y020719D01*
X017823Y020560D02*
X017823Y020560D01*
X017823Y020402D02*
X017823Y020402D01*
X017823Y020243D02*
X017823Y020243D01*
X017823Y020085D02*
X017823Y020085D01*
X017823Y019926D02*
X017823Y019926D01*
X018020Y019926D02*
X018251Y019926D01*
X018251Y019768D02*
X016703Y019768D01*
X016544Y019926D02*
X017626Y019926D01*
X017467Y020085D02*
X016386Y020085D01*
X016350Y020243D02*
X017403Y020243D01*
X017403Y020402D02*
X016310Y020402D01*
X016182Y020560D02*
X017466Y020560D01*
X017908Y021194D02*
X019156Y021194D01*
X019073Y021377D02*
X019060Y021463D01*
X019060Y021486D01*
X019590Y021486D01*
X019590Y020956D01*
X019566Y020956D01*
X019481Y020969D01*
X019399Y020996D01*
X019321Y021036D01*
X019590Y021036D02*
X019630Y021036D01*
X019630Y021194D02*
X019590Y021194D01*
X019590Y021353D02*
X019630Y021353D01*
X019630Y021670D02*
X019590Y021670D01*
X019590Y021828D02*
X019630Y021828D01*
X019630Y021987D02*
X019590Y021987D01*
X019342Y021987D02*
X018701Y021987D01*
X018859Y022145D02*
X022766Y022145D01*
X022766Y021987D02*
X022438Y021987D01*
X022615Y021828D02*
X022766Y021828D01*
X022766Y021670D02*
X022695Y021670D01*
X022766Y022304D02*
X019018Y022304D01*
X019176Y022462D02*
X022766Y022462D01*
X022766Y022621D02*
X019335Y022621D01*
X019058Y022938D02*
X017453Y022938D01*
X017443Y022779D02*
X018899Y022779D01*
X018741Y022621D02*
X017371Y022621D01*
X017371Y022462D02*
X018582Y022462D01*
X018424Y022304D02*
X017371Y022304D01*
X017371Y022145D02*
X018265Y022145D01*
X018107Y021987D02*
X017371Y021987D01*
X017371Y021828D02*
X017948Y021828D01*
X017790Y021670D02*
X017371Y021670D01*
X017371Y021511D02*
X017631Y021511D01*
X017473Y021353D02*
X017371Y021353D01*
X016951Y021353D02*
X016618Y021353D01*
X016580Y021337D02*
X016727Y021398D01*
X016839Y021510D01*
X016900Y021657D01*
X016900Y022296D01*
X016839Y022443D01*
X016727Y022556D01*
X016580Y022617D01*
X016420Y022617D01*
X016273Y022556D01*
X016255Y022538D01*
X016151Y022642D01*
X016151Y023194D01*
X015895Y023449D01*
X015979Y023533D01*
X015979Y023889D01*
X015727Y024141D01*
X015371Y024141D01*
X015119Y023889D01*
X015119Y023533D01*
X015371Y023281D01*
X015470Y023281D01*
X015500Y023251D01*
X015731Y023020D01*
X015731Y022551D01*
X015727Y022556D01*
X015580Y022617D01*
X015420Y022617D01*
X015398Y022607D01*
X014734Y023272D01*
X014734Y023287D01*
X014979Y023533D01*
X014979Y023889D01*
X014727Y024141D01*
X014371Y024141D01*
X014119Y023889D01*
X014119Y023533D01*
X014314Y023338D01*
X014314Y023098D01*
X014437Y022975D01*
X015101Y022311D01*
X015101Y022299D01*
X015100Y022296D01*
X015100Y021657D01*
X015161Y021510D01*
X015273Y021398D01*
X015420Y021337D01*
X015580Y021337D01*
X015727Y021398D01*
X015839Y021510D01*
X015900Y021657D01*
X015900Y022296D01*
X015898Y022302D01*
X016100Y022099D01*
X016100Y021657D01*
X016161Y021510D01*
X016273Y021398D01*
X016420Y021337D01*
X016580Y021337D01*
X016382Y021353D02*
X015618Y021353D01*
X015382Y021353D02*
X014618Y021353D01*
X014580Y021337D02*
X014727Y021398D01*
X014839Y021510D01*
X014900Y021657D01*
X014900Y022296D01*
X014839Y022443D01*
X014727Y022556D01*
X014580Y022617D01*
X014420Y022617D01*
X014273Y022556D01*
X014161Y022443D01*
X014100Y022296D01*
X014100Y021657D01*
X014161Y021510D01*
X014273Y021398D01*
X014420Y021337D01*
X014580Y021337D01*
X014382Y021353D02*
X013618Y021353D01*
X013580Y021337D02*
X013727Y021398D01*
X013839Y021510D01*
X013900Y021657D01*
X013900Y022296D01*
X013839Y022443D01*
X013727Y022556D01*
X013580Y022617D01*
X013420Y022617D01*
X013393Y022605D01*
X012726Y023272D01*
X012726Y023281D01*
X012727Y023281D01*
X012979Y023533D01*
X012979Y023889D01*
X012727Y024141D01*
X012371Y024141D01*
X012119Y023889D01*
X012119Y023533D01*
X012306Y023346D01*
X012306Y023098D01*
X012429Y022975D01*
X013102Y022302D01*
X013100Y022296D01*
X013100Y021657D01*
X013161Y021510D01*
X013273Y021398D01*
X013420Y021337D01*
X013580Y021337D01*
X013382Y021353D02*
X012618Y021353D01*
X012382Y021353D02*
X011618Y021353D01*
X011382Y021353D02*
X010618Y021353D01*
X010382Y021353D02*
X010275Y021353D01*
X010160Y021511D02*
X010117Y021511D01*
X010100Y021670D02*
X010088Y021670D01*
X010088Y021828D02*
X010100Y021828D01*
X010088Y021987D02*
X010100Y021987D01*
X010088Y022145D02*
X010100Y022145D01*
X010088Y022304D02*
X010101Y022304D01*
X010385Y022621D02*
X010731Y022621D01*
X010731Y022779D02*
X010285Y022779D01*
X010285Y022938D02*
X010731Y022938D01*
X010654Y023096D02*
X010185Y023096D01*
X010027Y023255D02*
X010496Y023255D01*
X010239Y023413D02*
X009868Y023413D01*
X009979Y023572D02*
X010119Y023572D01*
X010119Y023730D02*
X009979Y023730D01*
X009979Y023889D02*
X010119Y023889D01*
X010277Y024047D02*
X009821Y024047D01*
X009811Y024364D02*
X010288Y024364D01*
X010371Y024281D02*
X010119Y024533D01*
X010119Y024889D01*
X010371Y025141D01*
X010727Y025141D01*
X010979Y024889D01*
X010979Y024533D01*
X010727Y024281D01*
X010371Y024281D01*
X010129Y024523D02*
X009969Y024523D01*
X009979Y024681D02*
X010119Y024681D01*
X010119Y024840D02*
X009979Y024840D01*
X009870Y024998D02*
X010228Y024998D01*
X009694Y025157D02*
X012306Y025157D01*
X012306Y025076D02*
X012119Y024889D01*
X012119Y024533D01*
X012371Y024281D01*
X012727Y024281D01*
X012979Y024533D01*
X012979Y024889D01*
X012727Y025141D01*
X012726Y025141D01*
X012726Y025897D01*
X012727Y025898D01*
X012839Y026010D01*
X012900Y026157D01*
X012900Y026796D01*
X012839Y026943D01*
X012727Y027056D01*
X012580Y027117D01*
X012420Y027117D01*
X012273Y027056D01*
X012161Y026943D01*
X012100Y026796D01*
X012100Y026157D01*
X012161Y026010D01*
X012273Y025898D01*
X012306Y025884D01*
X012306Y025076D01*
X012228Y024998D02*
X011870Y024998D01*
X011979Y024889D02*
X011727Y025141D01*
X011371Y025141D01*
X011119Y024889D01*
X011119Y024533D01*
X011371Y024281D01*
X011727Y024281D01*
X011979Y024533D01*
X011979Y024889D01*
X011979Y024840D02*
X012119Y024840D01*
X012119Y024681D02*
X011979Y024681D01*
X011969Y024523D02*
X012129Y024523D01*
X012288Y024364D02*
X011811Y024364D01*
X011821Y024047D02*
X012277Y024047D01*
X012119Y023889D02*
X011979Y023889D01*
X011979Y023730D02*
X012119Y023730D01*
X012119Y023572D02*
X011979Y023572D01*
X011876Y023413D02*
X012239Y023413D01*
X012306Y023255D02*
X012035Y023255D01*
X012175Y023096D02*
X012308Y023096D01*
X012175Y022938D02*
X012466Y022938D01*
X012625Y022779D02*
X012175Y022779D01*
X012175Y022621D02*
X012783Y022621D01*
X012820Y022462D02*
X012942Y022462D01*
X012897Y022304D02*
X013100Y022304D01*
X013100Y022145D02*
X012900Y022145D01*
X012900Y021987D02*
X013100Y021987D01*
X013100Y021828D02*
X012900Y021828D01*
X012900Y021670D02*
X013100Y021670D01*
X013160Y021511D02*
X012840Y021511D01*
X012160Y021511D02*
X011840Y021511D01*
X011900Y021670D02*
X012100Y021670D01*
X012100Y021828D02*
X011900Y021828D01*
X011900Y021987D02*
X012100Y021987D01*
X012038Y022145D02*
X011900Y022145D01*
X011755Y022621D02*
X011173Y022621D01*
X011151Y022779D02*
X011755Y022779D01*
X011755Y022938D02*
X011151Y022938D01*
X011151Y023096D02*
X011599Y023096D01*
X011441Y023255D02*
X011090Y023255D01*
X011239Y023413D02*
X010931Y023413D01*
X010979Y023572D02*
X011119Y023572D01*
X011119Y023730D02*
X010979Y023730D01*
X010979Y023889D02*
X011119Y023889D01*
X011277Y024047D02*
X010821Y024047D01*
X010811Y024364D02*
X011288Y024364D01*
X011129Y024523D02*
X010969Y024523D01*
X010979Y024681D02*
X011119Y024681D01*
X011119Y024840D02*
X010979Y024840D01*
X010870Y024998D02*
X011228Y024998D01*
X011420Y025837D02*
X011273Y025898D01*
X011161Y026010D01*
X011100Y026157D01*
X011100Y026796D01*
X011161Y026943D01*
X011273Y027056D01*
X011420Y027117D01*
X011580Y027117D01*
X011727Y027056D01*
X011839Y026943D01*
X011900Y026796D01*
X011900Y026157D01*
X011839Y026010D01*
X011727Y025898D01*
X011580Y025837D01*
X011420Y025837D01*
X011222Y025949D02*
X010778Y025949D01*
X010727Y025898D02*
X010839Y026010D01*
X010900Y026157D01*
X010900Y026796D01*
X010839Y026943D01*
X010727Y027056D01*
X010580Y027117D01*
X010420Y027117D01*
X010273Y027056D01*
X010161Y026943D01*
X010100Y026796D01*
X010100Y026157D01*
X010161Y026010D01*
X010273Y025898D01*
X010420Y025837D01*
X010580Y025837D01*
X010727Y025898D01*
X010880Y026108D02*
X011120Y026108D01*
X011100Y026266D02*
X010900Y026266D01*
X010900Y026425D02*
X011100Y026425D01*
X011100Y026583D02*
X010900Y026583D01*
X010900Y026742D02*
X011100Y026742D01*
X011143Y026900D02*
X010857Y026900D01*
X010720Y027059D02*
X011280Y027059D01*
X011720Y027059D02*
X012280Y027059D01*
X012143Y026900D02*
X011857Y026900D01*
X011900Y026742D02*
X012100Y026742D01*
X012100Y026583D02*
X011900Y026583D01*
X011900Y026425D02*
X012100Y026425D01*
X012100Y026266D02*
X011900Y026266D01*
X011880Y026108D02*
X012120Y026108D01*
X012222Y025949D02*
X011778Y025949D01*
X012306Y025791D02*
X009694Y025791D01*
X009694Y025632D02*
X012306Y025632D01*
X012306Y025474D02*
X009694Y025474D01*
X009694Y025315D02*
X012306Y025315D01*
X012726Y025315D02*
X014274Y025315D01*
X014274Y025157D02*
X012726Y025157D01*
X012870Y024998D02*
X013228Y024998D01*
X013119Y024889D02*
X013371Y025141D01*
X013727Y025141D01*
X013979Y024889D01*
X013979Y024533D01*
X013727Y024281D01*
X013371Y024281D01*
X013119Y024533D01*
X013119Y024889D01*
X013119Y024840D02*
X012979Y024840D01*
X012979Y024681D02*
X013119Y024681D01*
X013129Y024523D02*
X012969Y024523D01*
X012811Y024364D02*
X013288Y024364D01*
X013371Y024141D02*
X013119Y023889D01*
X013119Y023533D01*
X013371Y023281D01*
X013727Y023281D01*
X013979Y023533D01*
X013979Y023889D01*
X013727Y024141D01*
X013371Y024141D01*
X013277Y024047D02*
X012821Y024047D01*
X012979Y023889D02*
X013119Y023889D01*
X013119Y023730D02*
X012979Y023730D01*
X012979Y023572D02*
X013119Y023572D01*
X013239Y023413D02*
X012860Y023413D01*
X012743Y023255D02*
X014314Y023255D01*
X014316Y023096D02*
X012902Y023096D01*
X013060Y022938D02*
X014474Y022938D01*
X014633Y022779D02*
X013219Y022779D01*
X013377Y022621D02*
X014791Y022621D01*
X014820Y022462D02*
X014950Y022462D01*
X014897Y022304D02*
X015101Y022304D01*
X015100Y022145D02*
X014900Y022145D01*
X014900Y021987D02*
X015100Y021987D01*
X015100Y021828D02*
X014900Y021828D01*
X014900Y021670D02*
X015100Y021670D01*
X015160Y021511D02*
X014840Y021511D01*
X014160Y021511D02*
X013840Y021511D01*
X013900Y021670D02*
X014100Y021670D01*
X014100Y021828D02*
X013900Y021828D01*
X013900Y021987D02*
X014100Y021987D01*
X014100Y022145D02*
X013900Y022145D01*
X013897Y022304D02*
X014103Y022304D01*
X014180Y022462D02*
X013820Y022462D01*
X013860Y023413D02*
X014239Y023413D01*
X014119Y023572D02*
X013979Y023572D01*
X013979Y023730D02*
X014119Y023730D01*
X014119Y023889D02*
X013979Y023889D01*
X013821Y024047D02*
X014277Y024047D01*
X014371Y024281D02*
X014727Y024281D01*
X014979Y024533D01*
X014979Y024889D01*
X014727Y025141D01*
X014694Y025141D01*
X014694Y025884D01*
X014727Y025898D01*
X014839Y026010D01*
X014900Y026157D01*
X014900Y026796D01*
X014839Y026943D01*
X014727Y027056D01*
X014580Y027117D01*
X014420Y027117D01*
X014273Y027056D01*
X014161Y026943D01*
X014100Y026796D01*
X014100Y026157D01*
X014161Y026010D01*
X014273Y025898D01*
X014274Y025897D01*
X014274Y025044D01*
X014119Y024889D01*
X014119Y024533D01*
X014371Y024281D01*
X014288Y024364D02*
X013811Y024364D01*
X013969Y024523D02*
X014129Y024523D01*
X014119Y024681D02*
X013979Y024681D01*
X013979Y024840D02*
X014119Y024840D01*
X014228Y024998D02*
X013870Y024998D01*
X014274Y025474D02*
X012726Y025474D01*
X012726Y025632D02*
X014274Y025632D01*
X014274Y025791D02*
X012726Y025791D01*
X012778Y025949D02*
X013222Y025949D01*
X013273Y025898D02*
X013420Y025837D01*
X013580Y025837D01*
X013727Y025898D01*
X013839Y026010D01*
X013900Y026157D01*
X013900Y026796D01*
X013839Y026943D01*
X013727Y027056D01*
X013580Y027117D01*
X013420Y027117D01*
X013273Y027056D01*
X013161Y026943D01*
X013100Y026796D01*
X013100Y026157D01*
X013161Y026010D01*
X013273Y025898D01*
X013120Y026108D02*
X012880Y026108D01*
X012900Y026266D02*
X013100Y026266D01*
X013100Y026425D02*
X012900Y026425D01*
X012900Y026583D02*
X013100Y026583D01*
X013100Y026742D02*
X012900Y026742D01*
X012857Y026900D02*
X013143Y026900D01*
X013280Y027059D02*
X012720Y027059D01*
X011890Y027851D02*
X019432Y027851D01*
X019432Y027693D02*
X008710Y027693D01*
X008710Y027534D02*
X019432Y027534D01*
X019432Y027376D02*
X008710Y027376D01*
X008710Y027217D02*
X019432Y027217D01*
X019432Y027059D02*
X016720Y027059D01*
X016727Y027056D02*
X016580Y027117D01*
X016420Y027117D01*
X016273Y027056D01*
X016161Y026943D01*
X016100Y026796D01*
X016100Y026157D01*
X016161Y026010D01*
X016273Y025898D01*
X016420Y025837D01*
X016580Y025837D01*
X016727Y025898D01*
X016839Y026010D01*
X016900Y026157D01*
X016900Y026796D01*
X016839Y026943D01*
X016727Y027056D01*
X016857Y026900D02*
X019432Y026900D01*
X019432Y026742D02*
X016900Y026742D01*
X016900Y026583D02*
X019432Y026583D01*
X019432Y026425D02*
X016900Y026425D01*
X016900Y026266D02*
X019432Y026266D01*
X019432Y026108D02*
X016880Y026108D01*
X016778Y025949D02*
X019432Y025949D01*
X019432Y025791D02*
X014694Y025791D01*
X014694Y025632D02*
X019432Y025632D01*
X019432Y025474D02*
X014694Y025474D01*
X014694Y025315D02*
X019432Y025315D01*
X019432Y025157D02*
X014694Y025157D01*
X014870Y024998D02*
X015228Y024998D01*
X015119Y024889D02*
X015119Y024533D01*
X015371Y024281D01*
X015727Y024281D01*
X015979Y024533D01*
X015979Y024889D01*
X015727Y025141D01*
X015371Y025141D01*
X015119Y024889D01*
X015119Y024840D02*
X014979Y024840D01*
X014979Y024681D02*
X015119Y024681D01*
X015129Y024523D02*
X014969Y024523D01*
X014811Y024364D02*
X015288Y024364D01*
X015277Y024047D02*
X014821Y024047D01*
X014979Y023889D02*
X015119Y023889D01*
X015119Y023730D02*
X014979Y023730D01*
X014979Y023572D02*
X015119Y023572D01*
X015239Y023413D02*
X014860Y023413D01*
X014751Y023255D02*
X015496Y023255D01*
X015654Y023096D02*
X014910Y023096D01*
X015068Y022938D02*
X015731Y022938D01*
X015731Y022779D02*
X015227Y022779D01*
X015385Y022621D02*
X015731Y022621D01*
X016173Y022621D02*
X016951Y022621D01*
X016951Y022462D02*
X016820Y022462D01*
X016897Y022304D02*
X016951Y022304D01*
X016951Y022145D02*
X016900Y022145D01*
X016900Y021987D02*
X016951Y021987D01*
X016951Y021828D02*
X016900Y021828D01*
X016900Y021670D02*
X016951Y021670D01*
X016951Y021511D02*
X016840Y021511D01*
X016160Y021511D02*
X015840Y021511D01*
X015900Y021670D02*
X016100Y021670D01*
X016100Y021828D02*
X015900Y021828D01*
X015900Y021987D02*
X016100Y021987D01*
X016054Y022145D02*
X015900Y022145D01*
X016151Y022779D02*
X016880Y022779D01*
X016870Y022938D02*
X016151Y022938D01*
X016151Y023096D02*
X016970Y023096D01*
X016736Y023261D02*
X016999Y023524D01*
X016999Y023701D01*
X016559Y023701D01*
X016559Y023261D01*
X016736Y023261D01*
X016539Y023261D02*
X016539Y023701D01*
X016099Y023701D01*
X016099Y023524D01*
X016363Y023261D01*
X016539Y023261D01*
X016539Y023413D02*
X016559Y023413D01*
X016559Y023572D02*
X016539Y023572D01*
X016539Y023701D02*
X016559Y023701D01*
X016559Y023721D01*
X016539Y023721D01*
X016539Y023701D01*
X016539Y023721D02*
X016099Y023721D01*
X016099Y023897D01*
X016363Y024161D01*
X016539Y024161D01*
X016539Y023721D01*
X016539Y023730D02*
X016559Y023730D01*
X016559Y023721D02*
X016559Y024161D01*
X016736Y024161D01*
X016999Y023897D01*
X016999Y023721D01*
X016559Y023721D01*
X016559Y023889D02*
X016539Y023889D01*
X016539Y024047D02*
X016559Y024047D01*
X016727Y024281D02*
X016979Y024533D01*
X016979Y024889D01*
X016727Y025141D01*
X016371Y025141D01*
X016119Y024889D01*
X016119Y024533D01*
X016371Y024281D01*
X016727Y024281D01*
X016811Y024364D02*
X019432Y024364D01*
X019432Y024206D02*
X009182Y024206D01*
X009182Y024364D02*
X009288Y024364D01*
X009277Y024047D02*
X009182Y024047D01*
X009182Y024998D02*
X009228Y024998D01*
X009182Y025157D02*
X009274Y025157D01*
X009274Y025315D02*
X009182Y025315D01*
X009182Y025474D02*
X009274Y025474D01*
X009274Y025632D02*
X009182Y025632D01*
X009182Y025791D02*
X009274Y025791D01*
X009222Y025949D02*
X009104Y025949D01*
X009120Y026108D02*
X008945Y026108D01*
X008900Y026266D02*
X009100Y026266D01*
X009100Y026425D02*
X008900Y026425D01*
X008900Y026583D02*
X009100Y026583D01*
X009100Y026742D02*
X008900Y026742D01*
X008857Y026900D02*
X009143Y026900D01*
X009280Y027059D02*
X008720Y027059D01*
X008834Y027851D02*
X011306Y027851D01*
X011416Y027741D02*
X011158Y027999D01*
X011158Y028364D01*
X011416Y028621D01*
X011781Y028621D01*
X012038Y028364D01*
X012038Y027999D01*
X011781Y027741D01*
X011416Y027741D01*
X011158Y028010D02*
X008992Y028010D01*
X008998Y028168D02*
X011158Y028168D01*
X011158Y028327D02*
X008998Y028327D01*
X008860Y028485D02*
X011280Y028485D01*
X011917Y028485D02*
X016345Y028485D01*
X016345Y028454D02*
X016603Y028196D01*
X016968Y028196D01*
X017225Y028454D01*
X017225Y028818D01*
X016968Y029076D01*
X016603Y029076D01*
X016345Y028818D01*
X016345Y028454D01*
X016473Y028327D02*
X012038Y028327D01*
X012038Y028168D02*
X019432Y028168D01*
X019432Y028010D02*
X012038Y028010D01*
X012151Y029177D02*
X011967Y029253D01*
X011826Y029393D01*
X011750Y029577D01*
X011750Y030376D01*
X011826Y030560D01*
X011967Y030700D01*
X012151Y030777D01*
X012349Y030777D01*
X012533Y030700D01*
X012674Y030560D01*
X012750Y030376D01*
X012750Y029577D01*
X012674Y029393D01*
X012533Y029253D01*
X012349Y029177D01*
X012151Y029177D01*
X011942Y029278D02*
X010489Y029278D01*
X010511Y029287D02*
X010640Y029416D01*
X010710Y029585D01*
X010710Y030368D01*
X010640Y030537D01*
X010511Y030667D01*
X010341Y030737D01*
X010158Y030737D01*
X009989Y030667D01*
X009860Y030537D01*
X009790Y030368D01*
X009790Y029585D01*
X009860Y029416D01*
X009989Y029287D01*
X010158Y029217D01*
X010341Y029217D01*
X010511Y029287D01*
X010648Y029436D02*
X011808Y029436D01*
X011750Y029595D02*
X010710Y029595D01*
X010710Y029753D02*
X011750Y029753D01*
X011750Y029912D02*
X010710Y029912D01*
X010710Y030070D02*
X011750Y030070D01*
X011750Y030229D02*
X010710Y030229D01*
X010702Y030387D02*
X011755Y030387D01*
X011820Y030546D02*
X010632Y030546D01*
X010420Y030704D02*
X011976Y030704D01*
X012524Y030704D02*
X013080Y030704D01*
X012868Y030546D02*
X012680Y030546D01*
X012745Y030387D02*
X012798Y030387D01*
X012790Y030229D02*
X012750Y030229D01*
X012750Y030070D02*
X012790Y030070D01*
X012790Y029912D02*
X012750Y029912D01*
X012750Y029753D02*
X012790Y029753D01*
X012790Y029595D02*
X012750Y029595D01*
X012692Y029436D02*
X012852Y029436D01*
X013011Y029278D02*
X012558Y029278D01*
X013434Y029119D02*
X019707Y029119D01*
X019707Y029278D02*
X015517Y029278D01*
X015502Y029266D02*
X015563Y029310D01*
X015616Y029364D01*
X015661Y029425D01*
X015695Y029492D01*
X015718Y029564D01*
X015730Y029639D01*
X015730Y029957D01*
X015270Y029957D01*
X015270Y029997D01*
X015230Y029997D01*
X015230Y030757D01*
X015212Y030757D01*
X015138Y030745D01*
X015066Y030721D01*
X014998Y030687D01*
X014937Y030643D01*
X014884Y030589D01*
X014839Y030528D01*
X014805Y030461D01*
X014782Y030389D01*
X014770Y030314D01*
X014770Y029997D01*
X015230Y029997D01*
X015230Y029957D01*
X014770Y029957D01*
X014770Y029639D01*
X014782Y029564D01*
X014805Y029492D01*
X014839Y029425D01*
X014884Y029364D01*
X014937Y029310D01*
X014998Y029266D01*
X015066Y029232D01*
X015138Y029208D01*
X015212Y029197D01*
X015230Y029197D01*
X015230Y029957D01*
X015270Y029957D01*
X015270Y029197D01*
X015288Y029197D01*
X015362Y029208D01*
X015434Y029232D01*
X015502Y029266D01*
X015270Y029278D02*
X015230Y029278D01*
X015230Y029436D02*
X015270Y029436D01*
X015270Y029595D02*
X015230Y029595D01*
X015230Y029753D02*
X015270Y029753D01*
X015270Y029912D02*
X015230Y029912D01*
X015270Y029997D02*
X015730Y029997D01*
X015730Y030314D01*
X015718Y030389D01*
X015695Y030461D01*
X015661Y030528D01*
X015616Y030589D01*
X015563Y030643D01*
X015502Y030687D01*
X015434Y030721D01*
X015362Y030745D01*
X015288Y030757D01*
X015270Y030757D01*
X015270Y029997D01*
X015270Y030070D02*
X015230Y030070D01*
X015230Y030229D02*
X015270Y030229D01*
X015270Y030387D02*
X015230Y030387D01*
X015230Y030546D02*
X015270Y030546D01*
X015270Y030704D02*
X015230Y030704D01*
X015032Y030704D02*
X014420Y030704D01*
X014341Y030737D02*
X014158Y030737D01*
X013989Y030667D01*
X013860Y030537D01*
X013790Y030368D01*
X013790Y029585D01*
X013860Y029416D01*
X013989Y029287D01*
X014158Y029217D01*
X014341Y029217D01*
X014511Y029287D01*
X014640Y029416D01*
X014710Y029585D01*
X014710Y030368D01*
X014640Y030537D01*
X014511Y030667D01*
X014341Y030737D01*
X014080Y030704D02*
X013420Y030704D01*
X013632Y030546D02*
X013868Y030546D01*
X013798Y030387D02*
X013702Y030387D01*
X013710Y030229D02*
X013790Y030229D01*
X013790Y030070D02*
X013710Y030070D01*
X013710Y029912D02*
X013790Y029912D01*
X013790Y029753D02*
X013710Y029753D01*
X013710Y029595D02*
X013790Y029595D01*
X013852Y029436D02*
X013648Y029436D01*
X013489Y029278D02*
X014011Y029278D01*
X014489Y029278D02*
X014983Y029278D01*
X014834Y029436D02*
X014648Y029436D01*
X014710Y029595D02*
X014777Y029595D01*
X014770Y029753D02*
X014710Y029753D01*
X014710Y029912D02*
X014770Y029912D01*
X014770Y030070D02*
X014710Y030070D01*
X014710Y030229D02*
X014770Y030229D01*
X014782Y030387D02*
X014702Y030387D01*
X014632Y030546D02*
X014852Y030546D01*
X015468Y030704D02*
X016716Y030704D01*
X016769Y030757D02*
X016511Y030499D01*
X016511Y030135D01*
X016769Y029877D01*
X017133Y029877D01*
X017391Y030135D01*
X017391Y030499D01*
X017133Y030757D01*
X016769Y030757D01*
X016557Y030546D02*
X015648Y030546D01*
X015718Y030387D02*
X016511Y030387D01*
X016511Y030229D02*
X015730Y030229D01*
X015730Y030070D02*
X016576Y030070D01*
X016734Y029912D02*
X015730Y029912D01*
X015730Y029753D02*
X019707Y029753D01*
X019707Y029595D02*
X015723Y029595D01*
X015666Y029436D02*
X019707Y029436D01*
X020127Y029436D02*
X020395Y029436D01*
X020422Y029381D02*
X020495Y029264D01*
X020581Y029156D01*
X020679Y029058D01*
X020787Y028972D01*
X020904Y028898D01*
X021029Y028838D01*
X021159Y028793D01*
X021294Y028762D01*
X021420Y028748D01*
X021420Y029897D01*
X020271Y029897D01*
X020285Y029770D01*
X020316Y029636D01*
X020362Y029505D01*
X020422Y029381D01*
X020487Y029278D02*
X020127Y029278D01*
X020127Y029119D02*
X020618Y029119D01*
X020805Y028961D02*
X020127Y028961D01*
X020183Y028802D02*
X021132Y028802D01*
X021420Y028802D02*
X021580Y028802D01*
X021580Y028748D02*
X021706Y028762D01*
X021841Y028793D01*
X021971Y028838D01*
X022096Y028898D01*
X022213Y028972D01*
X022321Y029058D01*
X022419Y029156D01*
X022505Y029264D01*
X022578Y029381D01*
X022638Y029505D01*
X022684Y029636D01*
X022715Y029770D01*
X022729Y029897D01*
X021580Y029897D01*
X021580Y030057D01*
X021420Y030057D01*
X021420Y029897D01*
X021580Y029897D01*
X021580Y028748D01*
X021580Y028961D02*
X021420Y028961D01*
X021420Y029119D02*
X021580Y029119D01*
X021580Y029278D02*
X021420Y029278D01*
X021420Y029436D02*
X021580Y029436D01*
X021580Y029595D02*
X021420Y029595D01*
X021420Y029753D02*
X021580Y029753D01*
X021580Y029912D02*
X022769Y029912D01*
X022729Y030057D02*
X022715Y030183D01*
X022684Y030318D01*
X022638Y030448D01*
X022578Y030573D01*
X022505Y030690D01*
X022419Y030798D01*
X022321Y030895D01*
X022213Y030981D01*
X022096Y031055D01*
X021971Y031115D01*
X021841Y031160D01*
X021706Y031191D01*
X021580Y031205D01*
X021580Y030057D01*
X022729Y030057D01*
X022727Y030070D02*
X022769Y030070D01*
X022769Y030229D02*
X022704Y030229D01*
X022659Y030387D02*
X022770Y030387D01*
X022770Y030546D02*
X022591Y030546D01*
X022493Y030704D02*
X022770Y030704D01*
X022770Y030863D02*
X022353Y030863D01*
X022150Y031021D02*
X022770Y031021D01*
X022770Y031180D02*
X021757Y031180D01*
X021580Y031180D02*
X021420Y031180D01*
X021420Y031021D02*
X021580Y031021D01*
X021580Y030863D02*
X021420Y030863D01*
X021420Y030704D02*
X021580Y030704D01*
X021580Y030546D02*
X021420Y030546D01*
X021420Y030387D02*
X021580Y030387D01*
X021580Y030229D02*
X021420Y030229D01*
X021420Y030070D02*
X021580Y030070D01*
X021420Y029912D02*
X020127Y029912D01*
X020127Y029753D02*
X020289Y029753D01*
X020331Y029595D02*
X020127Y029595D01*
X020269Y030070D02*
X020273Y030070D01*
X020288Y030546D02*
X020409Y030546D01*
X020507Y030704D02*
X020129Y030704D01*
X019772Y030704D02*
X017186Y030704D01*
X017345Y030546D02*
X019614Y030546D01*
X019551Y030387D02*
X017391Y030387D01*
X017391Y030229D02*
X019551Y030229D01*
X019632Y030070D02*
X017326Y030070D01*
X017168Y029912D02*
X019707Y029912D01*
X020647Y030863D02*
X005859Y030863D01*
X005972Y030704D02*
X007080Y030704D01*
X006868Y030546D02*
X006055Y030546D01*
X006109Y030387D02*
X006798Y030387D01*
X006790Y030229D02*
X006141Y030229D01*
X005695Y031021D02*
X020850Y031021D01*
X021243Y031180D02*
X005442Y031180D01*
X007420Y030704D02*
X008032Y030704D01*
X007998Y030687D02*
X007937Y030643D01*
X007884Y030589D01*
X007839Y030528D01*
X007805Y030461D01*
X007782Y030389D01*
X007770Y030314D01*
X007770Y029997D01*
X008230Y029997D01*
X008230Y030757D01*
X008212Y030757D01*
X008138Y030745D01*
X008066Y030721D01*
X007998Y030687D01*
X007852Y030546D02*
X007632Y030546D01*
X007702Y030387D02*
X007782Y030387D01*
X007770Y030229D02*
X007710Y030229D01*
X007710Y030070D02*
X007770Y030070D01*
X007770Y029957D02*
X007770Y029639D01*
X007782Y029564D01*
X007805Y029492D01*
X007839Y029425D01*
X007884Y029364D01*
X007937Y029310D01*
X007998Y029266D01*
X008066Y029232D01*
X008138Y029208D01*
X008212Y029197D01*
X008230Y029197D01*
X008230Y029957D01*
X007770Y029957D01*
X007770Y029912D02*
X007710Y029912D01*
X007710Y029753D02*
X007770Y029753D01*
X007777Y029595D02*
X007710Y029595D01*
X007648Y029436D02*
X007834Y029436D01*
X007983Y029278D02*
X007489Y029278D01*
X007450Y029119D02*
X008704Y029119D01*
X008545Y028961D02*
X007758Y028961D01*
X007890Y028802D02*
X008387Y028802D01*
X008228Y028644D02*
X007936Y028644D01*
X007922Y028485D02*
X008070Y028485D01*
X008014Y028327D02*
X007836Y028327D01*
X008270Y029197D02*
X008288Y029197D01*
X008362Y029208D01*
X008434Y029232D01*
X008502Y029266D01*
X008563Y029310D01*
X008616Y029364D01*
X008661Y029425D01*
X008695Y029492D01*
X008718Y029564D01*
X008730Y029639D01*
X008730Y029957D01*
X008270Y029957D01*
X008270Y029997D01*
X008230Y029997D01*
X008230Y029957D01*
X008270Y029957D01*
X008270Y029197D01*
X008270Y029278D02*
X008230Y029278D01*
X008230Y029436D02*
X008270Y029436D01*
X008270Y029595D02*
X008230Y029595D01*
X008230Y029753D02*
X008270Y029753D01*
X008270Y029912D02*
X008230Y029912D01*
X008270Y029997D02*
X008730Y029997D01*
X008730Y030314D01*
X008718Y030389D01*
X008695Y030461D01*
X008661Y030528D01*
X008616Y030589D01*
X008563Y030643D01*
X008502Y030687D01*
X008434Y030721D01*
X008362Y030745D01*
X008288Y030757D01*
X008270Y030757D01*
X008270Y029997D01*
X008270Y030070D02*
X008230Y030070D01*
X008230Y030229D02*
X008270Y030229D01*
X008270Y030387D02*
X008230Y030387D01*
X008230Y030546D02*
X008270Y030546D01*
X008270Y030704D02*
X008230Y030704D01*
X008468Y030704D02*
X009080Y030704D01*
X009158Y030737D02*
X008989Y030667D01*
X008860Y030537D01*
X008790Y030368D01*
X008790Y029585D01*
X008860Y029416D01*
X008989Y029287D01*
X009158Y029217D01*
X009341Y029217D01*
X009511Y029287D01*
X009640Y029416D01*
X009710Y029585D01*
X009710Y030368D01*
X009640Y030537D01*
X009511Y030667D01*
X009341Y030737D01*
X009158Y030737D01*
X009420Y030704D02*
X010080Y030704D01*
X009868Y030546D02*
X009632Y030546D01*
X009702Y030387D02*
X009798Y030387D01*
X009790Y030229D02*
X009710Y030229D01*
X009710Y030070D02*
X009790Y030070D01*
X009790Y029912D02*
X009710Y029912D01*
X009710Y029753D02*
X009790Y029753D01*
X009790Y029595D02*
X009710Y029595D01*
X009648Y029436D02*
X009852Y029436D01*
X010011Y029278D02*
X009489Y029278D01*
X009011Y029278D02*
X008517Y029278D01*
X008666Y029436D02*
X008852Y029436D01*
X008790Y029595D02*
X008723Y029595D01*
X008730Y029753D02*
X008790Y029753D01*
X008790Y029912D02*
X008730Y029912D01*
X008730Y030070D02*
X008790Y030070D01*
X008790Y030229D02*
X008730Y030229D01*
X008718Y030387D02*
X008798Y030387D01*
X008868Y030546D02*
X008648Y030546D01*
X008822Y028644D02*
X016345Y028644D01*
X016345Y028802D02*
X013390Y028802D01*
X013434Y028961D02*
X016488Y028961D01*
X017083Y028961D02*
X017516Y028961D01*
X017611Y029056D02*
X017365Y028810D01*
X017365Y028636D01*
X017365Y028462D01*
X017611Y028216D01*
X017785Y028216D01*
X017785Y028636D01*
X017365Y028636D01*
X017785Y028636D01*
X017785Y028636D01*
X017785Y028636D01*
X017785Y029056D01*
X017611Y029056D01*
X017785Y029056D02*
X017959Y029056D01*
X018205Y028810D01*
X018205Y028636D01*
X017785Y028636D01*
X017785Y028636D01*
X017785Y028216D01*
X017959Y028216D01*
X018205Y028462D01*
X018205Y028636D01*
X017785Y028636D01*
X017785Y029056D01*
X017785Y028961D02*
X017785Y028961D01*
X017785Y028802D02*
X017785Y028802D01*
X017785Y028644D02*
X017785Y028644D01*
X017785Y028636D02*
X017785Y028636D01*
X017785Y028485D02*
X017785Y028485D01*
X017785Y028327D02*
X017785Y028327D01*
X017501Y028327D02*
X017098Y028327D01*
X017225Y028485D02*
X017365Y028485D01*
X017365Y028644D02*
X017225Y028644D01*
X017225Y028802D02*
X017365Y028802D01*
X018055Y028961D02*
X018553Y028961D01*
X018629Y029036D02*
X018383Y028790D01*
X018383Y028616D01*
X018383Y028442D01*
X018629Y028196D01*
X018803Y028196D01*
X018803Y028616D01*
X018803Y028616D01*
X018383Y028616D01*
X018803Y028616D01*
X018803Y028616D01*
X018803Y028196D01*
X018977Y028196D01*
X019223Y028442D01*
X019223Y028616D01*
X018803Y028616D01*
X018803Y028616D01*
X019223Y028616D01*
X019223Y028790D01*
X018977Y029036D01*
X018803Y029036D01*
X018629Y029036D01*
X018803Y029036D02*
X018803Y028616D01*
X018803Y028616D01*
X018803Y029036D01*
X018803Y028961D02*
X018803Y028961D01*
X018803Y028802D02*
X018803Y028802D01*
X018803Y028644D02*
X018803Y028644D01*
X018803Y028485D02*
X018803Y028485D01*
X018803Y028327D02*
X018803Y028327D01*
X018499Y028327D02*
X018070Y028327D01*
X018205Y028485D02*
X018383Y028485D01*
X018383Y028644D02*
X018205Y028644D01*
X018205Y028802D02*
X018395Y028802D01*
X019053Y028961D02*
X019582Y028961D01*
X019423Y028802D02*
X019211Y028802D01*
X019223Y028644D02*
X019403Y028644D01*
X019403Y028485D02*
X019223Y028485D01*
X019107Y028327D02*
X019432Y028327D01*
X019852Y028168D02*
X022769Y028168D01*
X022769Y028010D02*
X019852Y028010D01*
X019852Y027851D02*
X020705Y027851D01*
X020684Y027841D02*
X020614Y027790D01*
X020553Y027729D01*
X020502Y027659D01*
X020463Y027581D01*
X020436Y027499D01*
X020422Y027414D01*
X020422Y027390D01*
X020952Y027390D01*
X020952Y027350D01*
X020422Y027350D01*
X020422Y027327D01*
X020436Y027242D01*
X020463Y027159D01*
X020502Y027082D01*
X020553Y027012D01*
X020614Y026951D01*
X020684Y026900D01*
X020761Y026861D01*
X020767Y026859D01*
X020672Y026820D01*
X020523Y026671D01*
X020442Y026476D01*
X020442Y026265D01*
X020523Y026070D01*
X020653Y025940D01*
X020520Y025940D01*
X020402Y025823D01*
X020402Y024917D01*
X020520Y024800D01*
X021425Y024800D01*
X021542Y024917D01*
X021542Y025823D01*
X021425Y025940D01*
X021292Y025940D01*
X021422Y026070D01*
X021502Y026265D01*
X021502Y026476D01*
X021422Y026671D01*
X021273Y026820D01*
X021178Y026859D01*
X021183Y026861D01*
X021261Y026900D01*
X022768Y026900D01*
X022768Y026742D02*
X021351Y026742D01*
X021261Y026900D02*
X021331Y026951D01*
X021392Y027012D01*
X021443Y027082D01*
X021482Y027159D01*
X021509Y027242D01*
X021522Y027327D01*
X021522Y027350D01*
X020992Y027350D01*
X020992Y027390D01*
X020952Y027390D01*
X020952Y027920D01*
X020929Y027920D01*
X020844Y027907D01*
X020761Y027880D01*
X020684Y027841D01*
X020527Y027693D02*
X019852Y027693D01*
X019852Y027534D02*
X020447Y027534D01*
X020444Y027217D02*
X019852Y027217D01*
X019852Y027059D02*
X020519Y027059D01*
X020684Y026900D02*
X019852Y026900D01*
X019852Y026742D02*
X020594Y026742D01*
X020487Y026583D02*
X019852Y026583D01*
X019852Y026425D02*
X020442Y026425D01*
X020442Y026266D02*
X019852Y026266D01*
X019852Y026108D02*
X020507Y026108D01*
X020644Y025949D02*
X019852Y025949D01*
X019852Y025791D02*
X020402Y025791D01*
X020402Y025632D02*
X019852Y025632D01*
X019852Y025474D02*
X020402Y025474D01*
X020402Y025315D02*
X019852Y025315D01*
X019852Y025157D02*
X020402Y025157D01*
X020402Y024998D02*
X019852Y024998D01*
X019852Y024840D02*
X020480Y024840D01*
X019852Y024681D02*
X022767Y024681D01*
X022767Y024523D02*
X019852Y024523D01*
X019852Y024364D02*
X022767Y024364D01*
X022767Y024206D02*
X019852Y024206D01*
X019852Y024047D02*
X022767Y024047D01*
X022767Y023889D02*
X019852Y023889D01*
X019915Y023730D02*
X021864Y023730D01*
X021870Y023735D02*
X021720Y023586D01*
X021640Y023391D01*
X021640Y023180D01*
X021720Y022986D01*
X021870Y022837D01*
X022064Y022756D01*
X022275Y022756D01*
X022470Y022837D01*
X022619Y022986D01*
X022700Y023180D01*
X022700Y023391D01*
X022619Y023586D01*
X022470Y023735D01*
X022275Y023816D01*
X022064Y023816D01*
X021870Y023735D01*
X021714Y023572D02*
X020065Y023572D01*
X020131Y023413D02*
X021649Y023413D01*
X021640Y023255D02*
X020140Y023255D01*
X020105Y023096D02*
X021675Y023096D01*
X021769Y022938D02*
X020011Y022938D01*
X019771Y022779D02*
X022008Y022779D01*
X022331Y022779D02*
X022766Y022779D01*
X022766Y022938D02*
X022571Y022938D01*
X022665Y023096D02*
X022767Y023096D01*
X022767Y023255D02*
X022700Y023255D01*
X022691Y023413D02*
X022767Y023413D01*
X022767Y023572D02*
X022625Y023572D01*
X022767Y023730D02*
X022475Y023730D01*
X022767Y024840D02*
X021465Y024840D01*
X021542Y024998D02*
X022767Y024998D01*
X022767Y025157D02*
X021542Y025157D01*
X021542Y025315D02*
X022767Y025315D01*
X022768Y025474D02*
X021542Y025474D01*
X021542Y025632D02*
X022768Y025632D01*
X022768Y025791D02*
X021542Y025791D01*
X021301Y025949D02*
X022768Y025949D01*
X022768Y026108D02*
X021437Y026108D01*
X021502Y026266D02*
X022768Y026266D01*
X022768Y026425D02*
X021502Y026425D01*
X021458Y026583D02*
X022768Y026583D01*
X022768Y027059D02*
X021426Y027059D01*
X021501Y027217D02*
X022768Y027217D01*
X022768Y027376D02*
X020992Y027376D01*
X020992Y027390D02*
X021522Y027390D01*
X021522Y027414D01*
X021509Y027499D01*
X021482Y027581D01*
X021443Y027659D01*
X021392Y027729D01*
X021331Y027790D01*
X021261Y027841D01*
X021183Y027880D01*
X021101Y027907D01*
X021016Y027920D01*
X020992Y027920D01*
X020992Y027390D01*
X020952Y027376D02*
X019852Y027376D01*
X020079Y028327D02*
X022769Y028327D01*
X022769Y028485D02*
X020203Y028485D01*
X020203Y028644D02*
X022769Y028644D01*
X022769Y028802D02*
X021868Y028802D01*
X022195Y028961D02*
X022769Y028961D01*
X022769Y029119D02*
X022382Y029119D01*
X022513Y029278D02*
X022769Y029278D01*
X022769Y029436D02*
X022605Y029436D01*
X022669Y029595D02*
X022769Y029595D01*
X022769Y029753D02*
X022711Y029753D01*
X022768Y027851D02*
X021240Y027851D01*
X021418Y027693D02*
X022768Y027693D01*
X022768Y027534D02*
X021497Y027534D01*
X020992Y027534D02*
X020952Y027534D01*
X020952Y027693D02*
X020992Y027693D01*
X020992Y027851D02*
X020952Y027851D01*
X019432Y024998D02*
X016870Y024998D01*
X016979Y024840D02*
X019432Y024840D01*
X019432Y024681D02*
X016979Y024681D01*
X016969Y024523D02*
X019432Y024523D01*
X019432Y024047D02*
X016849Y024047D01*
X016999Y023889D02*
X019432Y023889D01*
X019304Y023730D02*
X016999Y023730D01*
X016999Y023572D02*
X019154Y023572D01*
X019089Y023413D02*
X016888Y023413D01*
X017353Y023096D02*
X019115Y023096D01*
X019080Y023255D02*
X016090Y023255D01*
X016211Y023413D02*
X015931Y023413D01*
X015979Y023572D02*
X016099Y023572D01*
X016099Y023730D02*
X015979Y023730D01*
X015979Y023889D02*
X016099Y023889D01*
X016249Y024047D02*
X015821Y024047D01*
X015811Y024364D02*
X016288Y024364D01*
X016129Y024523D02*
X015969Y024523D01*
X015979Y024681D02*
X016119Y024681D01*
X016119Y024840D02*
X015979Y024840D01*
X015870Y024998D02*
X016228Y024998D01*
X016222Y025949D02*
X015778Y025949D01*
X015727Y025898D02*
X015839Y026010D01*
X015900Y026157D01*
X015900Y026796D01*
X015839Y026943D01*
X015727Y027056D01*
X015580Y027117D01*
X015420Y027117D01*
X015273Y027056D01*
X015161Y026943D01*
X015100Y026796D01*
X015100Y026157D01*
X015161Y026010D01*
X015273Y025898D01*
X015420Y025837D01*
X015580Y025837D01*
X015727Y025898D01*
X015880Y026108D02*
X016120Y026108D01*
X016100Y026266D02*
X015900Y026266D01*
X015900Y026425D02*
X016100Y026425D01*
X016100Y026583D02*
X015900Y026583D01*
X015900Y026742D02*
X016100Y026742D01*
X016143Y026900D02*
X015857Y026900D01*
X015720Y027059D02*
X016280Y027059D01*
X015280Y027059D02*
X014720Y027059D01*
X014857Y026900D02*
X015143Y026900D01*
X015100Y026742D02*
X014900Y026742D01*
X014900Y026583D02*
X015100Y026583D01*
X015100Y026425D02*
X014900Y026425D01*
X014900Y026266D02*
X015100Y026266D01*
X015120Y026108D02*
X014880Y026108D01*
X014778Y025949D02*
X015222Y025949D01*
X014222Y025949D02*
X013778Y025949D01*
X013880Y026108D02*
X014120Y026108D01*
X014100Y026266D02*
X013900Y026266D01*
X013900Y026425D02*
X014100Y026425D01*
X014100Y026583D02*
X013900Y026583D01*
X013900Y026742D02*
X014100Y026742D01*
X014143Y026900D02*
X013857Y026900D01*
X013720Y027059D02*
X014280Y027059D01*
X010280Y027059D02*
X009720Y027059D01*
X009857Y026900D02*
X010143Y026900D01*
X010100Y026742D02*
X009900Y026742D01*
X009900Y026583D02*
X010100Y026583D01*
X010100Y026425D02*
X009900Y026425D01*
X009900Y026266D02*
X010100Y026266D01*
X010120Y026108D02*
X009880Y026108D01*
X009778Y025949D02*
X010222Y025949D01*
X007896Y026900D02*
X007819Y026900D01*
X005455Y024047D02*
X005206Y024047D01*
X005206Y023889D02*
X005455Y023889D01*
X005455Y023730D02*
X005206Y023730D01*
X005206Y023572D02*
X005455Y023572D01*
X005455Y023413D02*
X005206Y023413D01*
X005206Y023255D02*
X005359Y023255D01*
X005111Y021828D02*
X005099Y021828D01*
X005218Y021670D02*
X005270Y021670D01*
X005260Y021511D02*
X005428Y021511D01*
X005495Y021353D02*
X005247Y021353D01*
X005355Y021194D02*
X005495Y021194D01*
X005078Y020877D02*
X005035Y020877D01*
X005198Y020719D02*
X005237Y020719D01*
X005260Y020560D02*
X005298Y020560D01*
X005298Y020402D02*
X005260Y020402D01*
X005298Y020243D02*
X005201Y020243D01*
X005298Y020085D02*
X005056Y020085D01*
X004917Y019926D02*
X005298Y019926D01*
X005298Y019768D02*
X005160Y019768D01*
X005243Y019609D02*
X005298Y019609D01*
X005298Y019451D02*
X005260Y019451D01*
X005221Y019292D02*
X005298Y019292D01*
X005298Y019134D02*
X005108Y019134D01*
X006274Y019134D02*
X006603Y019134D01*
X006603Y019194D02*
X006603Y018830D01*
X006861Y018572D01*
X007226Y018572D01*
X007483Y018830D01*
X007483Y019194D01*
X007226Y019452D01*
X006861Y019452D01*
X006603Y019194D01*
X006701Y019292D02*
X006472Y019292D01*
X006512Y019451D02*
X006860Y019451D01*
X007227Y019451D02*
X007371Y019451D01*
X007385Y019292D02*
X007503Y019292D01*
X007503Y019134D02*
X007483Y019134D01*
X007483Y018975D02*
X007503Y018975D01*
X007496Y018817D02*
X007470Y018817D01*
X007463Y018658D02*
X007312Y018658D01*
X007448Y018500D02*
X006908Y018500D01*
X006973Y018435D02*
X006973Y018435D01*
X007066Y018341D02*
X007218Y018341D01*
X007153Y018183D02*
X007096Y018183D01*
X007096Y018024D02*
X007153Y018024D01*
X007153Y017866D02*
X007096Y017866D01*
X007096Y017707D02*
X007153Y017707D01*
X007154Y017549D02*
X007096Y017549D01*
X007096Y017390D02*
X007228Y017390D01*
X007879Y017390D02*
X008228Y017390D01*
X008154Y017549D02*
X007952Y017549D01*
X007953Y017707D02*
X008153Y017707D01*
X008153Y017866D02*
X007953Y017866D01*
X007953Y018024D02*
X008153Y018024D01*
X008153Y018183D02*
X007953Y018183D01*
X008008Y018341D02*
X007888Y018341D01*
X008285Y018658D02*
X008714Y018658D01*
X008659Y018500D02*
X008873Y018500D01*
X008888Y018341D02*
X009031Y018341D01*
X008953Y018183D02*
X009153Y018183D01*
X009153Y018024D02*
X008953Y018024D01*
X008953Y017866D02*
X009153Y017866D01*
X009153Y017707D02*
X008953Y017707D01*
X008952Y017549D02*
X009154Y017549D01*
X009228Y017390D02*
X008879Y017390D01*
X009879Y017390D02*
X010228Y017390D01*
X010154Y017549D02*
X009952Y017549D01*
X009953Y017707D02*
X010153Y017707D01*
X010153Y017866D02*
X009953Y017866D01*
X009953Y018024D02*
X010096Y018024D01*
X011158Y018817D02*
X012417Y018817D01*
X012396Y018852D02*
X012642Y019098D01*
X012642Y019272D01*
X012642Y019446D01*
X012396Y019692D01*
X012222Y019692D01*
X012048Y019692D01*
X011802Y019446D01*
X011802Y019272D01*
X012222Y019272D01*
X012222Y019272D01*
X011802Y019272D01*
X011802Y019098D01*
X012048Y018852D01*
X012222Y018852D01*
X012222Y019272D01*
X012222Y019692D01*
X012222Y019272D01*
X012222Y019272D01*
X012222Y019272D01*
X012222Y018852D01*
X012396Y018852D01*
X012520Y018975D02*
X012576Y018975D01*
X012642Y019134D02*
X012734Y019134D01*
X012642Y019272D02*
X012222Y019272D01*
X012642Y019272D01*
X012642Y019292D02*
X012893Y019292D01*
X013051Y019451D02*
X012638Y019451D01*
X012479Y019609D02*
X013210Y019609D01*
X013211Y019768D02*
X011072Y019768D01*
X011072Y019926D02*
X012003Y019926D01*
X012057Y019872D02*
X012388Y019872D01*
X012622Y020106D01*
X012622Y020438D01*
X012388Y020672D01*
X012057Y020672D01*
X011822Y020438D01*
X011822Y020106D01*
X012057Y019872D01*
X011966Y019609D02*
X011072Y019609D01*
X011072Y019451D02*
X011807Y019451D01*
X011802Y019292D02*
X011072Y019292D01*
X011072Y019134D02*
X011802Y019134D01*
X011925Y018975D02*
X011072Y018975D01*
X011316Y018658D02*
X012259Y018658D01*
X012100Y018500D02*
X011659Y018500D01*
X011888Y018341D02*
X011951Y018341D01*
X012222Y018975D02*
X012222Y018975D01*
X012222Y019134D02*
X012222Y019134D01*
X012222Y019272D02*
X012222Y019272D01*
X012222Y019292D02*
X012222Y019292D01*
X012222Y019451D02*
X012222Y019451D01*
X012222Y019609D02*
X012222Y019609D01*
X012442Y019926D02*
X013211Y019926D01*
X013211Y020085D02*
X012601Y020085D01*
X012622Y020243D02*
X013211Y020243D01*
X013211Y020402D02*
X012622Y020402D01*
X012500Y020560D02*
X013216Y020560D01*
X013374Y020719D02*
X010909Y020719D01*
X010751Y020877D02*
X013533Y020877D01*
X013691Y021036D02*
X010592Y021036D01*
X010434Y021194D02*
X013850Y021194D01*
X014127Y020877D02*
X015422Y020877D01*
X015264Y020719D02*
X013968Y020719D01*
X013818Y020560D02*
X013810Y020560D01*
X013690Y020402D02*
X013651Y020402D01*
X013650Y020243D02*
X013631Y020243D01*
X013631Y020085D02*
X013676Y020085D01*
X013631Y019926D02*
X013785Y019926D01*
X013841Y019768D02*
X013631Y019768D01*
X013631Y019609D02*
X013841Y019609D01*
X013867Y019451D02*
X013631Y019451D01*
X013487Y019292D02*
X014025Y019292D01*
X014184Y019134D02*
X013328Y019134D01*
X013170Y018975D02*
X014342Y018975D01*
X014501Y018817D02*
X013011Y018817D01*
X012888Y018341D02*
X013202Y018341D01*
X013139Y018183D02*
X012953Y018183D01*
X012953Y018024D02*
X013133Y018024D01*
X013133Y017866D02*
X012953Y017866D01*
X012953Y017707D02*
X013133Y017707D01*
X013141Y017549D02*
X012952Y017549D01*
X012879Y017390D02*
X013209Y017390D01*
X013553Y017390D02*
X013553Y017390D01*
X013553Y017549D02*
X013553Y017549D01*
X013553Y017707D02*
X013553Y017707D01*
X013553Y017866D02*
X013553Y017866D01*
X013553Y017870D02*
X013553Y018530D01*
X013520Y018530D01*
X013455Y018520D01*
X013392Y018500D01*
X013553Y018500D02*
X013553Y018500D01*
X013553Y018530D02*
X013553Y017870D01*
X013553Y017870D01*
X013553Y018024D02*
X013553Y018024D01*
X013553Y018183D02*
X013553Y018183D01*
X013553Y018341D02*
X013553Y018341D01*
X013553Y018530D02*
X013586Y018530D01*
X013651Y018520D01*
X013714Y018500D01*
X014619Y019292D02*
X014701Y019292D01*
X014461Y019451D02*
X014980Y019451D01*
X015101Y019609D02*
X014302Y019609D01*
X014261Y019768D02*
X015101Y019768D01*
X015101Y019926D02*
X014315Y019926D01*
X014424Y020085D02*
X015101Y020085D01*
X015101Y020243D02*
X014450Y020243D01*
X014410Y020402D02*
X015101Y020402D01*
X015105Y020560D02*
X014282Y020560D01*
X015541Y020402D02*
X015590Y020402D01*
X015550Y020243D02*
X015521Y020243D01*
X015521Y020085D02*
X015576Y020085D01*
X015521Y019926D02*
X015685Y019926D01*
X015521Y019768D02*
X016109Y019768D01*
X016267Y019609D02*
X015521Y019609D01*
X015521Y019451D02*
X016426Y019451D01*
X016584Y019292D02*
X015416Y019292D01*
X015257Y019134D02*
X016743Y019134D01*
X016901Y018975D02*
X015189Y018975D01*
X015934Y018341D02*
X016218Y018341D01*
X016153Y018183D02*
X015993Y018183D01*
X015993Y018024D02*
X016153Y018024D01*
X016153Y017866D02*
X015993Y017866D01*
X015993Y017707D02*
X016153Y017707D01*
X016154Y017549D02*
X015993Y017549D01*
X015930Y017390D02*
X016228Y017390D01*
X016470Y017232D02*
X015740Y017232D01*
X015366Y017232D02*
X015324Y017232D01*
X015324Y017073D02*
X016715Y017073D01*
X016715Y016915D02*
X015324Y016915D01*
X015324Y016756D02*
X016715Y016756D01*
X016715Y016598D02*
X015324Y016598D01*
X015324Y016439D02*
X016715Y016439D01*
X016715Y016281D02*
X015324Y016281D01*
X015324Y016122D02*
X016715Y016122D01*
X016715Y015964D02*
X015324Y015964D01*
X015324Y015805D02*
X016715Y015805D01*
X016715Y015647D02*
X015324Y015647D01*
X015035Y015330D02*
X014913Y015330D01*
X014912Y015330D02*
X014874Y015384D01*
X014827Y015431D01*
X014773Y015470D01*
X014714Y015500D01*
X014651Y015520D01*
X014586Y015530D01*
X014553Y015530D01*
X014520Y015530D01*
X014455Y015520D01*
X014392Y015500D01*
X014333Y015470D01*
X014280Y015431D01*
X014233Y015384D01*
X014194Y015330D01*
X014164Y015272D01*
X014143Y015209D01*
X014133Y015143D01*
X014133Y014870D01*
X014553Y014870D01*
X014553Y014870D01*
X014553Y015530D01*
X014553Y014870D01*
X014553Y014870D01*
X014973Y014870D01*
X014973Y015143D01*
X014963Y015209D01*
X014942Y015272D01*
X014912Y015330D01*
X014904Y015488D02*
X014737Y015488D01*
X014553Y015488D02*
X014553Y015488D01*
X014553Y015330D02*
X014553Y015330D01*
X014553Y015171D02*
X014553Y015171D01*
X014553Y015013D02*
X014553Y015013D01*
X014553Y014854D02*
X014553Y014854D01*
X014553Y014696D02*
X014553Y014696D01*
X014553Y014537D02*
X014553Y014537D01*
X014553Y014379D02*
X014553Y014379D01*
X014217Y014379D02*
X013924Y014379D01*
X013991Y014537D02*
X014143Y014537D01*
X014133Y014696D02*
X013993Y014696D01*
X013993Y014854D02*
X014133Y014854D01*
X014133Y015013D02*
X013993Y015013D01*
X013993Y015171D02*
X014138Y015171D01*
X014194Y015330D02*
X013939Y015330D01*
X013791Y015488D02*
X014370Y015488D01*
X014969Y015171D02*
X015153Y015171D01*
X015153Y015013D02*
X014973Y015013D01*
X014973Y014854D02*
X015153Y014854D01*
X015153Y014696D02*
X014973Y014696D01*
X014964Y014537D02*
X015159Y014537D01*
X015239Y014379D02*
X014889Y014379D01*
X014818Y013745D02*
X014485Y013745D01*
X014619Y013586D02*
X014684Y013586D01*
X014668Y013111D02*
X014635Y013111D01*
X014524Y012952D02*
X014779Y012952D01*
X015524Y012952D02*
X015779Y012952D01*
X015668Y013111D02*
X015635Y013111D01*
X015619Y013586D02*
X015684Y013586D01*
X015818Y013745D02*
X015485Y013745D01*
X015867Y014379D02*
X016239Y014379D01*
X016159Y014537D02*
X015948Y014537D01*
X015953Y014696D02*
X016153Y014696D01*
X016153Y014854D02*
X015953Y014854D01*
X015953Y015013D02*
X016153Y015013D01*
X016153Y015171D02*
X015953Y015171D01*
X015895Y015330D02*
X016211Y015330D01*
X016420Y015488D02*
X015686Y015488D01*
X016953Y015171D02*
X017153Y015171D01*
X017153Y015013D02*
X016953Y015013D01*
X016953Y014854D02*
X017153Y014854D01*
X017153Y014696D02*
X016953Y014696D01*
X016948Y014537D02*
X017159Y014537D01*
X017239Y014379D02*
X016867Y014379D01*
X016818Y013745D02*
X016485Y013745D01*
X016619Y013586D02*
X016684Y013586D01*
X016668Y013111D02*
X016635Y013111D01*
X016524Y012952D02*
X016779Y012952D01*
X017524Y012952D02*
X017779Y012952D01*
X017668Y013111D02*
X017635Y013111D01*
X017619Y013586D02*
X017684Y013586D01*
X017818Y013745D02*
X017485Y013745D01*
X018356Y013903D02*
X018920Y013903D01*
X018823Y014062D02*
X018356Y014062D01*
X018274Y014220D02*
X018664Y014220D01*
X018239Y014379D02*
X018115Y014379D01*
X018485Y013745D02*
X018818Y013745D01*
X018684Y013586D02*
X018619Y013586D01*
X018635Y013111D02*
X018668Y013111D01*
X018779Y012952D02*
X018524Y012952D01*
X019524Y012952D02*
X019779Y012952D01*
X019668Y013111D02*
X019635Y013111D01*
X020524Y012952D02*
X020779Y012952D01*
X020668Y013111D02*
X020635Y013111D01*
X020619Y013586D02*
X020684Y013586D01*
X020818Y013745D02*
X020485Y013745D01*
X020153Y014696D02*
X020003Y014696D01*
X019953Y014854D02*
X020153Y014854D01*
X020153Y015013D02*
X019953Y015013D01*
X019953Y015171D02*
X020153Y015171D01*
X020211Y015330D02*
X019895Y015330D01*
X019686Y015488D02*
X020420Y015488D01*
X020686Y015488D02*
X022763Y015488D01*
X022763Y015330D02*
X020895Y015330D01*
X020953Y015171D02*
X022763Y015171D01*
X022763Y015013D02*
X020953Y015013D01*
X020953Y014854D02*
X022763Y014854D01*
X022763Y014696D02*
X020953Y014696D01*
X021635Y013111D02*
X021646Y013111D01*
X021751Y012952D02*
X021524Y012952D01*
X022132Y012952D02*
X022172Y012952D01*
X022172Y013111D02*
X022132Y013111D01*
X022132Y013269D02*
X022172Y013269D01*
X022763Y015647D02*
X017135Y015647D01*
X017135Y015805D02*
X022764Y015805D01*
X022764Y015964D02*
X017135Y015964D01*
X017135Y016122D02*
X022764Y016122D01*
X022764Y016281D02*
X017135Y016281D01*
X017135Y016439D02*
X022764Y016439D01*
X022764Y016598D02*
X017135Y016598D01*
X017135Y016756D02*
X022764Y016756D01*
X022764Y016915D02*
X022436Y016915D01*
X022595Y017073D02*
X022764Y017073D01*
X022764Y017232D02*
X022597Y017232D01*
X022597Y017390D02*
X022764Y017390D01*
X022764Y017549D02*
X022520Y017549D01*
X022240Y017477D02*
X022161Y017398D01*
X022161Y017280D01*
X022157Y017258D01*
X022240Y017477D02*
X022240Y018107D01*
X022201Y018146D01*
X022181Y018156D01*
X021826Y017549D02*
X021427Y017549D01*
X021427Y017390D02*
X021717Y017390D01*
X021717Y017232D02*
X021427Y017232D01*
X021427Y017073D02*
X021720Y017073D01*
X021879Y016915D02*
X021424Y016915D01*
X020228Y017390D02*
X019879Y017390D01*
X019952Y017549D02*
X020154Y017549D01*
X020153Y017707D02*
X019953Y017707D01*
X019953Y017866D02*
X020153Y017866D01*
X020153Y018024D02*
X019953Y018024D01*
X019953Y018183D02*
X020153Y018183D01*
X020016Y018341D02*
X019888Y018341D01*
X019857Y018500D02*
X019659Y018500D01*
X019699Y018658D02*
X019308Y018658D01*
X019150Y018817D02*
X019540Y018817D01*
X019382Y018975D02*
X018991Y018975D01*
X018833Y019134D02*
X019223Y019134D01*
X019065Y019292D02*
X018674Y019292D01*
X018671Y019451D02*
X018814Y019451D01*
X018721Y019926D02*
X018671Y019926D01*
X018251Y020085D02*
X018178Y020085D01*
X018243Y020243D02*
X018251Y020243D01*
X018251Y019609D02*
X018102Y019609D01*
X018223Y019451D02*
X018251Y019451D01*
X018251Y019292D02*
X018223Y019292D01*
X018199Y019134D02*
X018251Y019134D01*
X018397Y018975D02*
X018041Y018975D01*
X017775Y018817D02*
X018556Y018817D01*
X018714Y018658D02*
X017616Y018658D01*
X017659Y018500D02*
X018448Y018500D01*
X018659Y018500D02*
X018873Y018500D01*
X018888Y018341D02*
X019031Y018341D01*
X018953Y018183D02*
X019153Y018183D01*
X019153Y018024D02*
X018953Y018024D01*
X018953Y017866D02*
X019153Y017866D01*
X019153Y017707D02*
X018953Y017707D01*
X019001Y017549D02*
X019154Y017549D01*
X019159Y017390D02*
X019228Y017390D01*
X018228Y017390D02*
X017879Y017390D01*
X017952Y017549D02*
X018154Y017549D01*
X018153Y017707D02*
X017953Y017707D01*
X017953Y017866D02*
X018153Y017866D01*
X018153Y018024D02*
X017953Y018024D01*
X017953Y018183D02*
X018153Y018183D01*
X018218Y018341D02*
X017888Y018341D01*
X017447Y019134D02*
X017337Y019134D01*
X017423Y019292D02*
X017178Y019292D01*
X017020Y019451D02*
X017423Y019451D01*
X017543Y019609D02*
X016861Y019609D01*
X015718Y020560D02*
X015699Y020560D01*
X018384Y021670D02*
X019085Y021670D01*
X019164Y021828D02*
X018542Y021828D01*
X022111Y020560D02*
X022251Y020560D01*
X022251Y020402D02*
X022111Y020402D01*
X022111Y020243D02*
X022251Y020243D01*
X022251Y020085D02*
X022111Y020085D01*
X022111Y019926D02*
X022251Y019926D01*
X022251Y019768D02*
X022111Y019768D01*
X017420Y015488D02*
X017135Y015488D01*
X017083Y015330D02*
X017211Y015330D01*
X016715Y017232D02*
X016636Y017232D01*
X014904Y017232D02*
X014740Y017232D01*
X011844Y020085D02*
X011072Y020085D01*
X011072Y020243D02*
X011822Y020243D01*
X011822Y020402D02*
X011072Y020402D01*
X011068Y020560D02*
X011945Y020560D01*
X011160Y021511D02*
X010840Y021511D01*
X010900Y021670D02*
X011100Y021670D01*
X011100Y021828D02*
X010900Y021828D01*
X010900Y021987D02*
X011100Y021987D01*
X011054Y022145D02*
X010900Y022145D01*
X008239Y019134D02*
X008119Y019134D01*
X008119Y018975D02*
X008397Y018975D01*
X008556Y018817D02*
X008126Y018817D01*
X008443Y018500D02*
X008448Y018500D01*
X007212Y019609D02*
X006468Y019609D01*
X006427Y019768D02*
X007054Y019768D01*
X006895Y019926D02*
X006427Y019926D01*
X006427Y020085D02*
X006737Y020085D01*
X006578Y020243D02*
X006427Y020243D01*
X006432Y018975D02*
X006603Y018975D01*
X006591Y018817D02*
X006616Y018817D01*
X006749Y018658D02*
X006775Y018658D01*
X008384Y015488D02*
X008420Y015488D01*
X009408Y015488D02*
X009420Y015488D01*
X009485Y013745D02*
X009818Y013745D01*
X009684Y013586D02*
X009619Y013586D01*
X009635Y013111D02*
X009668Y013111D01*
X009779Y012952D02*
X009524Y012952D01*
X010524Y012952D02*
X010751Y012952D01*
X010646Y013111D02*
X010635Y013111D01*
X010619Y013586D02*
X010665Y013586D01*
X010789Y013745D02*
X010485Y013745D01*
X011132Y013745D02*
X011172Y013745D01*
X011172Y013586D02*
X011132Y013586D01*
X011132Y013428D02*
X011172Y013428D01*
X011172Y013269D02*
X011132Y013269D01*
X011132Y013111D02*
X011172Y013111D01*
X011172Y012952D02*
X011132Y012952D01*
X011553Y012952D02*
X011779Y012952D01*
X011668Y013111D02*
X011658Y013111D01*
X011638Y013586D02*
X011684Y013586D01*
X011818Y013745D02*
X011514Y013745D01*
X012485Y013745D02*
X012818Y013745D01*
X012684Y013586D02*
X012619Y013586D01*
X012635Y013111D02*
X012668Y013111D01*
X012779Y012952D02*
X012524Y012952D01*
X013524Y012952D02*
X013779Y012952D01*
X013668Y013111D02*
X013635Y013111D01*
X013619Y013586D02*
X013684Y013586D01*
X013818Y013745D02*
X013485Y013745D01*
X007955Y012794D02*
X007595Y012794D01*
X007702Y012952D02*
X007722Y012952D01*
X005937Y015171D02*
X005294Y015171D01*
X004337Y015013D02*
X003730Y015013D01*
X003730Y014854D02*
X004138Y014854D01*
X004000Y014696D02*
X003730Y014696D01*
X003730Y014537D02*
X003905Y014537D01*
X003838Y014379D02*
X003730Y014379D01*
X003730Y014220D02*
X003794Y014220D01*
X003772Y014062D02*
X003730Y014062D01*
D22*
X005508Y016138D02*
X005508Y020744D01*
X004799Y021453D01*
X004524Y021453D01*
X004500Y021477D01*
X004642Y022240D02*
X004642Y022792D01*
X004996Y023146D01*
X004996Y025587D01*
X005020Y025612D01*
X004524Y026453D02*
X004500Y026477D01*
X004524Y026453D02*
X004524Y022988D01*
X004169Y022634D01*
X004142Y022612D01*
X004642Y022240D02*
X004996Y022240D01*
X005705Y021532D01*
X005705Y017870D01*
X008382Y015193D01*
X008382Y015036D01*
X008539Y014878D01*
X008553Y014870D01*
X007553Y014870D02*
X007516Y014878D01*
X007516Y015154D01*
X006177Y016492D01*
X006167Y016506D01*
X005508Y016138D02*
X006138Y015508D01*
X006167Y015506D01*
X006886Y016965D02*
X006886Y018225D01*
X005941Y019170D01*
X005941Y023776D01*
X005665Y023264D02*
X005665Y027555D01*
X004760Y028461D01*
X004524Y028461D01*
X004500Y028477D01*
X007201Y026571D02*
X006217Y025587D01*
X006217Y019445D01*
X006610Y020508D02*
X006610Y023067D01*
X006886Y023185D02*
X006689Y023382D01*
X006689Y024839D01*
X008106Y026256D01*
X008106Y027240D01*
X008224Y027359D01*
X008224Y028343D01*
X008815Y028933D01*
X013224Y028933D01*
X013224Y029957D01*
X013250Y029977D01*
X012500Y026477D02*
X012516Y026453D01*
X012516Y024721D01*
X012549Y024711D01*
X012549Y023711D02*
X012516Y023697D01*
X012516Y023185D01*
X013343Y022359D01*
X013343Y022162D01*
X013500Y022004D01*
X013500Y021977D01*
X012500Y021977D02*
X012476Y022004D01*
X011965Y022516D01*
X011965Y023028D01*
X011571Y023421D01*
X011571Y023697D01*
X011549Y023711D01*
X010941Y023107D02*
X010587Y023461D01*
X010587Y023697D01*
X010549Y023711D01*
X010941Y023107D02*
X010941Y022555D01*
X011492Y022004D01*
X011500Y021977D01*
X010500Y021977D02*
X010469Y022004D01*
X010311Y022162D01*
X010311Y022398D01*
X010075Y022634D01*
X010075Y022910D01*
X009563Y023421D01*
X009563Y023697D01*
X009549Y023711D01*
X008972Y023697D02*
X008972Y025784D01*
X008500Y026256D01*
X008500Y026477D01*
X008500Y028067D01*
X008579Y028146D01*
X008598Y028181D01*
X007240Y028618D02*
X007236Y028605D01*
X007240Y028618D02*
X007240Y029957D01*
X007250Y029977D01*
X007236Y026605D02*
X007201Y026571D01*
X007549Y024711D02*
X007516Y024681D01*
X007516Y024603D01*
X006886Y023973D01*
X006886Y023461D01*
X007083Y023264D01*
X007083Y020587D01*
X009366Y018303D01*
X009366Y018028D01*
X009524Y017870D01*
X009553Y017870D01*
X008553Y017870D02*
X008539Y017870D01*
X008382Y018028D01*
X008382Y018264D01*
X007909Y018736D01*
X007909Y019484D01*
X006886Y020508D01*
X006886Y023185D01*
X007516Y023697D02*
X007549Y023711D01*
X007516Y023697D02*
X007516Y020902D01*
X010547Y017870D01*
X010553Y017870D01*
X010941Y018264D02*
X010665Y018540D01*
X010665Y019839D01*
X009130Y021374D01*
X009130Y022398D01*
X008146Y023382D01*
X008146Y024248D01*
X008539Y024642D01*
X008539Y024681D01*
X008549Y024711D01*
X008549Y023711D02*
X008579Y023697D01*
X008579Y023225D01*
X009327Y022477D01*
X009327Y022162D01*
X009484Y022004D01*
X009500Y021977D01*
X009878Y021453D02*
X009878Y022792D01*
X008972Y023697D01*
X009524Y024721D02*
X009549Y024711D01*
X009524Y024721D02*
X009484Y024760D01*
X009484Y026453D01*
X009500Y026477D01*
X005665Y023264D02*
X005035Y022634D01*
X005020Y022612D01*
X006610Y020508D02*
X007713Y019406D01*
X007713Y018736D01*
X007673Y018697D01*
X007673Y017988D01*
X007555Y017870D01*
X007553Y017870D01*
X007634Y016965D02*
X006886Y016965D01*
X007634Y016965D02*
X009366Y015233D01*
X009366Y015036D01*
X009524Y014878D01*
X009553Y014870D01*
X010553Y014870D02*
X010587Y014878D01*
X010705Y014996D01*
X010705Y015272D01*
X010941Y015508D01*
X010941Y018264D01*
X011374Y018303D02*
X010862Y018815D01*
X010862Y020469D01*
X009878Y021453D01*
X008500Y021977D02*
X008500Y020547D01*
X010035Y019012D01*
X010043Y019012D01*
X011374Y018303D02*
X011374Y018028D01*
X011531Y017870D01*
X011553Y017870D01*
X012161Y018264D02*
X012161Y017359D01*
X011217Y016414D01*
X012161Y018264D02*
X013421Y019524D01*
X013421Y020469D01*
X014051Y021099D01*
X017161Y021099D01*
X017161Y022870D01*
X016492Y022004D02*
X016500Y021977D01*
X016492Y022004D02*
X015941Y022555D01*
X015941Y023107D01*
X015587Y023461D01*
X015587Y023697D01*
X015549Y023711D01*
X014549Y023711D02*
X014524Y023697D01*
X014524Y023185D01*
X015311Y022398D01*
X015311Y022162D01*
X015469Y022004D01*
X015500Y021977D01*
X015744Y020902D02*
X017516Y020902D01*
X017516Y021099D01*
X019602Y023185D01*
X019602Y023264D01*
X019610Y023286D01*
X019642Y023303D01*
X019642Y028421D01*
X019799Y028579D01*
X019803Y028616D01*
X019839Y028618D01*
X019917Y028697D01*
X019917Y030311D01*
X019951Y030317D01*
X014500Y026477D02*
X014484Y026453D01*
X014484Y024760D01*
X014524Y024721D01*
X014549Y024711D01*
X015744Y020902D02*
X015311Y020469D01*
X015311Y019484D01*
X014917Y019091D01*
X015114Y018500D02*
X014051Y019563D01*
X014051Y020193D01*
X014050Y020227D01*
X015950Y020227D02*
X015980Y020193D01*
X017417Y018756D01*
X016925Y018264D01*
X016925Y015469D01*
X016728Y015272D01*
X016728Y015036D01*
X016571Y014878D01*
X016553Y014870D01*
X015553Y014870D02*
X015547Y014878D01*
X015390Y015036D01*
X015390Y015272D01*
X015114Y015547D01*
X015114Y018500D01*
X017417Y018756D02*
X017791Y019130D01*
X017791Y019288D01*
X017823Y019323D01*
X018461Y019209D02*
X018461Y020587D01*
X018933Y019721D02*
X020390Y018264D01*
X020390Y018028D01*
X020547Y017870D01*
X020553Y017870D01*
X021217Y017752D02*
X021335Y017870D01*
X021335Y018500D01*
X021965Y019130D01*
X022161Y019130D01*
X022181Y019156D01*
X021217Y017752D02*
X021217Y017004D01*
X019248Y017004D01*
X018736Y017516D01*
X018736Y017713D01*
X018579Y017870D01*
X018553Y017870D01*
X019366Y018028D02*
X019366Y018303D01*
X018461Y019209D01*
X019366Y018028D02*
X019524Y017870D01*
X019553Y017870D01*
X019553Y014870D02*
X019563Y014839D01*
X020075Y014327D01*
X020075Y013382D01*
X020114Y013343D01*
X020152Y013329D01*
X019152Y013329D02*
X019130Y013343D01*
X019130Y014051D01*
X018736Y014445D01*
X018736Y014681D01*
X018579Y014839D01*
X018553Y014870D01*
X018146Y014051D02*
X018146Y013343D01*
X018152Y013329D01*
X018146Y014051D02*
X017713Y014484D01*
X017713Y014681D01*
X017555Y014839D01*
X017553Y014870D01*
D23*
X014917Y019091D03*
X018461Y020587D03*
X018933Y019721D03*
X017161Y022870D03*
X011217Y016414D03*
X006217Y019445D03*
X006610Y023067D03*
X005941Y023776D03*
M02*
