  0
SECTION
  2
HEADER
  9
$ACADVER
  1
AC1009
  9
$MEASUREMENT
 70
     1
  0
ENDSEC
  0
SECTION
  2
ENTITIES
  0
LWPOLYLINE
  8
0
 62
7
 90
5
 70
1
 10
3.283437
 20
26.245000
 10
3.283437
 20
27.143438
 10
1.686562
 20
27.143438
 10
1.686562
 20
25.346563
 10
3.283437
 20
25.346563
  0
LWPOLYLINE
  8
0
 62
7
 90
5
 70
1
 10
6.083438
 20
26.245000
 10
6.083438
 20
27.143438
 10
4.486562
 20
27.143438
 10
4.486562
 20
25.346563
 10
6.083438
 20
25.346563
  0
LWPOLYLINE
  8
0
 62
7
 90
5
 70
1
 10
11.355000
 20
18.671563
 10
12.253438
 20
18.671563
 10
12.253438
 20
20.268437
 10
10.456563
 20
20.268437
 10
10.456563
 20
18.671563
  0
LWPOLYLINE
  8
0
 62
7
 90
5
 70
1
 10
11.355000
 20
15.871563
 10
12.253438
 20
15.871563
 10
12.253438
 20
17.468438
 10
10.456563
 20
17.468438
 10
10.456563
 20
15.871563
  0
LWPOLYLINE
  8
0
 62
7
 90
5
 70
1
 10
8.920000
 20
18.711563
 10
9.818437
 20
18.711563
 10
9.818437
 20
20.308438
 10
8.021562
 20
20.308438
 10
8.021562
 20
18.711563
  0
LWPOLYLINE
  8
0
 62
7
 90
5
 70
1
 10
8.920000
 20
15.911563
 10
9.818437
 20
15.911563
 10
9.818437
 20
17.508437
 10
8.021562
 20
17.508437
 10
8.021562
 20
15.911563
  0
LWPOLYLINE
  8
0
 62
7
 90
5
 70
1
 10
43.450000
 20
7.893562
 10
44.349938
 20
7.893562
 10
44.349938
 20
9.490438
 10
42.550063
 20
9.490438
 10
42.550063
 20
7.893562
  0
LWPOLYLINE
  8
0
 62
7
 90
5
 70
1
 10
43.450000
 20
5.049562
 10
44.349938
 20
5.049562
 10
44.349938
 20
6.646438
 10
42.550063
 20
6.646438
 10
42.550063
 20
5.049562
  0
LWPOLYLINE
  8
0
 62
7
 90
5
 70
1
 10
43.505000
 20
11.611438
 10
42.605063
 20
11.611438
 10
42.605063
 20
10.014563
 10
44.404938
 20
10.014563
 10
44.404938
 20
11.611438
  0
LWPOLYLINE
  8
0
 62
7
 90
5
 70
1
 10
43.505000
 20
14.455438
 10
42.605063
 20
14.455438
 10
42.605063
 20
12.858562
 10
44.404938
 20
12.858562
 10
44.404938
 20
14.455438
  0
LWPOLYLINE
  8
0
 62
7
 90
5
 70
1
 10
37.943562
 20
16.270000
 10
37.943562
 20
15.370062
 10
39.540437
 20
15.370062
 10
39.540437
 20
17.169937
 10
37.943562
 20
17.169937
  0
LWPOLYLINE
  8
0
 62
7
 90
5
 70
1
 10
35.099563
 20
16.270000
 10
35.099563
 20
15.370062
 10
36.696438
 20
15.370062
 10
36.696438
 20
17.169937
 10
35.099563
 20
17.169937
  0
LWPOLYLINE
  8
0
 62
7
 90
5
 70
1
 10
16.848562
 20
30.505000
 10
16.848562
 20
29.605062
 10
18.445437
 20
29.605062
 10
18.445437
 20
31.404937
 10
16.848562
 20
31.404937
  0
LWPOLYLINE
  8
0
 62
7
 90
5
 70
1
 10
14.004563
 20
30.505000
 10
14.004563
 20
29.605062
 10
15.601438
 20
29.605062
 10
15.601438
 20
31.404937
 10
14.004563
 20
31.404937
  0
LWPOLYLINE
  8
0
 62
7
 90
5
 70
1
 10
17.138563
 20
26.610000
 10
17.138563
 20
25.710062
 10
18.735437
 20
25.710062
 10
18.735437
 20
27.509937
 10
17.138563
 20
27.509937
  0
LWPOLYLINE
  8
0
 62
7
 90
5
 70
1
 10
14.294562
 20
26.610000
 10
14.294562
 20
25.710062
 10
15.891438
 20
25.710062
 10
15.891438
 20
27.509937
 10
14.294562
 20
27.509937
  0
LWPOLYLINE
  8
0
 62
7
 90
5
 70
1
 10
20.320000
 20
27.316437
 10
19.420063
 20
27.316437
 10
19.420063
 20
25.719563
 10
21.219938
 20
25.719563
 10
21.219938
 20
27.316437
  0
LWPOLYLINE
  8
0
 62
7
 90
5
 70
1
 10
20.320000
 20
30.160437
 10
19.420063
 20
30.160437
 10
19.420063
 20
28.563562
 10
21.219938
 20
28.563562
 10
21.219938
 20
30.160437
  0
LWPOLYLINE
  8
0
 62
7
 90
5
 70
1
 10
22.860000
 20
28.563562
 10
23.759937
 20
28.563562
 10
23.759937
 20
30.160437
 10
21.960062
 20
30.160437
 10
21.960062
 20
28.563562
  0
LWPOLYLINE
  8
0
 62
7
 90
5
 70
1
 10
22.860000
 20
25.719563
 10
23.759937
 20
25.719563
 10
23.759937
 20
27.316437
 10
21.960062
 20
27.316437
 10
21.960062
 20
25.719563
  0
LWPOLYLINE
  8
0
 62
7
 90
5
 70
1
 10
25.400000
 20
27.316437
 10
24.500062
 20
27.316437
 10
24.500062
 20
25.719563
 10
26.299937
 20
25.719563
 10
26.299937
 20
27.316437
  0
LWPOLYLINE
  8
0
 62
7
 90
5
 70
1
 10
25.400000
 20
30.160437
 10
24.500062
 20
30.160437
 10
24.500062
 20
28.563562
 10
26.299937
 20
28.563562
 10
26.299937
 20
30.160437
  0
LWPOLYLINE
  8
0
 62
7
 90
5
 70
1
 10
27.940000
 20
27.316437
 10
27.040063
 20
27.316437
 10
27.040063
 20
25.719563
 10
28.839938
 20
25.719563
 10
28.839938
 20
27.316437
  0
LWPOLYLINE
  8
0
 62
7
 90
5
 70
1
 10
27.940000
 20
30.160437
 10
27.040063
 20
30.160437
 10
27.040063
 20
28.563562
 10
28.839938
 20
28.563562
 10
28.839938
 20
30.160437
  0
LWPOLYLINE
  8
0
 62
7
 90
5
 70
1
 10
30.480000
 20
27.316437
 10
29.580063
 20
27.316437
 10
29.580063
 20
25.719563
 10
31.379938
 20
25.719563
 10
31.379938
 20
27.316437
  0
LWPOLYLINE
  8
0
 62
7
 90
5
 70
1
 10
30.480000
 20
30.160437
 10
29.580063
 20
30.160437
 10
29.580063
 20
28.563562
 10
31.379938
 20
28.563562
 10
31.379938
 20
30.160437
  0
LWPOLYLINE
  8
0
 62
7
 90
5
 70
1
 10
33.020000
 20
27.316437
 10
32.120063
 20
27.316437
 10
32.120063
 20
25.719563
 10
33.919938
 20
25.719563
 10
33.919938
 20
27.316437
  0
LWPOLYLINE
  8
0
 62
7
 90
5
 70
1
 10
33.020000
 20
30.160437
 10
32.120063
 20
30.160437
 10
32.120063
 20
28.563562
 10
33.919938
 20
28.563562
 10
33.919938
 20
30.160437
  0
LWPOLYLINE
  8
0
 62
7
 90
5
 70
1
 10
35.560000
 20
27.316437
 10
34.660063
 20
27.316437
 10
34.660063
 20
25.719563
 10
36.459938
 20
25.719563
 10
36.459938
 20
27.316437
  0
LWPOLYLINE
  8
0
 62
7
 90
5
 70
1
 10
35.560000
 20
30.160437
 10
34.660063
 20
30.160437
 10
34.660063
 20
28.563562
 10
36.459938
 20
28.563562
 10
36.459938
 20
30.160437
  0
LWPOLYLINE
  8
0
 62
7
 90
5
 70
1
 10
33.020000
 20
19.673563
 10
33.919938
 20
19.673563
 10
33.919938
 20
21.270437
 10
32.120063
 20
21.270437
 10
32.120063
 20
19.673563
  0
LWPOLYLINE
  8
0
 62
7
 90
5
 70
1
 10
33.020000
 20
16.829563
 10
33.919938
 20
16.829563
 10
33.919938
 20
18.426437
 10
32.120063
 20
18.426437
 10
32.120063
 20
16.829563
  0
LWPOLYLINE
  8
0
 62
7
 90
5
 70
1
 10
30.480000
 20
19.673563
 10
31.379938
 20
19.673563
 10
31.379938
 20
21.270437
 10
29.580063
 20
21.270437
 10
29.580063
 20
19.673563
  0
LWPOLYLINE
  8
0
 62
7
 90
5
 70
1
 10
30.480000
 20
16.829563
 10
31.379938
 20
16.829563
 10
31.379938
 20
18.426437
 10
29.580063
 20
18.426437
 10
29.580063
 20
16.829563
  0
LWPOLYLINE
  8
0
 62
7
 90
5
 70
1
 10
27.940000
 20
19.673563
 10
28.839938
 20
19.673563
 10
28.839938
 20
21.270437
 10
27.040063
 20
21.270437
 10
27.040063
 20
19.673563
  0
LWPOLYLINE
  8
0
 62
7
 90
5
 70
1
 10
27.940000
 20
16.829563
 10
28.839938
 20
16.829563
 10
28.839938
 20
18.426437
 10
27.040063
 20
18.426437
 10
27.040063
 20
16.829563
  0
LWPOLYLINE
  8
0
 62
7
 90
5
 70
1
 10
25.400000
 20
19.673563
 10
26.299937
 20
19.673563
 10
26.299937
 20
21.270437
 10
24.500062
 20
21.270437
 10
24.500062
 20
19.673563
  0
LWPOLYLINE
  8
0
 62
7
 90
5
 70
1
 10
25.400000
 20
16.829563
 10
26.299937
 20
16.829563
 10
26.299937
 20
18.426437
 10
24.500062
 20
18.426437
 10
24.500062
 20
16.829563
  0
LWPOLYLINE
  8
0
 62
7
 90
5
 70
1
 10
22.860000
 20
19.673563
 10
23.759937
 20
19.673563
 10
23.759937
 20
21.270437
 10
21.960062
 20
21.270437
 10
21.960062
 20
19.673563
  0
LWPOLYLINE
  8
0
 62
7
 90
5
 70
1
 10
22.860000
 20
16.829563
 10
23.759937
 20
16.829563
 10
23.759937
 20
18.426437
 10
21.960062
 20
18.426437
 10
21.960062
 20
16.829563
  0
LWPOLYLINE
  8
0
 62
7
 90
5
 70
1
 10
20.320000
 20
19.673563
 10
21.219938
 20
19.673563
 10
21.219938
 20
21.270437
 10
19.420063
 20
21.270437
 10
19.420063
 20
19.673563
  0
LWPOLYLINE
  8
0
 62
7
 90
5
 70
1
 10
20.320000
 20
16.829563
 10
21.219938
 20
16.829563
 10
21.219938
 20
18.426437
 10
19.420063
 20
18.426437
 10
19.420063
 20
16.829563
  0
LWPOLYLINE
  8
0
 62
7
 90
5
 70
1
 10
17.780000
 20
19.673563
 10
18.679938
 20
19.673563
 10
18.679938
 20
21.270437
 10
16.880063
 20
21.270437
 10
16.880063
 20
19.673563
  0
LWPOLYLINE
  8
0
 62
7
 90
5
 70
1
 10
17.780000
 20
16.829563
 10
18.679938
 20
16.829563
 10
18.679938
 20
18.426437
 10
16.880063
 20
18.426437
 10
16.880063
 20
16.829563
  0
LWPOLYLINE
  8
0
 62
7
 90
5
 70
1
 10
15.240000
 20
19.673563
 10
16.139937
 20
19.673563
 10
16.139937
 20
21.270437
 10
14.340063
 20
21.270437
 10
14.340063
 20
19.673563
  0
LWPOLYLINE
  8
0
 62
7
 90
5
 70
1
 10
15.240000
 20
16.829563
 10
16.139937
 20
16.829563
 10
16.139937
 20
18.426437
 10
14.340063
 20
18.426437
 10
14.340063
 20
16.829563
  0
ENDSEC
  0
EOF
