G75*
G70*
%OFA0B0*%
%FSLAX24Y24*%
%IPPOS*%
%LPD*%
%AMOC8*
5,1,8,0,0,1.08239X$1,22.5*
%
%ADD10C,0.0000*%
%ADD11C,0.0060*%
%ADD12C,0.0030*%
%ADD13C,0.0300*%
%ADD14R,0.0300X0.0200*%
%ADD15R,0.0300X0.0400*%
%ADD16C,0.0050*%
%ADD17C,0.0070*%
%ADD18C,0.0100*%
%ADD19C,0.0160*%
%ADD20C,0.0080*%
%ADD21R,0.0150X0.0200*%
%ADD22C,0.0040*%
%ADD23R,0.0200X0.0300*%
%ADD24R,0.0400X0.0300*%
%ADD25C,0.0020*%
%ADD26R,0.0200X0.0150*%
D10*
X003500Y012477D02*
X003500Y031473D01*
X023000Y031477D01*
X022992Y012477D01*
X003500Y012477D01*
D11*
X003850Y013977D02*
X003852Y014044D01*
X003858Y014112D01*
X003868Y014179D01*
X003882Y014245D01*
X003899Y014310D01*
X003921Y014374D01*
X003946Y014437D01*
X003975Y014498D01*
X004007Y014557D01*
X004043Y014614D01*
X004082Y014669D01*
X004124Y014722D01*
X004169Y014772D01*
X004217Y014819D01*
X004268Y014864D01*
X004321Y014905D01*
X004377Y014944D01*
X004435Y014979D01*
X004495Y015010D01*
X004556Y015038D01*
X004619Y015062D01*
X004683Y015083D01*
X004749Y015099D01*
X004815Y015112D01*
X004882Y015121D01*
X004949Y015126D01*
X005017Y015127D01*
X005084Y015124D01*
X005151Y015117D01*
X005218Y015106D01*
X005284Y015091D01*
X005349Y015073D01*
X005413Y015050D01*
X005475Y015024D01*
X005536Y014995D01*
X005594Y014961D01*
X005651Y014925D01*
X005706Y014885D01*
X005758Y014842D01*
X005807Y014796D01*
X005854Y014747D01*
X005898Y014696D01*
X005938Y014642D01*
X005976Y014586D01*
X006010Y014527D01*
X006040Y014467D01*
X006067Y014405D01*
X006091Y014342D01*
X006110Y014277D01*
X006126Y014212D01*
X006138Y014145D01*
X006146Y014078D01*
X006150Y014011D01*
X006150Y013943D01*
X006146Y013876D01*
X006138Y013809D01*
X006126Y013742D01*
X006110Y013677D01*
X006091Y013612D01*
X006067Y013549D01*
X006040Y013487D01*
X006010Y013427D01*
X005976Y013368D01*
X005938Y013312D01*
X005898Y013258D01*
X005854Y013207D01*
X005807Y013158D01*
X005758Y013112D01*
X005706Y013069D01*
X005651Y013029D01*
X005594Y012993D01*
X005536Y012959D01*
X005475Y012930D01*
X005413Y012904D01*
X005349Y012881D01*
X005284Y012863D01*
X005218Y012848D01*
X005151Y012837D01*
X005084Y012830D01*
X005017Y012827D01*
X004949Y012828D01*
X004882Y012833D01*
X004815Y012842D01*
X004749Y012855D01*
X004683Y012871D01*
X004619Y012892D01*
X004556Y012916D01*
X004495Y012944D01*
X004435Y012975D01*
X004377Y013010D01*
X004321Y013049D01*
X004268Y013090D01*
X004217Y013135D01*
X004169Y013182D01*
X004124Y013232D01*
X004082Y013285D01*
X004043Y013340D01*
X004007Y013397D01*
X003975Y013456D01*
X003946Y013517D01*
X003921Y013580D01*
X003899Y013644D01*
X003882Y013709D01*
X003868Y013775D01*
X003858Y013842D01*
X003852Y013910D01*
X003850Y013977D01*
X003750Y015977D02*
X002750Y015977D01*
X002750Y016977D01*
X002750Y017977D01*
X002750Y018977D01*
X002750Y019977D01*
X002750Y020977D01*
X002750Y021977D01*
X003750Y021977D01*
X003750Y020977D01*
X002750Y020977D01*
X003750Y020977D02*
X003750Y019977D01*
X002750Y019977D01*
X003750Y019977D02*
X003750Y018977D01*
X002750Y018977D01*
X002750Y017977D02*
X003750Y017977D01*
X003750Y018977D01*
X003750Y017977D02*
X003750Y016977D01*
X002750Y016977D01*
X003750Y016977D02*
X003750Y015977D01*
X005667Y015156D02*
X005667Y016856D01*
X005669Y016873D01*
X005673Y016890D01*
X005680Y016906D01*
X005690Y016920D01*
X005703Y016933D01*
X005717Y016943D01*
X005733Y016950D01*
X005750Y016954D01*
X005767Y016956D01*
X006567Y016956D01*
X006584Y016954D01*
X006601Y016950D01*
X006617Y016943D01*
X006631Y016933D01*
X006644Y016920D01*
X006654Y016906D01*
X006661Y016890D01*
X006665Y016873D01*
X006667Y016856D01*
X006667Y015156D01*
X006665Y015139D01*
X006661Y015122D01*
X006654Y015106D01*
X006644Y015092D01*
X006631Y015079D01*
X006617Y015069D01*
X006601Y015062D01*
X006584Y015058D01*
X006567Y015056D01*
X005767Y015056D01*
X005750Y015058D01*
X005733Y015062D01*
X005717Y015069D01*
X005703Y015079D01*
X005690Y015092D01*
X005680Y015106D01*
X005673Y015122D01*
X005669Y015139D01*
X005667Y015156D01*
X006167Y015856D02*
X006167Y015906D01*
X006167Y016106D02*
X006167Y016156D01*
X006753Y016120D02*
X006753Y015270D01*
X021353Y015270D01*
X021353Y017470D01*
X006753Y017470D01*
X006753Y016620D01*
X006783Y016618D01*
X006813Y016613D01*
X006842Y016604D01*
X006869Y016591D01*
X006895Y016576D01*
X006919Y016557D01*
X006940Y016536D01*
X006959Y016512D01*
X006974Y016486D01*
X006987Y016459D01*
X006996Y016430D01*
X007001Y016400D01*
X007003Y016370D01*
X007001Y016340D01*
X006996Y016310D01*
X006987Y016281D01*
X006974Y016254D01*
X006959Y016228D01*
X006940Y016204D01*
X006919Y016183D01*
X006895Y016164D01*
X006869Y016149D01*
X006842Y016136D01*
X006813Y016127D01*
X006783Y016122D01*
X006753Y016120D01*
X007643Y018612D02*
X007793Y018612D01*
X007843Y018662D01*
X009243Y018662D01*
X009293Y018612D01*
X009443Y018612D01*
X009460Y018614D01*
X009477Y018618D01*
X009493Y018625D01*
X009507Y018635D01*
X009520Y018648D01*
X009530Y018662D01*
X009537Y018678D01*
X009541Y018695D01*
X009543Y018712D01*
X009543Y019312D01*
X009541Y019329D01*
X009537Y019346D01*
X009530Y019362D01*
X009520Y019376D01*
X009507Y019389D01*
X009493Y019399D01*
X009477Y019406D01*
X009460Y019410D01*
X009443Y019412D01*
X009293Y019412D01*
X009243Y019362D01*
X007843Y019362D01*
X007793Y019412D01*
X007643Y019412D01*
X007626Y019410D01*
X007609Y019406D01*
X007593Y019399D01*
X007579Y019389D01*
X007566Y019376D01*
X007556Y019362D01*
X007549Y019346D01*
X007545Y019329D01*
X007543Y019312D01*
X007543Y018712D01*
X007545Y018695D01*
X007549Y018678D01*
X007556Y018662D01*
X007566Y018648D01*
X007579Y018635D01*
X007593Y018625D01*
X007609Y018618D01*
X007626Y018614D01*
X007643Y018612D01*
X008000Y021477D02*
X009000Y021477D01*
X017000Y021477D01*
X017000Y022477D01*
X009000Y022477D01*
X008000Y022477D01*
X008250Y022227D01*
X008000Y022477D02*
X008000Y021477D01*
X008250Y021727D01*
X008750Y021727D02*
X009000Y021477D01*
X009000Y022477D01*
X008750Y022227D01*
X011722Y020622D02*
X011722Y018922D01*
X011724Y018905D01*
X011728Y018888D01*
X011735Y018872D01*
X011745Y018858D01*
X011758Y018845D01*
X011772Y018835D01*
X011788Y018828D01*
X011805Y018824D01*
X011822Y018822D01*
X012622Y018822D01*
X012639Y018824D01*
X012656Y018828D01*
X012672Y018835D01*
X012686Y018845D01*
X012699Y018858D01*
X012709Y018872D01*
X012716Y018888D01*
X012720Y018905D01*
X012722Y018922D01*
X012722Y020622D01*
X012720Y020639D01*
X012716Y020656D01*
X012709Y020672D01*
X012699Y020686D01*
X012686Y020699D01*
X012672Y020709D01*
X012656Y020716D01*
X012639Y020720D01*
X012622Y020722D01*
X011822Y020722D01*
X011805Y020720D01*
X011788Y020716D01*
X011772Y020709D01*
X011758Y020699D01*
X011745Y020686D01*
X011735Y020672D01*
X011728Y020656D01*
X011724Y020639D01*
X011722Y020622D01*
X012222Y019922D02*
X012222Y019872D01*
X012222Y019672D02*
X012222Y019622D01*
X013800Y019577D02*
X016200Y019577D01*
X016250Y019579D01*
X016299Y019585D01*
X016348Y019594D01*
X016396Y019607D01*
X016443Y019624D01*
X016488Y019644D01*
X016532Y019668D01*
X016574Y019695D01*
X016614Y019726D01*
X016651Y019759D01*
X016685Y019795D01*
X016717Y019833D01*
X016746Y019874D01*
X016771Y019916D01*
X016793Y019961D01*
X016812Y020007D01*
X016827Y020055D01*
X016838Y020103D01*
X016846Y020152D01*
X016850Y020202D01*
X016850Y020252D01*
X016846Y020302D01*
X016838Y020351D01*
X016827Y020399D01*
X016812Y020447D01*
X016793Y020493D01*
X016771Y020538D01*
X016746Y020580D01*
X016717Y020621D01*
X016685Y020659D01*
X016651Y020695D01*
X016614Y020728D01*
X016574Y020759D01*
X016532Y020786D01*
X016488Y020810D01*
X016443Y020830D01*
X016396Y020847D01*
X016348Y020860D01*
X016299Y020869D01*
X016250Y020875D01*
X016200Y020877D01*
X013800Y020877D01*
X013750Y020875D01*
X013701Y020869D01*
X013652Y020860D01*
X013604Y020847D01*
X013557Y020830D01*
X013512Y020810D01*
X013468Y020786D01*
X013426Y020759D01*
X013386Y020728D01*
X013349Y020695D01*
X013315Y020659D01*
X013283Y020621D01*
X013254Y020580D01*
X013229Y020538D01*
X013207Y020493D01*
X013188Y020447D01*
X013173Y020399D01*
X013162Y020351D01*
X013154Y020302D01*
X013150Y020252D01*
X013150Y020202D01*
X013154Y020152D01*
X013162Y020103D01*
X013173Y020055D01*
X013188Y020007D01*
X013207Y019961D01*
X013229Y019916D01*
X013254Y019874D01*
X013283Y019833D01*
X013315Y019795D01*
X013349Y019759D01*
X013386Y019726D01*
X013426Y019695D01*
X013468Y019668D01*
X013512Y019644D01*
X013557Y019624D01*
X013604Y019607D01*
X013652Y019594D01*
X013701Y019585D01*
X013750Y019579D01*
X013800Y019577D01*
X014500Y020227D02*
X014750Y020227D01*
X014750Y019927D01*
X014900Y019927D02*
X014900Y020527D01*
X015100Y020527D01*
X015100Y019927D01*
X014900Y019927D01*
X014750Y020227D02*
X014750Y020527D01*
X015250Y020527D02*
X015250Y020227D01*
X015500Y020227D01*
X015250Y020227D02*
X015250Y019927D01*
X017323Y020673D02*
X017323Y018973D01*
X017325Y018956D01*
X017329Y018939D01*
X017336Y018923D01*
X017346Y018909D01*
X017359Y018896D01*
X017373Y018886D01*
X017389Y018879D01*
X017406Y018875D01*
X017423Y018873D01*
X018223Y018873D01*
X018240Y018875D01*
X018257Y018879D01*
X018273Y018886D01*
X018287Y018896D01*
X018300Y018909D01*
X018310Y018923D01*
X018317Y018939D01*
X018321Y018956D01*
X018323Y018973D01*
X018323Y020673D01*
X018321Y020690D01*
X018317Y020707D01*
X018310Y020723D01*
X018300Y020737D01*
X018287Y020750D01*
X018273Y020760D01*
X018257Y020767D01*
X018240Y020771D01*
X018223Y020773D01*
X017423Y020773D01*
X017406Y020771D01*
X017389Y020767D01*
X017373Y020760D01*
X017359Y020750D01*
X017346Y020737D01*
X017336Y020723D01*
X017329Y020707D01*
X017325Y020690D01*
X017323Y020673D01*
X017823Y019973D02*
X017823Y019923D01*
X017823Y019723D02*
X017823Y019673D01*
X020263Y019800D02*
X020369Y019693D01*
X020476Y019693D01*
X020583Y019800D01*
X020583Y020013D01*
X020690Y020120D01*
X020796Y020120D01*
X020903Y020013D01*
X020903Y019800D01*
X020796Y019693D01*
X020796Y019476D02*
X020903Y019369D01*
X020903Y019155D01*
X020796Y019049D01*
X020369Y019049D01*
X020263Y019155D01*
X020263Y019369D01*
X020369Y019476D01*
X020263Y019800D02*
X020263Y020013D01*
X020369Y020120D01*
X020263Y020338D02*
X020263Y020658D01*
X020369Y020765D01*
X020583Y020765D01*
X020690Y020658D01*
X020690Y020338D01*
X020903Y020338D02*
X020263Y020338D01*
X020263Y018832D02*
X020263Y018619D01*
X020263Y018726D02*
X020903Y018726D01*
X020903Y018832D02*
X020903Y018619D01*
X021857Y016758D02*
X022457Y016758D01*
X022474Y016756D01*
X022491Y016752D01*
X022507Y016745D01*
X022521Y016735D01*
X022534Y016722D01*
X022544Y016708D01*
X022551Y016692D01*
X022555Y016675D01*
X022557Y016658D01*
X022557Y016508D01*
X022507Y016458D01*
X022507Y015058D01*
X022557Y015008D01*
X022557Y014858D01*
X022555Y014841D01*
X022551Y014824D01*
X022544Y014808D01*
X022534Y014794D01*
X022521Y014781D01*
X022507Y014771D01*
X022491Y014764D01*
X022474Y014760D01*
X022457Y014758D01*
X021857Y014758D01*
X021840Y014760D01*
X021823Y014764D01*
X021807Y014771D01*
X021793Y014781D01*
X021780Y014794D01*
X021770Y014808D01*
X021763Y014824D01*
X021759Y014841D01*
X021757Y014858D01*
X021757Y015008D01*
X021807Y015058D01*
X021807Y016458D01*
X021757Y016508D01*
X021757Y016658D01*
X021759Y016675D01*
X021763Y016692D01*
X021770Y016708D01*
X021780Y016722D01*
X021793Y016735D01*
X021807Y016745D01*
X021823Y016752D01*
X021840Y016756D01*
X021857Y016758D01*
X017000Y025977D02*
X009000Y025977D01*
X009000Y026977D01*
X008000Y026977D01*
X008250Y026727D01*
X008000Y026977D02*
X008000Y025977D01*
X009000Y025977D01*
X008750Y026227D01*
X008750Y026727D02*
X009000Y026977D01*
X017000Y026977D01*
X017000Y025977D01*
X016435Y028136D02*
X018135Y028136D01*
X018152Y028138D01*
X018169Y028142D01*
X018185Y028149D01*
X018199Y028159D01*
X018212Y028172D01*
X018222Y028186D01*
X018229Y028202D01*
X018233Y028219D01*
X018235Y028236D01*
X018235Y029036D01*
X018233Y029053D01*
X018229Y029070D01*
X018222Y029086D01*
X018212Y029100D01*
X018199Y029113D01*
X018185Y029123D01*
X018169Y029130D01*
X018152Y029134D01*
X018135Y029136D01*
X016435Y029136D01*
X016418Y029134D01*
X016401Y029130D01*
X016385Y029123D01*
X016371Y029113D01*
X016358Y029100D01*
X016348Y029086D01*
X016341Y029070D01*
X016337Y029053D01*
X016335Y029036D01*
X016335Y028236D01*
X016337Y028219D01*
X016341Y028202D01*
X016348Y028186D01*
X016358Y028172D01*
X016371Y028159D01*
X016385Y028149D01*
X016401Y028142D01*
X016418Y028138D01*
X016435Y028136D01*
X017135Y028636D02*
X017185Y028636D01*
X017385Y028636D02*
X017435Y028636D01*
X018353Y029016D02*
X018353Y028216D01*
X018355Y028199D01*
X018359Y028182D01*
X018366Y028166D01*
X018376Y028152D01*
X018389Y028139D01*
X018403Y028129D01*
X018419Y028122D01*
X018436Y028118D01*
X018453Y028116D01*
X020153Y028116D01*
X020170Y028118D01*
X020187Y028122D01*
X020203Y028129D01*
X020217Y028139D01*
X020230Y028152D01*
X020240Y028166D01*
X020247Y028182D01*
X020251Y028199D01*
X020253Y028216D01*
X020253Y029016D01*
X020251Y029033D01*
X020247Y029050D01*
X020240Y029066D01*
X020230Y029080D01*
X020217Y029093D01*
X020203Y029103D01*
X020187Y029110D01*
X020170Y029114D01*
X020153Y029116D01*
X018453Y029116D01*
X018436Y029114D01*
X018419Y029110D01*
X018403Y029103D01*
X018389Y029093D01*
X018376Y029080D01*
X018366Y029066D01*
X018359Y029050D01*
X018355Y029033D01*
X018353Y029016D01*
X019153Y028616D02*
X019203Y028616D01*
X019403Y028616D02*
X019453Y028616D01*
X019351Y029917D02*
X019201Y029917D01*
X019151Y029967D01*
X017751Y029967D01*
X017701Y029917D01*
X017551Y029917D01*
X017534Y029919D01*
X017517Y029923D01*
X017501Y029930D01*
X017487Y029940D01*
X017474Y029953D01*
X017464Y029967D01*
X017457Y029983D01*
X017453Y030000D01*
X017451Y030017D01*
X017451Y030617D01*
X017453Y030634D01*
X017457Y030651D01*
X017464Y030667D01*
X017474Y030681D01*
X017487Y030694D01*
X017501Y030704D01*
X017517Y030711D01*
X017534Y030715D01*
X017551Y030717D01*
X017701Y030717D01*
X017751Y030667D01*
X019151Y030667D01*
X019201Y030717D01*
X019351Y030717D01*
X019368Y030715D01*
X019385Y030711D01*
X019401Y030704D01*
X019415Y030694D01*
X019428Y030681D01*
X019438Y030667D01*
X019445Y030651D01*
X019449Y030634D01*
X019451Y030617D01*
X019451Y030017D01*
X019449Y030000D01*
X019445Y029983D01*
X019438Y029967D01*
X019428Y029953D01*
X019415Y029940D01*
X019401Y029930D01*
X019385Y029923D01*
X019368Y029919D01*
X019351Y029917D01*
X020350Y029977D02*
X020352Y030044D01*
X020358Y030112D01*
X020368Y030179D01*
X020382Y030245D01*
X020399Y030310D01*
X020421Y030374D01*
X020446Y030437D01*
X020475Y030498D01*
X020507Y030557D01*
X020543Y030614D01*
X020582Y030669D01*
X020624Y030722D01*
X020669Y030772D01*
X020717Y030819D01*
X020768Y030864D01*
X020821Y030905D01*
X020877Y030944D01*
X020935Y030979D01*
X020995Y031010D01*
X021056Y031038D01*
X021119Y031062D01*
X021183Y031083D01*
X021249Y031099D01*
X021315Y031112D01*
X021382Y031121D01*
X021449Y031126D01*
X021517Y031127D01*
X021584Y031124D01*
X021651Y031117D01*
X021718Y031106D01*
X021784Y031091D01*
X021849Y031073D01*
X021913Y031050D01*
X021975Y031024D01*
X022036Y030995D01*
X022094Y030961D01*
X022151Y030925D01*
X022206Y030885D01*
X022258Y030842D01*
X022307Y030796D01*
X022354Y030747D01*
X022398Y030696D01*
X022438Y030642D01*
X022476Y030586D01*
X022510Y030527D01*
X022540Y030467D01*
X022567Y030405D01*
X022591Y030342D01*
X022610Y030277D01*
X022626Y030212D01*
X022638Y030145D01*
X022646Y030078D01*
X022650Y030011D01*
X022650Y029943D01*
X022646Y029876D01*
X022638Y029809D01*
X022626Y029742D01*
X022610Y029677D01*
X022591Y029612D01*
X022567Y029549D01*
X022540Y029487D01*
X022510Y029427D01*
X022476Y029368D01*
X022438Y029312D01*
X022398Y029258D01*
X022354Y029207D01*
X022307Y029158D01*
X022258Y029112D01*
X022206Y029069D01*
X022151Y029029D01*
X022094Y028993D01*
X022036Y028959D01*
X021975Y028930D01*
X021913Y028904D01*
X021849Y028881D01*
X021784Y028863D01*
X021718Y028848D01*
X021651Y028837D01*
X021584Y028830D01*
X021517Y028827D01*
X021449Y028828D01*
X021382Y028833D01*
X021315Y028842D01*
X021249Y028855D01*
X021183Y028871D01*
X021119Y028892D01*
X021056Y028916D01*
X020995Y028944D01*
X020935Y028975D01*
X020877Y029010D01*
X020821Y029049D01*
X020768Y029090D01*
X020717Y029135D01*
X020669Y029182D01*
X020624Y029232D01*
X020582Y029285D01*
X020543Y029340D01*
X020507Y029397D01*
X020475Y029456D01*
X020446Y029517D01*
X020421Y029580D01*
X020399Y029644D01*
X020382Y029709D01*
X020368Y029775D01*
X020358Y029842D01*
X020352Y029910D01*
X020350Y029977D01*
X015750Y030727D02*
X015750Y031727D01*
X014750Y031727D01*
X013750Y031727D01*
X012750Y031727D01*
X011750Y031727D01*
X011750Y030727D01*
X012750Y030727D01*
X013750Y030727D01*
X014750Y030727D01*
X015750Y030727D01*
X014750Y030727D02*
X014750Y031727D01*
X013750Y031727D02*
X013750Y030727D01*
X012750Y030727D02*
X012750Y031727D01*
X010750Y031727D02*
X010750Y030727D01*
X009750Y030727D01*
X009750Y031727D01*
X010750Y031727D01*
X009750Y031727D02*
X008750Y031727D01*
X007750Y031727D01*
X006750Y031727D01*
X006750Y030727D01*
X007750Y030727D01*
X008750Y030727D01*
X009750Y030727D01*
X008750Y030727D02*
X008750Y031727D01*
X007750Y031727D02*
X007750Y030727D01*
X007636Y029105D02*
X006836Y029105D01*
X006736Y029005D01*
X006736Y028205D01*
X006836Y028105D01*
X006736Y028005D01*
X006736Y027205D01*
X006836Y027105D01*
X006736Y027005D01*
X006736Y026205D01*
X006836Y026105D01*
X007636Y026105D01*
X007736Y026205D01*
X007736Y027005D01*
X007636Y027105D01*
X007736Y027205D01*
X007736Y028005D01*
X007636Y028105D01*
X007736Y028205D01*
X007736Y029005D01*
X007636Y029105D01*
X009098Y028481D02*
X009098Y027881D01*
X009100Y027864D01*
X009104Y027847D01*
X009111Y027831D01*
X009121Y027817D01*
X009134Y027804D01*
X009148Y027794D01*
X009164Y027787D01*
X009181Y027783D01*
X009198Y027781D01*
X009348Y027781D01*
X009398Y027831D01*
X010798Y027831D01*
X010848Y027781D01*
X010998Y027781D01*
X011015Y027783D01*
X011032Y027787D01*
X011048Y027794D01*
X011062Y027804D01*
X011075Y027817D01*
X011085Y027831D01*
X011092Y027847D01*
X011096Y027864D01*
X011098Y027881D01*
X011098Y028481D01*
X011096Y028498D01*
X011092Y028515D01*
X011085Y028531D01*
X011075Y028545D01*
X011062Y028558D01*
X011048Y028568D01*
X011032Y028575D01*
X011015Y028579D01*
X010998Y028581D01*
X010848Y028581D01*
X010798Y028531D01*
X009398Y028531D01*
X009348Y028581D01*
X009198Y028581D01*
X009181Y028579D01*
X009164Y028575D01*
X009148Y028568D01*
X009134Y028558D01*
X009121Y028545D01*
X009111Y028531D01*
X009104Y028515D01*
X009100Y028498D01*
X009098Y028481D01*
X008250Y026227D02*
X008000Y025977D01*
X005420Y025012D02*
X005420Y024862D01*
X005370Y024812D01*
X005370Y023412D01*
X005420Y023362D01*
X005420Y023212D01*
X005418Y023195D01*
X005414Y023178D01*
X005407Y023162D01*
X005397Y023148D01*
X005384Y023135D01*
X005370Y023125D01*
X005354Y023118D01*
X005337Y023114D01*
X005320Y023112D01*
X004720Y023112D01*
X004703Y023114D01*
X004686Y023118D01*
X004670Y023125D01*
X004656Y023135D01*
X004643Y023148D01*
X004633Y023162D01*
X004626Y023178D01*
X004622Y023195D01*
X004620Y023212D01*
X004620Y023362D01*
X004670Y023412D01*
X004670Y024812D01*
X004620Y024862D01*
X004620Y025012D01*
X004542Y025012D02*
X004542Y024862D01*
X004492Y024812D01*
X004492Y023412D01*
X004542Y023362D01*
X004542Y023212D01*
X004540Y023195D01*
X004536Y023178D01*
X004529Y023162D01*
X004519Y023148D01*
X004506Y023135D01*
X004492Y023125D01*
X004476Y023118D01*
X004459Y023114D01*
X004442Y023112D01*
X003842Y023112D01*
X003825Y023114D01*
X003808Y023118D01*
X003792Y023125D01*
X003778Y023135D01*
X003765Y023148D01*
X003755Y023162D01*
X003748Y023178D01*
X003744Y023195D01*
X003742Y023212D01*
X003742Y023362D01*
X003792Y023412D01*
X003792Y024812D01*
X003742Y024862D01*
X003742Y025012D01*
X003744Y025029D01*
X003748Y025046D01*
X003755Y025062D01*
X003765Y025076D01*
X003778Y025089D01*
X003792Y025099D01*
X003808Y025106D01*
X003825Y025110D01*
X003842Y025112D01*
X004442Y025112D01*
X004459Y025110D01*
X004476Y025106D01*
X004492Y025099D01*
X004506Y025089D01*
X004519Y025076D01*
X004529Y025062D01*
X004536Y025046D01*
X004540Y025029D01*
X004542Y025012D01*
X004620Y025012D02*
X004622Y025029D01*
X004626Y025046D01*
X004633Y025062D01*
X004643Y025076D01*
X004656Y025089D01*
X004670Y025099D01*
X004686Y025106D01*
X004703Y025110D01*
X004720Y025112D01*
X005320Y025112D01*
X005337Y025110D01*
X005354Y025106D01*
X005370Y025099D01*
X005384Y025089D01*
X005397Y025076D01*
X005407Y025062D01*
X005414Y025046D01*
X005418Y025029D01*
X005420Y025012D01*
X005000Y026477D02*
X004850Y026477D01*
X005000Y026477D02*
X005000Y028477D01*
X004850Y028477D01*
X004150Y028477D02*
X004000Y028477D01*
X004000Y026477D01*
X004150Y026477D01*
X003771Y030065D02*
X003773Y030132D01*
X003779Y030200D01*
X003789Y030267D01*
X003803Y030333D01*
X003820Y030398D01*
X003842Y030462D01*
X003867Y030525D01*
X003896Y030586D01*
X003928Y030645D01*
X003964Y030702D01*
X004003Y030757D01*
X004045Y030810D01*
X004090Y030860D01*
X004138Y030907D01*
X004189Y030952D01*
X004242Y030993D01*
X004298Y031032D01*
X004356Y031067D01*
X004416Y031098D01*
X004477Y031126D01*
X004540Y031150D01*
X004604Y031171D01*
X004670Y031187D01*
X004736Y031200D01*
X004803Y031209D01*
X004870Y031214D01*
X004938Y031215D01*
X005005Y031212D01*
X005072Y031205D01*
X005139Y031194D01*
X005205Y031179D01*
X005270Y031161D01*
X005334Y031138D01*
X005396Y031112D01*
X005457Y031083D01*
X005515Y031049D01*
X005572Y031013D01*
X005627Y030973D01*
X005679Y030930D01*
X005728Y030884D01*
X005775Y030835D01*
X005819Y030784D01*
X005859Y030730D01*
X005897Y030674D01*
X005931Y030615D01*
X005961Y030555D01*
X005988Y030493D01*
X006012Y030430D01*
X006031Y030365D01*
X006047Y030300D01*
X006059Y030233D01*
X006067Y030166D01*
X006071Y030099D01*
X006071Y030031D01*
X006067Y029964D01*
X006059Y029897D01*
X006047Y029830D01*
X006031Y029765D01*
X006012Y029700D01*
X005988Y029637D01*
X005961Y029575D01*
X005931Y029515D01*
X005897Y029456D01*
X005859Y029400D01*
X005819Y029346D01*
X005775Y029295D01*
X005728Y029246D01*
X005679Y029200D01*
X005627Y029157D01*
X005572Y029117D01*
X005515Y029081D01*
X005457Y029047D01*
X005396Y029018D01*
X005334Y028992D01*
X005270Y028969D01*
X005205Y028951D01*
X005139Y028936D01*
X005072Y028925D01*
X005005Y028918D01*
X004938Y028915D01*
X004870Y028916D01*
X004803Y028921D01*
X004736Y028930D01*
X004670Y028943D01*
X004604Y028959D01*
X004540Y028980D01*
X004477Y029004D01*
X004416Y029032D01*
X004356Y029063D01*
X004298Y029098D01*
X004242Y029137D01*
X004189Y029178D01*
X004138Y029223D01*
X004090Y029270D01*
X004045Y029320D01*
X004003Y029373D01*
X003964Y029428D01*
X003928Y029485D01*
X003896Y029544D01*
X003867Y029605D01*
X003842Y029668D01*
X003820Y029732D01*
X003803Y029797D01*
X003789Y029863D01*
X003779Y029930D01*
X003773Y029998D01*
X003771Y030065D01*
D12*
X005121Y021479D02*
X005266Y021479D01*
X005315Y021430D01*
X005315Y021237D01*
X005266Y021188D01*
X005121Y021188D01*
X005121Y021479D01*
X005416Y021479D02*
X005609Y021479D01*
X005513Y021479D02*
X005513Y021188D01*
X005711Y021188D02*
X005711Y021479D01*
X005856Y021479D01*
X005904Y021430D01*
X005904Y021334D01*
X005856Y021285D01*
X005711Y021285D01*
X005807Y021285D02*
X005904Y021188D01*
X005609Y020479D02*
X005416Y020188D01*
X005315Y020188D02*
X005218Y020285D01*
X005266Y020285D02*
X005121Y020285D01*
X005121Y020188D02*
X005121Y020479D01*
X005266Y020479D01*
X005315Y020430D01*
X005315Y020334D01*
X005266Y020285D01*
X005416Y020479D02*
X005609Y020188D01*
X005609Y019479D02*
X005416Y019188D01*
X005609Y019188D02*
X005416Y019479D01*
X005315Y019479D02*
X005121Y019479D01*
X005218Y019479D02*
X005218Y019188D01*
X005416Y018479D02*
X005416Y018237D01*
X005464Y018188D01*
X005561Y018188D01*
X005609Y018237D01*
X005609Y018479D01*
X005711Y018430D02*
X005711Y018382D01*
X005759Y018334D01*
X005856Y018334D01*
X005904Y018285D01*
X005904Y018237D01*
X005856Y018188D01*
X005759Y018188D01*
X005711Y018237D01*
X005711Y018430D02*
X005759Y018479D01*
X005856Y018479D01*
X005904Y018430D01*
X006005Y018479D02*
X006150Y018479D01*
X006199Y018430D01*
X006199Y018382D01*
X006150Y018334D01*
X006005Y018334D01*
X006005Y018479D02*
X006005Y018188D01*
X006150Y018188D01*
X006199Y018237D01*
X006199Y018285D01*
X006150Y018334D01*
X006150Y017479D02*
X006005Y017479D01*
X006005Y017188D01*
X006150Y017188D01*
X006199Y017237D01*
X006199Y017430D01*
X006150Y017479D01*
X005904Y017479D02*
X005904Y017188D01*
X005711Y017479D01*
X005711Y017188D01*
X005609Y017237D02*
X005609Y017334D01*
X005513Y017334D01*
X005609Y017430D02*
X005561Y017479D01*
X005464Y017479D01*
X005416Y017430D01*
X005416Y017237D01*
X005464Y017188D01*
X005561Y017188D01*
X005609Y017237D01*
X005315Y017334D02*
X005121Y017334D01*
X005218Y018237D02*
X005218Y018430D01*
X005121Y018334D02*
X005315Y018334D01*
X021076Y018075D02*
X021124Y018075D01*
X021221Y018075D02*
X021414Y018075D01*
X021414Y018123D02*
X021414Y018026D01*
X021414Y017925D02*
X021124Y017925D01*
X021221Y017829D01*
X021124Y017732D01*
X021414Y017732D01*
X021221Y018026D02*
X021221Y018075D01*
X021269Y018223D02*
X021221Y018271D01*
X021221Y018416D01*
X021317Y018368D02*
X021317Y018271D01*
X021269Y018223D01*
X021414Y018223D02*
X021414Y018368D01*
X021366Y018416D01*
X021317Y018368D01*
X021269Y018518D02*
X021366Y018518D01*
X021414Y018566D01*
X021414Y018663D01*
X021366Y018711D01*
X021269Y018711D01*
X021221Y018663D01*
X021221Y018566D01*
X021269Y018518D01*
X021221Y018799D02*
X021269Y018847D01*
X021269Y018944D01*
X021317Y018992D01*
X021366Y018992D01*
X021414Y018944D01*
X021414Y018847D01*
X021366Y018799D01*
X021221Y018799D02*
X021172Y018799D01*
X021124Y018847D01*
X021124Y018944D01*
X021172Y018992D01*
X021269Y019093D02*
X021366Y019093D01*
X021414Y019142D01*
X021414Y019287D01*
X021414Y019388D02*
X021124Y019388D01*
X021221Y019287D02*
X021221Y019142D01*
X021269Y019093D01*
X021317Y019388D02*
X021221Y019533D01*
X021317Y019388D02*
X021414Y019533D01*
X021414Y019700D02*
X021124Y019700D01*
X021124Y019845D01*
X021172Y019894D01*
X021269Y019894D01*
X021317Y019845D01*
X021317Y019700D01*
X021317Y019797D02*
X021414Y019894D01*
X021366Y019995D02*
X021414Y020043D01*
X021414Y020140D01*
X021317Y020188D02*
X021317Y019995D01*
X021269Y019995D02*
X021221Y020043D01*
X021221Y020140D01*
X021269Y020188D01*
X021317Y020188D01*
X021269Y020290D02*
X021221Y020338D01*
X021221Y020483D01*
X021317Y020435D02*
X021317Y020338D01*
X021269Y020290D01*
X021414Y020290D02*
X021414Y020435D01*
X021366Y020483D01*
X021317Y020435D01*
X021317Y020584D02*
X021317Y020778D01*
X021269Y020778D01*
X021221Y020729D01*
X021221Y020633D01*
X021269Y020584D01*
X021366Y020584D01*
X021414Y020633D01*
X021414Y020729D01*
X021366Y020927D02*
X021414Y020976D01*
X021366Y020927D02*
X021172Y020927D01*
X021221Y020879D02*
X021221Y020976D01*
X021269Y019995D02*
X021366Y019995D01*
D13*
X015250Y031977D02*
X015250Y034227D01*
X014250Y034227D02*
X014250Y031977D01*
X013250Y031977D02*
X013250Y034227D01*
X012250Y034227D02*
X012250Y031977D01*
X010250Y031977D02*
X010250Y034227D01*
X009250Y034227D02*
X009250Y031977D01*
X008250Y031977D02*
X008250Y034227D01*
X007250Y034227D02*
X007250Y031977D01*
X002500Y021477D02*
X000250Y021477D01*
X000250Y020477D02*
X002500Y020477D01*
X002500Y019477D02*
X000250Y019477D01*
X000250Y018477D02*
X002500Y018477D01*
X002500Y017477D02*
X000250Y017477D01*
X000250Y016477D02*
X002500Y016477D01*
D14*
X007250Y031827D03*
X008250Y031827D03*
X009250Y031827D03*
X010250Y031827D03*
X012250Y031827D03*
X013250Y031827D03*
X014250Y031827D03*
X015250Y031827D03*
D15*
X015250Y030527D03*
X014250Y030527D03*
X013250Y030527D03*
X012250Y030527D03*
X010250Y030527D03*
X009250Y030527D03*
X008250Y030527D03*
X007250Y030527D03*
D16*
X006613Y030591D02*
X006613Y030892D01*
X006613Y031052D02*
X006162Y031052D01*
X006162Y031277D01*
X006237Y031352D01*
X006388Y031352D01*
X006463Y031277D01*
X006463Y031052D01*
X006388Y030742D02*
X006388Y030591D01*
X006613Y030591D02*
X006162Y030591D01*
X006162Y030892D01*
X006162Y030431D02*
X006162Y030131D01*
X006162Y030281D02*
X006613Y030281D01*
X006538Y029971D02*
X006613Y029896D01*
X006613Y029746D01*
X006538Y029671D01*
X006388Y029746D02*
X006388Y029896D01*
X006463Y029971D01*
X006538Y029971D01*
X006388Y029746D02*
X006313Y029671D01*
X006237Y029671D01*
X006162Y029746D01*
X006162Y029896D01*
X006237Y029971D01*
X006162Y029511D02*
X006613Y029210D01*
X006613Y029511D02*
X006162Y029210D01*
X006111Y027451D02*
X006411Y027451D01*
X006561Y027300D01*
X006411Y027150D01*
X006111Y027150D01*
X006111Y026990D02*
X006111Y026690D01*
X006336Y026690D01*
X006261Y026840D01*
X006261Y026915D01*
X006336Y026990D01*
X006486Y026990D01*
X006561Y026915D01*
X006561Y026765D01*
X006486Y026690D01*
X006336Y026530D02*
X006336Y026230D01*
X006186Y026380D02*
X006486Y026380D01*
X006549Y026061D02*
X006549Y025961D01*
X011799Y025961D01*
X011799Y026061D01*
X012299Y026061D01*
X012299Y025961D01*
X017549Y025961D01*
X017549Y026061D01*
X018049Y026061D01*
X018049Y025961D01*
X018549Y025961D01*
X018549Y022461D01*
X016699Y022461D01*
X016549Y022661D01*
X016349Y022661D01*
X015749Y022661D01*
X015549Y022661D01*
X015399Y022461D01*
X012849Y022461D01*
X012849Y022861D01*
X012849Y022961D01*
X015749Y022961D01*
X016349Y022961D01*
X016349Y022861D01*
X016349Y022661D01*
X016349Y022961D02*
X018049Y022961D01*
X018049Y025461D01*
X006049Y025461D01*
X006049Y022961D01*
X008749Y022961D01*
X009349Y022961D01*
X009349Y022861D01*
X009349Y022661D01*
X009549Y022661D01*
X009699Y022461D01*
X011249Y022461D01*
X011249Y022861D01*
X011249Y022961D01*
X009349Y022961D01*
X009349Y022661D02*
X008749Y022661D01*
X008549Y022661D01*
X008399Y022461D01*
X007849Y022461D01*
X007849Y022511D01*
X007249Y022511D01*
X007249Y022461D01*
X005549Y022461D01*
X005549Y025961D01*
X006049Y025961D01*
X006049Y026061D01*
X006549Y026061D01*
X006649Y024936D02*
X006574Y024861D01*
X006649Y024936D02*
X006799Y024936D01*
X006874Y024861D01*
X006874Y024786D01*
X006574Y024486D01*
X006874Y024486D01*
X006724Y023936D02*
X006724Y023486D01*
X006574Y023486D02*
X006874Y023486D01*
X006574Y023786D02*
X006724Y023936D01*
X006642Y022281D02*
X006792Y022131D01*
X006792Y021830D01*
X006953Y021830D02*
X007253Y021830D01*
X006953Y021830D02*
X006953Y022281D01*
X006792Y022056D02*
X006492Y022056D01*
X006492Y022131D02*
X006492Y021830D01*
X006335Y021830D02*
X006185Y021830D01*
X006260Y021830D02*
X006260Y022281D01*
X006185Y022281D02*
X006335Y022281D01*
X006492Y022131D02*
X006642Y022281D01*
X006025Y022206D02*
X006025Y022056D01*
X005950Y021980D01*
X005725Y021980D01*
X005725Y021830D02*
X005725Y022281D01*
X005950Y022281D01*
X006025Y022206D01*
X005875Y021980D02*
X006025Y021830D01*
X005565Y021830D02*
X005264Y021830D01*
X005264Y022281D01*
X005565Y022281D01*
X005415Y022056D02*
X005264Y022056D01*
X005104Y021980D02*
X005104Y021905D01*
X005029Y021830D01*
X004879Y021830D01*
X004804Y021905D01*
X004644Y021905D02*
X004569Y021830D01*
X004419Y021830D01*
X004344Y021905D01*
X004344Y022206D01*
X004419Y022281D01*
X004569Y022281D01*
X004644Y022206D01*
X004804Y022206D02*
X004804Y022131D01*
X004879Y022056D01*
X005029Y022056D01*
X005104Y021980D01*
X005104Y022206D02*
X005029Y022281D01*
X004879Y022281D01*
X004804Y022206D01*
X004184Y022206D02*
X004184Y022056D01*
X004108Y021980D01*
X003883Y021980D01*
X003883Y021830D02*
X003883Y022281D01*
X004108Y022281D01*
X004184Y022206D01*
X008034Y026630D02*
X007921Y026743D01*
X008261Y026743D01*
X008261Y026630D02*
X008261Y026856D01*
X008261Y027630D02*
X008034Y027856D01*
X007978Y027856D01*
X007921Y027800D01*
X007921Y027686D01*
X007978Y027630D01*
X008261Y027630D02*
X008261Y027856D01*
X008205Y028630D02*
X008261Y028686D01*
X008261Y028800D01*
X008205Y028856D01*
X008148Y028856D01*
X008091Y028800D01*
X008091Y028743D01*
X008091Y028800D02*
X008034Y028856D01*
X007978Y028856D01*
X007921Y028800D01*
X007921Y028686D01*
X007978Y028630D01*
X011113Y030238D02*
X011113Y030388D01*
X011113Y030313D02*
X011564Y030313D01*
X011564Y030238D02*
X011564Y030388D01*
X011564Y030545D02*
X011263Y030845D01*
X011188Y030845D01*
X011113Y030770D01*
X011113Y030620D01*
X011188Y030545D01*
X011564Y030545D02*
X011564Y030845D01*
X011489Y031005D02*
X011188Y031005D01*
X011113Y031080D01*
X011113Y031230D01*
X011188Y031305D01*
X011489Y031305D02*
X011564Y031230D01*
X011564Y031080D01*
X011489Y031005D01*
X016140Y029610D02*
X016140Y029309D01*
X016215Y029234D01*
X016365Y029234D01*
X016441Y029309D01*
X016601Y029234D02*
X016901Y029234D01*
X016751Y029234D02*
X016751Y029685D01*
X016601Y029535D01*
X016441Y029610D02*
X016365Y029685D01*
X016215Y029685D01*
X016140Y029610D01*
X017061Y029610D02*
X017136Y029685D01*
X017286Y029685D01*
X017361Y029610D01*
X017361Y029535D01*
X017061Y029234D01*
X017361Y029234D01*
X018223Y029311D02*
X018298Y029236D01*
X018448Y029236D01*
X018523Y029311D01*
X018683Y029236D02*
X018984Y029236D01*
X018833Y029236D02*
X018833Y029687D01*
X018683Y029537D01*
X018523Y029612D02*
X018448Y029687D01*
X018298Y029687D01*
X018223Y029612D01*
X018223Y029311D01*
X019144Y029311D02*
X019219Y029236D01*
X019369Y029236D01*
X019444Y029311D01*
X019444Y029386D01*
X019369Y029461D01*
X019294Y029461D01*
X019369Y029461D02*
X019444Y029537D01*
X019444Y029612D01*
X019369Y029687D01*
X019219Y029687D01*
X019144Y029612D01*
X018631Y026702D02*
X018406Y026702D01*
X018406Y026252D01*
X018631Y026252D01*
X018706Y026327D01*
X018706Y026402D01*
X018631Y026477D01*
X018406Y026477D01*
X018631Y026477D02*
X018706Y026552D01*
X018706Y026627D01*
X018631Y026702D01*
X018246Y026177D02*
X017946Y026177D01*
X017786Y026252D02*
X017786Y026702D01*
X017485Y026702D02*
X017786Y026252D01*
X017485Y026252D02*
X017485Y026702D01*
X017325Y026627D02*
X017325Y026477D01*
X017250Y026402D01*
X017025Y026402D01*
X017175Y026402D02*
X017325Y026252D01*
X017025Y026252D02*
X017025Y026702D01*
X017250Y026702D01*
X017325Y026627D01*
X019834Y024241D02*
X019834Y023791D01*
X019834Y023941D02*
X020059Y023941D01*
X020134Y024016D01*
X020134Y024166D01*
X020059Y024241D01*
X019834Y024241D01*
X019984Y023941D02*
X020134Y023791D01*
X020294Y023791D02*
X020595Y023791D01*
X020755Y023866D02*
X020830Y023791D01*
X020980Y023791D01*
X021055Y023866D01*
X021055Y023941D01*
X020980Y024016D01*
X020830Y024016D01*
X020755Y024091D01*
X020755Y024166D01*
X020830Y024241D01*
X020980Y024241D01*
X021055Y024166D01*
X021215Y024241D02*
X021215Y023791D01*
X021515Y023791D01*
X021365Y024016D02*
X021215Y024016D01*
X021215Y024241D02*
X021515Y024241D01*
X021676Y024241D02*
X021976Y024241D01*
X021826Y024241D02*
X021826Y023791D01*
X020595Y024241D02*
X020294Y024241D01*
X020294Y023791D01*
X020294Y024016D02*
X020445Y024016D01*
X018556Y022202D02*
X018706Y022052D01*
X018706Y021752D01*
X018706Y021977D02*
X018406Y021977D01*
X018406Y022052D02*
X018556Y022202D01*
X018406Y022052D02*
X018406Y021752D01*
X018246Y021677D02*
X017946Y021677D01*
X017786Y021752D02*
X017786Y022202D01*
X017485Y022202D02*
X017786Y021752D01*
X017485Y021752D02*
X017485Y022202D01*
X017325Y022127D02*
X017325Y021977D01*
X017250Y021902D01*
X017025Y021902D01*
X017175Y021902D02*
X017325Y021752D01*
X017025Y021752D02*
X017025Y022202D01*
X017250Y022202D01*
X017325Y022127D01*
X015749Y022661D02*
X015749Y022861D01*
X015749Y022961D01*
X018470Y020419D02*
X018695Y020194D01*
X018695Y020494D01*
X018920Y020419D02*
X018470Y020419D01*
X018470Y019883D02*
X018920Y019883D01*
X018920Y019733D02*
X018920Y020034D01*
X018620Y019733D02*
X018470Y019883D01*
X018545Y019573D02*
X018470Y019498D01*
X018470Y019348D01*
X018545Y019273D01*
X018845Y019273D01*
X018920Y019348D01*
X018920Y019498D01*
X018845Y019573D01*
X021481Y020556D02*
X021481Y017756D01*
X015360Y018743D02*
X015060Y018743D01*
X015360Y019043D01*
X015360Y019118D01*
X015285Y019193D01*
X015135Y019193D01*
X015060Y019118D01*
X014900Y019118D02*
X014900Y018818D01*
X014825Y018743D01*
X014675Y018743D01*
X014600Y018818D01*
X014600Y019118D01*
X014675Y019193D01*
X014825Y019193D01*
X014900Y019118D01*
X014750Y018893D02*
X014900Y018743D01*
X011575Y019233D02*
X011575Y019383D01*
X011500Y019458D01*
X011575Y019619D02*
X011575Y019919D01*
X011575Y019769D02*
X011125Y019769D01*
X011275Y019619D01*
X011200Y019458D02*
X011125Y019383D01*
X011125Y019233D01*
X011200Y019158D01*
X011500Y019158D01*
X011575Y019233D01*
X011500Y020079D02*
X011575Y020154D01*
X011575Y020304D01*
X011500Y020379D01*
X011350Y020379D01*
X011275Y020304D01*
X011275Y020229D01*
X011350Y020079D01*
X011125Y020079D01*
X011125Y020379D01*
X011249Y022461D02*
X012849Y022461D01*
X012435Y022711D02*
X012435Y023011D01*
X012135Y022711D01*
X012210Y022636D01*
X012360Y022636D01*
X012435Y022711D01*
X012435Y023011D02*
X012360Y023086D01*
X012210Y023086D01*
X012135Y023011D01*
X012135Y022711D01*
X011974Y022636D02*
X011674Y022636D01*
X011974Y022936D01*
X011974Y023011D01*
X011899Y023086D01*
X011749Y023086D01*
X011674Y023011D01*
X011249Y022961D02*
X011249Y023261D01*
X012849Y023261D01*
X012849Y022961D01*
X008749Y022961D02*
X008749Y022861D01*
X008749Y022661D01*
X006774Y014882D02*
X006624Y014731D01*
X006464Y014806D02*
X006389Y014882D01*
X006239Y014882D01*
X006164Y014806D01*
X006164Y014506D01*
X006239Y014431D01*
X006389Y014431D01*
X006464Y014506D01*
X006624Y014431D02*
X006924Y014431D01*
X006774Y014431D02*
X006774Y014882D01*
D17*
X014402Y016239D02*
X014507Y016134D01*
X014717Y016134D01*
X014822Y016239D01*
X014822Y016344D01*
X014717Y016449D01*
X014612Y016449D01*
X014717Y016449D02*
X014822Y016554D01*
X014822Y016659D01*
X014717Y016764D01*
X014507Y016764D01*
X014402Y016659D01*
X015046Y016659D02*
X015151Y016764D01*
X015361Y016764D01*
X015467Y016659D01*
X015467Y016554D01*
X015046Y016134D01*
X015467Y016134D01*
X015691Y016239D02*
X015691Y016344D01*
X015796Y016449D01*
X016006Y016449D01*
X016111Y016344D01*
X016111Y016239D01*
X016006Y016134D01*
X015796Y016134D01*
X015691Y016239D01*
X015796Y016449D02*
X015691Y016554D01*
X015691Y016659D01*
X015796Y016764D01*
X016006Y016764D01*
X016111Y016659D01*
X016111Y016554D01*
X016006Y016449D01*
X016335Y016344D02*
X016651Y016344D01*
X016756Y016449D01*
X016756Y016659D01*
X016651Y016764D01*
X016335Y016764D01*
X016335Y016134D01*
X011436Y025213D02*
X011226Y025213D01*
X011121Y025318D01*
X011226Y025528D02*
X011436Y025528D01*
X011541Y025423D01*
X011541Y025318D01*
X011436Y025213D01*
X011226Y025528D02*
X011121Y025634D01*
X011121Y025739D01*
X011226Y025844D01*
X011436Y025844D01*
X011541Y025739D01*
X010897Y025844D02*
X010897Y025213D01*
X010476Y025844D01*
X010476Y025213D01*
X010252Y025318D02*
X010252Y025739D01*
X010147Y025844D01*
X009937Y025844D01*
X009832Y025739D01*
X009832Y025318D01*
X009937Y025213D01*
X010147Y025213D01*
X010252Y025318D01*
X009607Y025844D02*
X009187Y025844D01*
X009397Y025844D02*
X009397Y025213D01*
X008963Y025844D02*
X008543Y025844D01*
X008753Y025844D02*
X008753Y025213D01*
X008318Y025318D02*
X008318Y025844D01*
X007898Y025844D02*
X007898Y025318D01*
X008003Y025213D01*
X008213Y025213D01*
X008318Y025318D01*
X007674Y025318D02*
X007569Y025213D01*
X007253Y025213D01*
X007253Y025844D01*
X007569Y025844D01*
X007674Y025739D01*
X007674Y025634D01*
X007569Y025528D01*
X007253Y025528D01*
X007569Y025528D02*
X007674Y025423D01*
X007674Y025318D01*
D18*
X011922Y019872D02*
X012222Y019872D01*
X012522Y019872D01*
X012522Y019672D02*
X012222Y019672D01*
X011922Y019672D01*
X006467Y016106D02*
X006167Y016106D01*
X005867Y016106D01*
X005867Y015906D02*
X006167Y015906D01*
X006467Y015906D01*
X017523Y019723D02*
X017823Y019723D01*
X018123Y019723D01*
X018123Y019923D02*
X017823Y019923D01*
X017523Y019923D01*
X017385Y028336D02*
X017385Y028636D01*
X017385Y028936D01*
X017185Y028936D02*
X017185Y028636D01*
X017185Y028336D01*
X019203Y028316D02*
X019203Y028616D01*
X019203Y028916D01*
X019403Y028916D02*
X019403Y028616D01*
X019403Y028316D01*
D19*
X016200Y021077D02*
X013800Y021077D01*
X013743Y021075D01*
X013687Y021069D01*
X013631Y021060D01*
X013575Y021047D01*
X013521Y021030D01*
X013468Y021010D01*
X013417Y020986D01*
X013367Y020958D01*
X013319Y020928D01*
X013273Y020894D01*
X013230Y020857D01*
X013189Y020818D01*
X013151Y020776D01*
X013116Y020731D01*
X013084Y020684D01*
X013055Y020635D01*
X013029Y020585D01*
X013007Y020532D01*
X012988Y020479D01*
X012973Y020424D01*
X012962Y020368D01*
X012954Y020312D01*
X012950Y020255D01*
X012950Y020199D01*
X012954Y020142D01*
X012962Y020086D01*
X012973Y020030D01*
X012988Y019975D01*
X013007Y019922D01*
X013029Y019869D01*
X013055Y019819D01*
X013084Y019770D01*
X013116Y019723D01*
X013151Y019678D01*
X013189Y019636D01*
X013230Y019597D01*
X013273Y019560D01*
X013319Y019526D01*
X013367Y019496D01*
X013417Y019468D01*
X013468Y019444D01*
X013521Y019424D01*
X013575Y019407D01*
X013631Y019394D01*
X013687Y019385D01*
X013743Y019379D01*
X013800Y019377D01*
X016200Y019377D01*
X016257Y019379D01*
X016313Y019385D01*
X016369Y019394D01*
X016425Y019407D01*
X016479Y019424D01*
X016532Y019444D01*
X016583Y019468D01*
X016633Y019496D01*
X016681Y019526D01*
X016727Y019560D01*
X016770Y019597D01*
X016811Y019636D01*
X016849Y019678D01*
X016884Y019723D01*
X016916Y019770D01*
X016945Y019819D01*
X016971Y019869D01*
X016993Y019922D01*
X017012Y019975D01*
X017027Y020030D01*
X017038Y020086D01*
X017046Y020142D01*
X017050Y020199D01*
X017050Y020255D01*
X017046Y020312D01*
X017038Y020368D01*
X017027Y020424D01*
X017012Y020479D01*
X016993Y020532D01*
X016971Y020585D01*
X016945Y020635D01*
X016916Y020684D01*
X016884Y020731D01*
X016849Y020776D01*
X016811Y020818D01*
X016770Y020857D01*
X016727Y020894D01*
X016681Y020928D01*
X016633Y020958D01*
X016583Y020986D01*
X016532Y021010D01*
X016479Y021030D01*
X016425Y021047D01*
X016369Y021060D01*
X016313Y021069D01*
X016257Y021075D01*
X016200Y021077D01*
D20*
X019690Y022003D02*
X019690Y022796D01*
X020040Y023596D02*
X021740Y023596D01*
X022090Y022796D02*
X022090Y021991D01*
X021740Y021196D02*
X020040Y021196D01*
X020190Y022396D02*
X020192Y022448D01*
X020198Y022500D01*
X020208Y022552D01*
X020221Y022602D01*
X020238Y022652D01*
X020259Y022700D01*
X020284Y022746D01*
X020312Y022790D01*
X020343Y022832D01*
X020377Y022872D01*
X020414Y022909D01*
X020454Y022943D01*
X020496Y022974D01*
X020540Y023002D01*
X020586Y023027D01*
X020634Y023048D01*
X020684Y023065D01*
X020734Y023078D01*
X020786Y023088D01*
X020838Y023094D01*
X020890Y023096D01*
X020942Y023094D01*
X020994Y023088D01*
X021046Y023078D01*
X021096Y023065D01*
X021146Y023048D01*
X021194Y023027D01*
X021240Y023002D01*
X021284Y022974D01*
X021326Y022943D01*
X021366Y022909D01*
X021403Y022872D01*
X021437Y022832D01*
X021468Y022790D01*
X021496Y022746D01*
X021521Y022700D01*
X021542Y022652D01*
X021559Y022602D01*
X021572Y022552D01*
X021582Y022500D01*
X021588Y022448D01*
X021590Y022396D01*
X021588Y022344D01*
X021582Y022292D01*
X021572Y022240D01*
X021559Y022190D01*
X021542Y022140D01*
X021521Y022092D01*
X021496Y022046D01*
X021468Y022002D01*
X021437Y021960D01*
X021403Y021920D01*
X021366Y021883D01*
X021326Y021849D01*
X021284Y021818D01*
X021240Y021790D01*
X021194Y021765D01*
X021146Y021744D01*
X021096Y021727D01*
X021046Y021714D01*
X020994Y021704D01*
X020942Y021698D01*
X020890Y021696D01*
X020838Y021698D01*
X020786Y021704D01*
X020734Y021714D01*
X020684Y021727D01*
X020634Y021744D01*
X020586Y021765D01*
X020540Y021790D01*
X020496Y021818D01*
X020454Y021849D01*
X020414Y021883D01*
X020377Y021920D01*
X020343Y021960D01*
X020312Y022002D01*
X020284Y022046D01*
X020259Y022092D01*
X020238Y022140D01*
X020221Y022190D01*
X020208Y022240D01*
X020198Y022292D01*
X020192Y022344D01*
X020190Y022396D01*
X019612Y024870D02*
X022252Y024870D01*
X022252Y027870D01*
X019612Y027870D01*
X019612Y024870D01*
X020909Y029977D02*
X020911Y030025D01*
X020917Y030073D01*
X020927Y030120D01*
X020940Y030166D01*
X020958Y030211D01*
X020978Y030255D01*
X021003Y030297D01*
X021031Y030336D01*
X021061Y030373D01*
X021095Y030407D01*
X021132Y030439D01*
X021170Y030468D01*
X021211Y030493D01*
X021254Y030515D01*
X021299Y030533D01*
X021345Y030547D01*
X021392Y030558D01*
X021440Y030565D01*
X021488Y030568D01*
X021536Y030567D01*
X021584Y030562D01*
X021632Y030553D01*
X021678Y030541D01*
X021723Y030524D01*
X021767Y030504D01*
X021809Y030481D01*
X021849Y030454D01*
X021887Y030424D01*
X021922Y030391D01*
X021954Y030355D01*
X021984Y030317D01*
X022010Y030276D01*
X022032Y030233D01*
X022052Y030189D01*
X022067Y030144D01*
X022079Y030097D01*
X022087Y030049D01*
X022091Y030001D01*
X022091Y029953D01*
X022087Y029905D01*
X022079Y029857D01*
X022067Y029810D01*
X022052Y029765D01*
X022032Y029721D01*
X022010Y029678D01*
X021984Y029637D01*
X021954Y029599D01*
X021922Y029563D01*
X021887Y029530D01*
X021849Y029500D01*
X021809Y029473D01*
X021767Y029450D01*
X021723Y029430D01*
X021678Y029413D01*
X021632Y029401D01*
X021584Y029392D01*
X021536Y029387D01*
X021488Y029386D01*
X021440Y029389D01*
X021392Y029396D01*
X021345Y029407D01*
X021299Y029421D01*
X021254Y029439D01*
X021211Y029461D01*
X021170Y029486D01*
X021132Y029515D01*
X021095Y029547D01*
X021061Y029581D01*
X021031Y029618D01*
X021003Y029657D01*
X020978Y029699D01*
X020958Y029743D01*
X020940Y029788D01*
X020927Y029834D01*
X020917Y029881D01*
X020911Y029929D01*
X020909Y029977D01*
X004409Y013977D02*
X004411Y014025D01*
X004417Y014073D01*
X004427Y014120D01*
X004440Y014166D01*
X004458Y014211D01*
X004478Y014255D01*
X004503Y014297D01*
X004531Y014336D01*
X004561Y014373D01*
X004595Y014407D01*
X004632Y014439D01*
X004670Y014468D01*
X004711Y014493D01*
X004754Y014515D01*
X004799Y014533D01*
X004845Y014547D01*
X004892Y014558D01*
X004940Y014565D01*
X004988Y014568D01*
X005036Y014567D01*
X005084Y014562D01*
X005132Y014553D01*
X005178Y014541D01*
X005223Y014524D01*
X005267Y014504D01*
X005309Y014481D01*
X005349Y014454D01*
X005387Y014424D01*
X005422Y014391D01*
X005454Y014355D01*
X005484Y014317D01*
X005510Y014276D01*
X005532Y014233D01*
X005552Y014189D01*
X005567Y014144D01*
X005579Y014097D01*
X005587Y014049D01*
X005591Y014001D01*
X005591Y013953D01*
X005587Y013905D01*
X005579Y013857D01*
X005567Y013810D01*
X005552Y013765D01*
X005532Y013721D01*
X005510Y013678D01*
X005484Y013637D01*
X005454Y013599D01*
X005422Y013563D01*
X005387Y013530D01*
X005349Y013500D01*
X005309Y013473D01*
X005267Y013450D01*
X005223Y013430D01*
X005178Y013413D01*
X005132Y013401D01*
X005084Y013392D01*
X005036Y013387D01*
X004988Y013386D01*
X004940Y013389D01*
X004892Y013396D01*
X004845Y013407D01*
X004799Y013421D01*
X004754Y013439D01*
X004711Y013461D01*
X004670Y013486D01*
X004632Y013515D01*
X004595Y013547D01*
X004561Y013581D01*
X004531Y013618D01*
X004503Y013657D01*
X004478Y013699D01*
X004458Y013743D01*
X004440Y013788D01*
X004427Y013834D01*
X004417Y013881D01*
X004411Y013929D01*
X004409Y013977D01*
X004330Y030065D02*
X004332Y030113D01*
X004338Y030161D01*
X004348Y030208D01*
X004361Y030254D01*
X004379Y030299D01*
X004399Y030343D01*
X004424Y030385D01*
X004452Y030424D01*
X004482Y030461D01*
X004516Y030495D01*
X004553Y030527D01*
X004591Y030556D01*
X004632Y030581D01*
X004675Y030603D01*
X004720Y030621D01*
X004766Y030635D01*
X004813Y030646D01*
X004861Y030653D01*
X004909Y030656D01*
X004957Y030655D01*
X005005Y030650D01*
X005053Y030641D01*
X005099Y030629D01*
X005144Y030612D01*
X005188Y030592D01*
X005230Y030569D01*
X005270Y030542D01*
X005308Y030512D01*
X005343Y030479D01*
X005375Y030443D01*
X005405Y030405D01*
X005431Y030364D01*
X005453Y030321D01*
X005473Y030277D01*
X005488Y030232D01*
X005500Y030185D01*
X005508Y030137D01*
X005512Y030089D01*
X005512Y030041D01*
X005508Y029993D01*
X005500Y029945D01*
X005488Y029898D01*
X005473Y029853D01*
X005453Y029809D01*
X005431Y029766D01*
X005405Y029725D01*
X005375Y029687D01*
X005343Y029651D01*
X005308Y029618D01*
X005270Y029588D01*
X005230Y029561D01*
X005188Y029538D01*
X005144Y029518D01*
X005099Y029501D01*
X005053Y029489D01*
X005005Y029480D01*
X004957Y029475D01*
X004909Y029474D01*
X004861Y029477D01*
X004813Y029484D01*
X004766Y029495D01*
X004720Y029509D01*
X004675Y029527D01*
X004632Y029549D01*
X004591Y029574D01*
X004553Y029603D01*
X004516Y029635D01*
X004482Y029669D01*
X004452Y029706D01*
X004424Y029745D01*
X004399Y029787D01*
X004379Y029831D01*
X004361Y029876D01*
X004348Y029922D01*
X004338Y029969D01*
X004332Y030017D01*
X004330Y030065D01*
D21*
X009023Y028181D03*
X011173Y028181D03*
X017376Y030317D03*
X019526Y030317D03*
X009618Y019012D03*
X007468Y019012D03*
D22*
X007762Y018938D02*
X007938Y018938D01*
X007996Y018996D01*
X007996Y019113D01*
X007938Y019171D01*
X007762Y019171D01*
X007762Y018821D01*
X007879Y018938D02*
X007996Y018821D01*
X008122Y018996D02*
X008355Y018996D01*
X008297Y018821D02*
X008297Y019171D01*
X008122Y018996D01*
X005223Y023272D02*
X004872Y023272D01*
X004872Y023448D01*
X004931Y023506D01*
X005047Y023506D01*
X005106Y023448D01*
X005106Y023272D01*
X005106Y023389D02*
X005223Y023506D01*
X005223Y023632D02*
X005164Y023632D01*
X004931Y023865D01*
X004872Y023865D01*
X004872Y023632D01*
X004333Y023690D02*
X004333Y023807D01*
X004274Y023865D01*
X004216Y023865D01*
X004158Y023807D01*
X004158Y023632D01*
X004274Y023632D01*
X004333Y023690D01*
X004333Y023506D02*
X004216Y023389D01*
X004216Y023448D02*
X004216Y023272D01*
X004333Y023272D02*
X003982Y023272D01*
X003982Y023448D01*
X004041Y023506D01*
X004158Y023506D01*
X004216Y023448D01*
X004158Y023632D02*
X004041Y023748D01*
X003982Y023865D01*
X005223Y026170D02*
X005584Y026170D01*
X005584Y026410D01*
X005584Y026538D02*
X005584Y026778D01*
X005584Y026906D02*
X005584Y027087D01*
X005523Y027147D01*
X005283Y027147D01*
X005223Y027087D01*
X005223Y026906D01*
X005584Y026906D01*
X005403Y026658D02*
X005403Y026538D01*
X005223Y026538D02*
X005584Y026538D01*
X005223Y026538D02*
X005223Y026778D01*
X005223Y027275D02*
X005223Y027515D01*
X005223Y027395D02*
X005584Y027395D01*
X005584Y027643D02*
X005223Y027883D01*
X005223Y027643D02*
X005584Y027883D01*
X005584Y028011D02*
X005223Y028252D01*
X005223Y028380D02*
X005223Y028560D01*
X005283Y028620D01*
X005403Y028620D01*
X005463Y028560D01*
X005463Y028380D01*
X005463Y028500D02*
X005584Y028620D01*
X005584Y028748D02*
X005223Y028988D01*
X005223Y028748D02*
X005584Y028988D01*
X005584Y028380D02*
X005223Y028380D01*
X010217Y028373D02*
X010217Y028022D01*
X010217Y028139D02*
X010392Y028139D01*
X010450Y028198D01*
X010450Y028314D01*
X010392Y028373D01*
X010217Y028373D01*
X010334Y028139D02*
X010450Y028022D01*
X010576Y028081D02*
X010634Y028022D01*
X010751Y028022D01*
X010809Y028081D01*
X010809Y028198D01*
X010751Y028256D01*
X010693Y028256D01*
X010576Y028198D01*
X010576Y028373D01*
X010809Y028373D01*
X017654Y030126D02*
X017654Y030476D01*
X017829Y030476D01*
X017888Y030418D01*
X017888Y030301D01*
X017829Y030243D01*
X017654Y030243D01*
X017771Y030243D02*
X017888Y030126D01*
X018013Y030185D02*
X018072Y030126D01*
X018188Y030126D01*
X018247Y030185D01*
X018247Y030243D01*
X018188Y030301D01*
X018130Y030301D01*
X018188Y030301D02*
X018247Y030360D01*
X018247Y030418D01*
X018188Y030476D01*
X018072Y030476D01*
X018013Y030418D01*
X022057Y015471D02*
X021998Y015413D01*
X021998Y015296D01*
X022057Y015238D01*
X022057Y015112D02*
X022173Y015112D01*
X022232Y015054D01*
X022232Y014879D01*
X022349Y014879D02*
X021998Y014879D01*
X021998Y015054D01*
X022057Y015112D01*
X022232Y014996D02*
X022349Y015112D01*
X022349Y015238D02*
X022115Y015471D01*
X022057Y015471D01*
X022349Y015471D02*
X022349Y015238D01*
D23*
X002650Y016477D03*
X002650Y017477D03*
X002650Y018477D03*
X002650Y019477D03*
X002650Y020477D03*
X002650Y021477D03*
D24*
X003950Y021477D03*
X003950Y020477D03*
X003950Y019477D03*
X003950Y018477D03*
X003950Y017477D03*
X003950Y016477D03*
D25*
X005000Y015127D02*
X005000Y015027D01*
X005000Y012927D02*
X005000Y012827D01*
X005949Y022861D02*
X008749Y022861D01*
X009349Y022861D02*
X011249Y022861D01*
X012849Y022861D02*
X015749Y022861D01*
X016349Y022861D02*
X018149Y022861D01*
X018149Y025561D01*
X005949Y025561D01*
X005949Y022861D01*
X004921Y028915D02*
X004921Y029015D01*
X004921Y031115D02*
X004921Y031215D01*
X021500Y031127D02*
X021500Y031027D01*
X021500Y028927D02*
X021500Y028827D01*
D26*
X022157Y016833D03*
X022157Y014683D03*
X005020Y023037D03*
X004142Y023037D03*
X004142Y025187D03*
X005020Y025187D03*
M02*
